<svg width="98" height="98" viewBox="0 0 98 98" fill="none" xmlns="http://www.w3.org/2000/svg">
<g clip-path="url(#clip0)">
<path d="M80.3615 40.2933V20.9015H56.2152V40.2933C45.8224 44.9207 38.5767 55.3381 38.5767 67.4483C38.5767 83.8577 51.8786 97.1597 68.288 97.1597C84.6973 97.1597 98.0001 83.8577 98.0001 67.4483C98.0001 55.3381 90.7535 44.9207 80.3615 40.2933Z" fill="#E8E8E8"/>
<path d="M91.9871 67.4492C91.9871 80.5171 81.3566 91.1469 68.2871 91.1469C63.9879 91.1469 59.9534 89.997 56.4745 87.9865C49.3753 83.8899 44.5894 76.218 44.5894 67.4492C44.5894 60.8935 47.3049 54.7588 51.8703 50.3632H84.7054C89.2715 54.7588 91.9871 60.8935 91.9871 67.4492Z" fill="#C3EBED"/>
<path d="M61.6434 40.2941V34.9273C61.6434 32.0195 64 29.6629 66.907 29.6629H80.3615V23.908L75.5734 19.5505L71.0641 18.3482L56.2159 23.9072V40.2941C45.8217 44.9215 38.5767 55.3375 38.5767 67.4491C38.5767 83.7875 51.7642 97.0453 68.0786 97.1575C59.1439 96.9511 51.937 83.7291 51.937 67.4491C51.937 55.3375 55.9251 44.9215 61.6434 40.2941Z" fill="#E8E8E8"/>
<path d="M56.4745 87.9865C49.3753 83.8899 44.5894 76.218 44.5894 67.4492C44.5894 60.8935 47.3049 54.7588 51.8703 50.3632H54.9111C53.0366 55.1954 51.9368 61.0879 51.9368 67.4492C51.9368 75.4157 53.6625 82.6495 56.4745 87.9865Z" fill="#84B0B3"/>
<path d="M58.0962 84.2396L38.8008 50.8191V33.5275H20.4632V50.8191L1.16782 84.2396C-2.1474 89.9818 1.99625 97.1596 8.62743 97.1596H50.6374C57.2678 97.1596 61.4122 89.9818 58.0962 84.2396Z" fill="#F3F3F3"/>
<path d="M38.8009 33.5276L33.1866 30.3732L22.4267 30.4853L20.4626 33.5276V50.8185L1.16791 84.2406C-2.14955 89.9828 1.99559 97.1597 8.62528 97.1597H20.094C17.083 97.1597 15.2011 89.9828 16.7062 84.2406L25.469 50.8185V41.9413C25.469 40.1169 26.9479 38.6388 28.7723 38.6388H38.8009V33.5276Z" fill="#E8E8E8"/>
<path d="M45.4491 29.6193C45.4491 31.7778 43.6995 33.5274 41.541 33.5274H17.7221C16.6439 33.5274 15.666 33.0907 14.9587 32.3827C14.2514 31.6754 13.814 30.6974 13.814 29.6193C13.814 27.4607 15.5635 25.7111 17.7221 25.7111H41.541C42.6191 25.7111 43.5971 26.1478 44.3044 26.8551C45.0117 27.5631 45.4491 28.5411 45.4491 29.6193Z" fill="#E8E8E8"/>
<path d="M45.4493 29.6193C45.4493 31.7778 43.6997 33.5274 41.5411 33.5274H27.2006C26.1202 33.5274 25.1445 33.0907 24.4364 32.3827C23.7291 31.6754 23.2925 30.6974 23.2925 29.6193C23.2925 27.4607 25.0421 25.7111 27.2006 25.7111H41.5411C42.6193 25.7111 43.5972 26.1478 44.3046 26.8551C45.0119 27.5631 45.4493 28.5411 45.4493 29.6193Z" fill="#BCBCBC"/>
<path d="M87.0929 19.9988C87.0929 22.1574 85.3433 23.907 83.1847 23.907H53.7209C52.6405 23.907 51.664 23.4703 50.9567 22.763C50.2494 22.055 49.812 21.077 49.812 19.9988C49.812 17.8403 51.5623 16.0907 53.7209 16.0907H83.1847C84.2629 16.0907 85.2409 16.5274 85.9482 17.2354C86.6562 17.9427 87.0929 18.9207 87.0929 19.9988Z" fill="#E8E8E8"/>
<path d="M87.093 19.9988C87.093 22.1574 85.3434 23.907 83.1849 23.907H62.8539C61.7758 23.907 60.7978 23.4703 60.0898 22.763C59.3824 22.055 58.9458 21.077 58.9458 19.9988C58.9458 17.8403 60.6954 16.0907 62.8539 16.0907H83.1849C84.263 16.0907 85.241 16.5274 85.9483 17.2354C86.6564 17.9427 87.093 18.9207 87.093 19.9988Z" fill="#BCBCBC"/>
<path d="M52.8887 89.8467C52.6083 90.3334 51.9428 91.1469 50.6381 91.1469H8.62745C7.32051 91.1469 6.65507 90.3334 6.37469 89.8467C6.09431 89.3615 5.72122 88.3775 6.37469 87.247L20.5545 62.6872H38.7111L52.8887 87.247C53.5421 88.3775 53.169 89.3615 52.8887 89.8467Z" fill="#E7CBFE"/>
<path d="M16.7061 84.2406C16.1155 86.4956 16.0467 88.9704 16.3637 91.1469H8.62745C7.32051 91.1469 6.65507 90.3335 6.37469 89.8467C6.09431 89.3615 5.72122 88.3775 6.37469 87.247L20.5545 62.6872H22.3564L16.7061 84.2406Z" fill="#BCA4CF"/>
<path d="M32.8643 79.8222C31.499 79.8222 30.8493 78.0674 31.8893 77.1769C32.9234 76.2916 34.5466 77.1948 34.3514 78.5407C34.246 79.2689 33.5985 79.8222 32.8643 79.8222Z" fill="white"/>
<path d="M26.2344 18.1972C24.9222 18.1972 24.2478 16.5568 25.172 15.6296C25.6714 15.1294 26.4812 15.0517 27.0681 15.4435C27.5825 15.7859 27.8389 16.4304 27.6976 17.0323C27.5406 17.7044 26.926 18.1972 26.2344 18.1972Z" fill="#8E39A1"/>
<path d="M32.217 12.4848C30.8569 12.4848 30.1923 10.7233 31.2405 9.838C31.7392 9.41631 32.4667 9.36248 33.0207 9.71165C33.5531 10.0474 33.8245 10.7068 33.6809 11.3207C33.5239 11.9913 32.9093 12.4848 32.217 12.4848Z" fill="#8E39A1"/>
<path d="M28.9584 3.7668C28.3019 3.7668 27.7113 3.32567 27.5191 2.69986C27.3284 2.07555 27.5797 1.37497 28.1225 1.01309C29.238 0.268402 30.7476 1.32114 30.4149 2.62883C30.2466 3.28828 29.6403 3.7668 28.9584 3.7668Z" fill="#8E39A1"/>
<path d="M81.4867 59.683C80.1506 59.683 79.4844 57.9768 80.4698 57.0721C81.4141 56.2056 82.9902 56.8972 82.9902 58.1795C82.9902 58.9967 82.3054 59.683 81.4867 59.683Z" fill="white"/>
<path d="M82.5334 69.7079C81.2242 69.7079 80.5379 68.0667 81.471 67.1426C81.9375 66.6805 82.6628 66.5736 83.2422 66.8809C83.7978 67.1763 84.1103 67.8051 84.0206 68.4264C83.9144 69.1554 83.2669 69.7079 82.5334 69.7079Z" fill="white"/>
<path d="M62.9278 81.0254C62.2848 81.0254 61.7031 80.603 61.5012 79.9936C61.2874 79.3506 61.5468 78.6209 62.1173 78.256C63.2493 77.5315 64.7357 78.6209 64.3761 79.9211C64.1988 80.5641 63.5962 81.0254 62.9278 81.0254Z" fill="white"/>
<path d="M56.0132 68.3987C54.6547 68.3987 53.9952 66.6469 55.0308 65.7594C55.528 65.3325 56.2562 65.2794 56.8117 65.6241C57.3388 65.9523 57.6125 66.5976 57.4839 67.2054C57.3388 67.8918 56.716 68.3987 56.0132 68.3987Z" fill="white"/>
<path d="M74.3502 64.791C73.0066 64.791 72.3412 63.0751 73.3416 62.1757C73.8403 61.7271 74.5865 61.6643 75.1547 62.0194C75.6743 62.3454 75.9442 62.9809 75.8254 63.5828C75.6878 64.2766 75.0567 64.791 74.3502 64.791Z" fill="white"/>
<path d="M22.3444 82.9355C21.741 82.9355 21.187 82.5632 20.9552 82.0077C20.701 81.3961 20.8909 80.6611 21.4128 80.2521C22.4842 79.414 24.0932 80.38 23.8173 81.7265C23.6752 82.4204 23.0547 82.9355 22.3444 82.9355Z" fill="white"/>
<path d="M26.2525 73.2093C25.6237 73.2093 25.0495 72.8048 24.8371 72.2126C24.6113 71.5831 24.8424 70.8548 25.3927 70.4735C26.4626 69.7326 27.9632 70.6724 27.7321 71.9636C27.605 72.6739 26.9762 73.2093 26.2525 73.2093Z" fill="white"/>
</g>
<defs>
<clipPath id="clip0">
<rect width="98" height="98" fill="white"/>
</clipPath>
</defs>
</svg>
