<svg width="93" height="108" viewBox="0 0 93 108" fill="none" xmlns="http://www.w3.org/2000/svg">
<path d="M23.2774 62.8371L16.8091 44.2032C16.5355 43.1119 15.8597 42.1642 14.9171 41.55C13.9745 40.9357 12.8346 40.7002 11.7258 40.8905C11.1572 41.0118 10.6191 41.2472 10.1441 41.5826C9.66923 41.918 9.26738 42.3464 8.96297 42.8417C8.65855 43.3371 8.45791 43.8891 8.3732 44.4643C8.2885 45.0395 8.3215 45.6259 8.47021 46.188L15.1241 66.7352L23.2774 62.8371Z" fill="#FFAC96"/>
<path d="M69.798 62.8371L76.2663 44.2032C76.5399 43.1119 77.2156 42.1642 78.1582 41.55C79.1008 40.9357 80.2407 40.7002 81.3495 40.8905C81.9182 41.0118 82.4563 41.2472 82.9312 41.5826C83.4061 41.918 83.8079 42.3464 84.1124 42.8417C84.4168 43.3371 84.6174 43.8891 84.7021 44.4643C84.7868 45.0395 84.7538 45.6259 84.6051 46.188L77.9512 66.7352L69.798 62.8371Z" fill="#FFAC96"/>
<path d="M36.6082 70.5646L23.9857 63.1653C23.1122 62.6608 22.0885 62.4814 21.0956 62.6588C20.1026 62.8363 19.2044 63.3591 18.5597 64.1348L13.9533 49.9145C13.6797 48.8232 13.004 47.8755 12.0614 47.2612C11.1188 46.647 9.97893 46.4114 8.87007 46.6018C8.30144 46.723 7.76335 46.9585 7.28844 47.2939C6.81352 47.6293 6.41167 48.0577 6.10725 48.553C5.80284 49.0483 5.60219 49.6004 5.51749 50.1756C5.43279 50.7508 5.46579 51.3372 5.61449 51.8993L11.8258 75.0738C12.1107 76.1577 12.7122 77.1321 13.5535 77.8725L23.206 86.4541C23.8083 86.9903 24.2901 87.648 24.6199 88.3839C24.9497 89.1197 25.1199 89.9171 25.1194 90.7234V95.2927H42.254V80.4198C42.2541 78.4274 41.7332 76.4696 40.7427 74.7408C39.7523 73.0119 38.327 71.5722 36.6082 70.5646Z" fill="#FFBCAB"/>
<path d="M84.2051 46.6018C83.0963 46.4114 81.9564 46.647 81.0138 47.2612C80.0712 47.8755 79.3954 48.8232 79.1218 49.9145L74.5098 64.1348C73.8651 63.3591 72.9668 62.8363 71.9739 62.6588C70.981 62.4814 69.9573 62.6608 69.0838 63.1653L56.4613 70.5646C54.7436 71.573 53.3193 73.013 52.33 74.7417C51.3406 76.4705 50.8204 78.428 50.8212 80.4198V95.2927H67.9558V90.7234C67.9553 89.9171 68.1255 89.1197 68.4553 88.3839C68.785 87.648 69.2669 86.9903 69.8692 86.4541L79.5217 77.8725C80.3629 77.1321 80.9645 76.1577 81.2494 75.0738L87.4607 51.8993C87.6094 51.3372 87.6424 50.7508 87.5577 50.1756C87.473 49.6004 87.2724 49.0483 86.9679 48.553C86.6635 48.0577 86.2617 47.6293 85.7867 47.2939C85.3118 46.9585 84.7737 46.723 84.2051 46.6018Z" fill="#FFBCAB"/>
<path d="M49.3934 95.2931V106.716H69.3838V95.2931H67.9559H50.8213H49.3934Z" fill="#8E39A1"/>
<path d="M43.6819 95.2931H42.254H25.1194H23.6915V106.716H43.6819V95.2931Z" fill="#8E39A1"/>
<path d="M73.3734 67.735L63.8294 73.0182C63.5566 73.1761 63.3544 73.4322 63.2639 73.7341C63.1734 74.0361 63.2015 74.3612 63.3425 74.6431C63.4178 74.7939 63.5232 74.9276 63.6522 75.0361C63.7812 75.1446 63.931 75.2256 64.0925 75.274C64.2539 75.3224 64.4236 75.3373 64.591 75.3177C64.7584 75.2981 64.92 75.2444 65.0659 75.16L73.3734 70.5908C74.2407 70.088 74.9042 69.2969 75.2484 68.3553C75.5925 67.4136 75.5955 66.3811 75.2567 65.4375C74.9264 66.4053 74.2575 67.2212 73.3734 67.735Z" fill="#FFAC96"/>
<path d="M19.7019 67.735L29.2459 73.0182C29.5187 73.1761 29.7209 73.4322 29.8114 73.7341C29.9019 74.0361 29.8738 74.3612 29.7328 74.6431C29.6575 74.7939 29.5521 74.9276 29.4231 75.0361C29.2941 75.1446 29.1443 75.2256 28.9828 75.274C28.8214 75.3224 28.6517 75.3373 28.4843 75.3177C28.3169 75.2981 28.1553 75.2444 28.0094 75.16L19.7019 70.5908C18.8346 70.088 18.1711 69.2969 17.8269 68.3553C17.4828 67.4136 17.4798 66.3811 17.8185 65.4375C18.1489 66.4053 18.8177 67.2212 19.7019 67.735Z" fill="#FFAC96"/>
<g clip-path="url(#clip0)">
<path d="M57.2097 23.6289V24.1043C57.2097 24.6868 57.3059 25.2655 57.4944 25.818L58.5968 29.0483H60.6774V21.5966H59.2903C58.1413 21.5967 57.2097 22.5065 57.2097 23.6289Z" fill="#5A4146"/>
<path d="M66.7059 25.0361L65.5323 29.0482L59.9839 24.3063C59.2178 24.3063 58.5968 23.6997 58.5968 22.9515C58.5968 21.8291 59.5284 20.9193 60.6774 20.9193H65.5322C66.2983 20.9193 66.9193 21.5259 66.9193 22.2741V23.5474C66.9194 24.0508 66.8475 24.5518 66.7059 25.0361Z" fill="#694B4B"/>
<path d="M64.1446 31.0813H59.9834V34.0795H64.1446V31.0813Z" fill="#FFBCAB"/>
<path d="M59.9841 32.3251C60.6274 32.5804 61.3288 32.7241 62.0648 32.7241C62.8007 32.7241 63.5021 32.5804 64.1454 32.3251V31.0808H59.9841V32.3251Z" fill="#FFBCAB"/>
<path d="M67.4911 33.6579L64.1452 32.7242L62.0647 34.0728L59.9841 32.7242L56.6383 33.6579C55.745 33.9072 55.1293 34.7046 55.1293 35.612V40.5647C55.1293 40.9388 55.4398 41.2421 55.8228 41.2421H68.3067C68.6897 41.2421 69.0002 40.9388 69.0002 40.5647V35.612C69.0002 34.7046 68.3844 33.9072 67.4911 33.6579Z" fill="white"/>
<path d="M62.7578 41.2419H61.3707L61.7175 34.0789H62.411L62.7578 41.2419Z" fill="#AFB9D2"/>
<path d="M62.0647 31.7579C59.7665 31.7579 57.9034 29.9381 57.9034 27.6934V26.8998C57.9034 26.5405 58.0496 26.1958 58.3097 25.9417L59.5673 24.7133C59.8337 24.4532 60.1978 24.3036 60.5742 24.3152C62.7912 24.3835 64.7536 24.8474 65.8264 25.8708C66.089 26.1213 66.226 26.4717 66.226 26.8302V27.6934C66.226 29.9382 64.3629 31.7579 62.0647 31.7579Z" fill="#FFBCAB"/>
<path d="M59.9841 27.0678C59.9841 26.2863 60.6559 25.6652 61.4544 25.7149C62.8545 25.8022 64.9321 26.0307 66.2067 26.6295C66.1652 26.3437 66.0394 26.0739 65.8264 25.8707C64.7536 24.8473 62.7912 24.3834 60.5742 24.3151L60.5741 24.3152V24.3151C60.1978 24.3035 59.8336 24.4532 59.5673 24.7132L58.3098 25.9415C58.0496 26.1956 57.9034 26.5402 57.9034 26.8996V27.6932C57.9034 29.5468 59.1751 31.1075 60.9118 31.5962C60.3337 30.8996 59.9842 30.0153 59.9842 29.0481L59.9841 27.0678Z" fill="#FFBCAB"/>
<path d="M66.2258 37.6307C66.2258 37.0917 66.445 36.5748 66.8352 36.1937L68.6205 34.4499C68.8591 34.7831 69 35.1841 69 35.6122V40.5649C69 40.9391 68.6895 41.2424 68.3065 41.2424H66.2258V37.6307Z" fill="#F3F3F3"/>
<path d="M62.411 35.4337H61.7175C61.526 35.4337 61.3707 35.282 61.3707 35.095V34.0789H62.7578V35.095C62.7578 35.282 62.6026 35.4337 62.411 35.4337Z" fill="#959CB5"/>
<path d="M62.0646 34.0733L60.889 34.9503C60.6866 35.1014 60.3938 35.0408 60.2714 34.8224L59.2169 32.9415L59.6414 32.3091C59.7355 32.1688 59.9362 32.1449 60.0621 32.259L62.0646 34.0733Z" fill="#F3F3F3"/>
<path d="M62.0648 34.0733L63.2403 34.9503C63.4428 35.1014 63.7356 35.0409 63.858 34.8225L64.9125 32.9416L64.488 32.3092C64.3939 32.1689 64.1932 32.145 64.0673 32.2591L62.0648 34.0733Z" fill="#F3F3F3"/>
<path d="M38.4149 31.475C37.8222 29.9412 37.3521 27.3044 37.2506 25.9316C37.0574 23.3193 35.0419 21.1897 32.3173 21.1897C29.5926 21.1897 27.5771 23.3193 27.3839 25.9316C27.2824 27.3043 26.8123 29.9412 26.2196 31.475C26.0891 31.8131 26.2398 32.1859 26.5807 32.3369C27.2158 32.618 28.5699 33.1688 30.2029 33.3833H34.4315C36.0569 33.1683 37.4205 32.6172 38.0537 32.3369C38.3947 32.1859 38.5454 31.8131 38.4149 31.475Z" fill="#5A4146"/>
<path d="M38.0538 32.337C38.3946 32.186 38.5454 31.8132 38.4147 31.4751C37.8221 29.9412 37.352 27.3045 37.2505 25.9317C37.0575 23.3193 35.0418 21.1898 32.3173 21.1898C32.3104 21.1898 32.3036 21.1898 32.2967 21.1899C30.2061 21.1982 29.4673 23.9831 31.267 25.0221C31.3751 25.0846 31.4444 25.1146 31.4444 25.1146L33.0207 33.3833H34.4315C36.057 33.1682 37.4205 32.6172 38.0538 32.337Z" fill="#694B4B"/>
<path d="M37.3337 34.7436L35.0893 33.6475C34.6193 33.418 34.3224 32.9488 34.3225 32.4356L34.3227 30.4033H30.1613V32.4357C30.1613 32.9489 29.8645 33.4179 29.3945 33.6474L27.1501 34.7436C26.4452 35.0878 26 35.7914 26 36.5611V40.5644C26 40.9385 26.3105 41.2418 26.6935 41.2418H37.7903C38.1734 41.2418 38.4839 40.9385 38.4839 40.5644V36.5612C38.4839 35.7914 38.0386 35.0878 37.3337 34.7436Z" fill="#FFBCAB"/>
<path d="M32.2418 33.1129C32.9886 33.1129 33.7039 32.9625 34.3597 32.6948C34.3424 32.6094 34.3224 32.5245 34.3224 32.4355L34.3225 30.4032H30.1611V32.4356C30.1611 32.5251 30.141 32.6104 30.1237 32.6961C30.7798 32.9624 31.4948 33.1129 32.2418 33.1129Z" fill="#FFBCAB"/>
<path d="M37.3337 34.7432L35.7348 33.9623C34.9934 35.0806 33.7075 35.8222 32.242 35.8222C30.7764 35.8222 29.4905 35.0806 28.7491 33.9622L27.1502 34.7432C26.4453 35.0874 26 35.791 26 36.5607V40.564C26 40.9382 26.3105 41.2414 26.6935 41.2414H37.7903C38.1734 41.2414 38.4839 40.9382 38.4839 40.564V36.5608C38.4839 35.791 38.0386 35.0874 37.3337 34.7432Z" fill="white"/>
<path d="M32.2422 31.7578C30.1264 31.7578 28.3795 30.2156 28.1154 28.2194C28.0771 27.9301 28.2195 27.6466 28.486 27.5152C28.8053 27.3579 29.2694 27.0926 29.7136 26.7054C30.2084 26.2742 30.4986 25.8195 30.6626 25.4858C30.8038 25.1983 31.1283 25.0357 31.4446 25.1146C33.8865 25.7229 35.549 26.9638 36.1521 27.4704C36.3141 27.6064 36.4074 27.807 36.3907 28.015C36.2227 30.1093 34.4295 31.7578 32.2422 31.7578Z" fill="#FFBCAB"/>
<path d="M36.152 27.4704C35.5489 26.9637 33.8864 25.7228 31.4444 25.1145C31.1282 25.0357 30.8036 25.1983 30.6625 25.4857C30.5383 25.7385 30.3332 26.0606 30.0287 26.3893C30.0286 26.3902 30.0284 26.3908 30.0283 26.3916C29.9338 26.4962 29.8332 26.6011 29.7136 26.7054C29.2693 27.0927 28.8053 27.3579 28.486 27.5152C28.2194 27.6466 28.0772 27.9302 28.1154 28.2195C28.3526 30.0123 29.7889 31.4393 31.6112 31.7115C30.7809 31.1597 30.1615 30.4009 30.1615 29.0482V28.0822C30.3191 27.9686 30.4777 27.8553 30.6371 27.7164C31.0226 27.3804 31.3591 26.9918 31.629 26.5734C33.497 27.1428 34.7635 28.0912 35.2436 28.4944C35.3751 28.607 35.7013 28.9007 36.0829 29.2504C36.2471 28.8644 36.3557 28.4503 36.3905 28.0151C36.4073 27.807 36.3139 27.6064 36.152 27.4704Z" fill="#FFBCAB"/>
<path d="M26.4228 35.3401C26.1556 35.6864 26 36.1113 26 36.5612V40.5645C26 40.9387 26.3105 41.2419 26.6935 41.2419H28.7742V37.8286C28.7742 37.4171 28.5826 37.0277 28.2536 36.7706L26.4228 35.3401Z" fill="#F3F3F3"/>
<path d="M57.4642 33.819L51.6613 31.7579L47.5 33.1128L43.3388 31.758L37.5359 33.8191C36.4395 34.2085 35.7097 35.2262 35.7097 36.3656V40.5644C35.7097 40.9385 36.0202 41.2418 36.4033 41.2418H58.5968C58.9799 41.2418 59.2903 40.9385 59.2903 40.5644V36.3656C59.2903 35.2261 58.5606 34.2084 57.4642 33.819Z" fill="#E7CBFE"/>
<path d="M46.7733 34.4681L46.1128 41.2422H48.887L48.2264 34.4681H46.7733Z" fill="#707487"/>
<path d="M48.2281 35.3984H46.7718C46.5036 35.3984 46.2863 35.1861 46.2863 34.9242V33.1129H48.7135V34.9242C48.7136 35.186 48.4962 35.3984 48.2281 35.3984Z" fill="#5B5D6E"/>
<path d="M58.544 34.5191C59.0123 35.01 59.2905 35.6639 59.2905 36.3653V40.5641C59.2905 40.9383 58.98 41.2415 58.597 41.2415H55.1293V38.9768C55.1293 38.2581 55.4215 37.5689 55.9418 37.0608L58.544 34.5191Z" fill="#8E39A1"/>
<path d="M55.129 17.7877V12.1127C55.129 11.3645 54.5079 10.7579 53.7419 10.7579H45.4193C42.355 10.7579 39.8708 13.1842 39.8708 16.1773V17.7877C39.8708 18.5158 39.991 19.2391 40.2268 19.9298L40.4576 20.6063C40.5284 20.8136 40.5644 21.0305 40.5644 21.249V21.5966H54.4353V21.249C54.4353 21.0305 54.4714 20.8136 54.5421 20.6063L54.773 19.9298C55.0088 19.239 55.129 18.5157 55.129 17.7877Z" fill="#5A4146"/>
<path d="M43.3387 13.5099C43.3387 15.0298 44.6002 16.2619 46.1563 16.2619H46.5464L46.7347 21.5965H54.4354V21.2489C54.4354 21.0304 54.4715 20.8135 54.5422 20.6063L54.773 19.9298C55.0088 19.239 55.129 18.5157 55.129 17.7876V12.1127C55.129 11.3645 54.5079 10.7579 53.7419 10.7579H46.1563C44.6002 10.7579 43.3387 11.99 43.3387 13.5099Z" fill="#694B4B"/>
<path d="M51.6614 27.0168H43.3385V33.1134H51.6614V27.0168Z" fill="#FFBCAB"/>
<path d="M43.3387 29.3071C44.5639 30.0003 45.9823 30.4035 47.5 30.4035C49.0176 30.4035 50.4361 30.0003 51.6612 29.3071V27.0165H43.3386L43.3387 29.3071Z" fill="#FFBCAB"/>
<path d="M47.4998 33.1125L45.2878 35.273C44.9905 35.5634 44.4991 35.5307 44.2449 35.2036L41.9514 32.2517L42.5513 31.0169C42.7284 30.6525 43.1901 30.519 43.5417 30.7306L47.4998 33.1125Z" fill="#8E39A1"/>
<path d="M47.4999 33.1125L49.7119 35.273C50.0092 35.5634 50.5006 35.5307 50.7547 35.2036L53.0482 32.2517L52.4483 31.0169C52.2713 30.6525 51.8095 30.519 51.458 30.7306L47.4999 33.1125Z" fill="#8E39A1"/>
<path d="M47.5002 29.0483C43.6699 29.0483 40.5647 26.0153 40.5647 22.2741V21.4804C40.5647 21.1211 40.7108 20.7765 40.9709 20.5224L41.5455 19.9612C41.8056 19.7071 41.9517 19.3625 41.9517 19.0032V17.3793C41.9517 17.0656 42.1674 16.7931 42.4799 16.721C44.1202 16.3426 49.2245 15.4462 52.6982 17.9416C52.9238 18.1036 53.0485 18.3698 53.0485 18.6433V19.0032C53.0485 19.3625 53.1946 19.7071 53.4547 19.9612L54.0292 20.5224C54.2893 20.7764 54.4355 21.121 54.4355 21.4804V22.2741C54.4357 26.0153 51.3306 29.0483 47.5002 29.0483Z" fill="#FFBCAB"/>
<path d="M52.6983 17.9414C50.2551 16.1863 47.0099 16.1104 44.726 16.3506C43.7627 16.452 42.9667 16.6086 42.48 16.7208C42.1675 16.7929 41.9519 17.0654 41.9519 17.3791V19.0029C41.9519 19.3623 41.8057 19.7069 41.5456 19.961L40.971 20.5222C40.7108 20.7763 40.5647 21.1209 40.5647 21.4803V22.2739C40.5647 25.7376 43.2278 28.5891 46.6621 28.9939C45.4654 27.7766 44.726 26.127 44.726 24.3061V19.3546C44.726 18.6681 45.2486 18.0944 45.9459 18.009C47.6103 17.8051 50.6588 17.6826 53.0485 19.003V18.6431C53.0486 18.3696 52.9237 18.1033 52.6983 17.9414Z" fill="#FFBCAB"/>
<path d="M36.4563 34.5191C35.988 35.01 35.7097 35.6639 35.7097 36.3653V40.5641C35.7097 40.9383 36.0202 41.2415 36.4033 41.2415H39.871V38.9768C39.871 38.2581 39.5787 37.5689 39.0584 37.0608L36.4563 34.5191Z" fill="#8E39A1"/>
</g>
<defs>
<clipPath id="clip0">
<rect width="43" height="42" fill="white" transform="translate(26 5)"/>
</clipPath>
</defs>
</svg>
