<svg width="91" height="97" viewBox="0 0 91 97" fill="none" xmlns="http://www.w3.org/2000/svg">
<g clip-path="url(#clip0)">
<path d="M43.7385 73.1146C43.1355 72.5746 42.4372 71.7488 41.6754 71.3994C41.6754 71.3994 41.6754 71.3994 41.7071 71.4312C41.8024 71.5265 41.6754 71.7171 41.5167 71.6218C41.3897 71.5582 41.3263 71.4947 41.2945 71.3994C40.501 70.5419 39.7075 69.7161 38.914 68.8585C38.8822 69.0173 38.8822 69.1761 38.8505 69.3349C38.8188 69.4937 38.5648 69.5573 38.4379 69.3985C37.6761 68.5091 36.7239 67.6833 35.613 67.0799C35.613 67.2387 35.613 67.3975 35.613 67.5563C35.613 67.8104 35.2003 67.7786 35.0734 67.588C34.5338 66.7622 33.8038 66.0952 32.915 65.5553C32.915 65.7776 32.915 66 32.915 66.2223C32.915 66.4446 32.5659 66.4446 32.4072 66.3176C31.6137 65.5871 30.7884 64.9201 29.8997 64.2848C29.8679 64.4754 29.8679 64.6342 29.9314 64.8565C29.9949 65.0789 29.6775 65.1742 29.487 65.0471C28.5348 64.3801 27.6778 63.6496 26.9161 62.8238C26.8843 63.0779 26.9478 63.332 27.0748 63.5861C27.2017 63.8719 26.7256 64.0307 26.5669 63.7449C26.1543 62.9826 25.4877 62.3474 24.6307 61.871C24.6307 62.125 24.6625 62.3474 24.7577 62.6015C24.8529 62.8556 24.5038 63.0461 24.2816 62.8238C23.5833 61.998 22.6946 61.3628 21.6471 60.8546C21.6471 61.1722 21.7424 61.4581 21.9328 61.7757C22.0915 62.0298 21.6789 62.1568 21.4567 61.9662C20.6949 61.331 19.9014 60.7275 19.0762 60.1876C19.0762 60.4417 19.1079 60.6958 19.1714 60.9499C19.2349 61.1404 18.9175 61.2675 18.7588 61.1404C17.8383 60.4417 16.7908 59.87 15.6482 59.4888C15.7117 59.7429 15.7752 59.997 15.8386 60.2511C15.9021 60.5052 15.4577 60.5687 15.3308 60.3464C14.9182 59.6476 14.1246 59.203 13.2359 59.1395C13.2677 59.2983 13.3311 59.4571 13.4264 59.6159C13.5533 59.8064 13.2359 60.0288 13.0137 59.87C12.2202 59.203 11.3315 58.7901 10.3158 58.5677C10.3475 58.663 10.3793 58.7901 10.3793 58.8854C10.411 59.0759 10.1253 59.203 9.9349 59.0759C9.39531 58.6948 8.82398 58.4725 8.15743 58.4089C8.15743 58.4407 8.18917 58.4725 8.18917 58.5042C8.22091 58.6313 8.06221 58.7901 7.87177 58.7583C6.98303 58.536 6.0943 58.3772 5.20557 58.2184C11.395 60.2511 22.9168 64.8883 22.9168 64.8883C29.8997 67.6516 36.8191 70.3831 43.7385 73.1146Z" fill="#C3EBED"/>
<path d="M18.7267 78.832C18.8537 78.832 18.9172 78.959 18.8854 79.0543C18.8854 79.0861 18.8537 79.1179 18.8537 79.1179C19.2981 79.1814 19.7107 79.1179 20.1233 78.959C20.282 78.8955 20.4407 79.0543 20.3772 79.1814C20.3455 79.2449 20.3138 79.3402 20.282 79.4037C20.9803 79.4355 21.6469 79.2767 22.2499 78.959C22.4086 78.8638 22.5991 79.0861 22.4721 79.2131C22.3769 79.3084 22.3134 79.4037 22.2499 79.5308C22.8213 79.6578 23.4243 79.4672 23.8052 79.0226C23.9322 78.8955 24.2178 78.9908 24.1226 79.1814C24.0274 79.3402 23.9639 79.5308 23.8687 79.6896C24.6622 79.626 25.424 79.4037 26.154 79.0543C26.281 78.9908 26.4714 79.1496 26.4079 79.2767C26.3127 79.4672 26.2492 79.626 26.2175 79.8166C26.8523 79.5625 27.4554 79.2767 28.0584 78.959C28.2171 78.8638 28.4711 79.0226 28.3124 79.1814C28.1219 79.3719 28.0267 79.5943 27.9632 79.8166C28.725 79.6578 29.3915 79.3402 29.9946 78.8638C30.1533 78.7367 30.3755 78.959 30.2803 79.1179C30.1533 79.2767 30.0898 79.4672 30.0581 79.626C30.6929 79.4355 31.2008 79.0861 31.6134 78.6097C31.7721 78.4191 32.0577 78.6414 31.9308 78.832C31.8038 79.0226 31.7403 79.1814 31.7086 79.3719C32.3434 78.8955 33.01 78.5144 33.74 78.1968C33.8987 78.1332 34.0574 78.2921 33.9939 78.4191C33.9304 78.5779 33.8987 78.705 33.867 78.832C34.5335 78.5144 35.2001 78.165 35.8349 77.7839C35.9618 77.7203 36.184 77.7839 36.1523 77.9427C36.1205 78.1015 36.0888 78.2603 36.0571 78.4191C36.7236 78.1968 37.3267 77.8156 37.8028 77.3392C37.9297 77.2122 38.1837 77.2757 38.1519 77.4662C38.1202 77.5933 38.1202 77.7203 38.0884 77.8156C38.9137 77.5615 39.6437 77.1486 40.2785 76.6404C40.3738 76.5452 40.5325 76.6404 40.5325 76.7675C40.5325 76.8945 40.5007 77.0216 40.5007 77.1486C41.1673 76.6722 41.8021 76.1958 42.4686 75.7194C42.5004 75.6558 42.5639 75.6241 42.6591 75.5923C42.786 75.5606 42.8495 75.7194 42.7543 75.7829C42.7543 75.7829 42.7543 75.7829 42.7226 75.7829C43.2939 75.6558 43.8652 75.1477 44.3731 74.8936C44.4683 74.83 44.5635 74.7983 44.6587 74.7347C35.2001 76.2275 25.6779 77.5298 16.1558 78.6414C16.981 78.7367 17.8697 78.832 18.7267 78.832Z" fill="#C3EBED"/>
<path d="M44.9446 74.0999C44.9128 74.0999 44.9128 74.0999 44.9446 74.0999C37.676 71.2414 30.4392 68.3828 23.2023 65.556C16.5051 62.9198 9.8396 60.0613 2.85669 58.1238C4.28501 58.9179 5.64985 59.839 7.07817 60.633C7.23688 60.7283 7.23688 60.9189 7.07817 61.0141C7.04643 61.0459 7.01469 61.0459 6.98295 61.0777C7.4908 61.4588 8.09387 61.6811 8.76042 61.7446C9.01435 61.7764 9.10957 62.0623 8.91912 62.1576C8.8239 62.2211 8.69694 62.2846 8.60172 62.3481C9.49045 62.8881 10.4427 63.1739 11.5218 63.2057C11.8075 63.2057 11.871 63.5868 11.6171 63.6503C11.4266 63.6821 11.2362 63.7456 11.1092 63.8409C11.7758 64.3809 12.6645 64.5714 13.5215 64.3809C13.8072 64.3173 14.0611 64.635 13.8072 64.7938C13.5532 64.9208 13.2993 65.0479 13.0771 65.2067C14.188 65.6831 15.3307 65.969 16.5368 66.096C16.759 66.1278 16.886 66.4136 16.6955 66.5089C16.4416 66.6359 16.2194 66.7948 15.9973 66.9853C17.0129 67.1441 18.0286 67.2712 19.0761 67.3029C19.3617 67.3029 19.5522 67.6841 19.2348 67.7476C18.8539 67.8429 18.5365 68.0017 18.2826 68.224C19.3935 68.5734 20.5044 68.6687 21.6471 68.5734C21.9645 68.5416 22.0914 68.9228 21.8058 69.0181C21.5201 69.1134 21.2979 69.2722 21.1392 69.431C22.0914 69.6533 23.0436 69.6533 23.9641 69.3992C24.3133 69.3039 24.5037 69.7168 24.1863 69.8439C23.8689 69.9392 23.6467 70.098 23.4563 70.2885C24.6307 70.1932 25.8051 70.2568 27.0112 70.4156C27.2651 70.4473 27.3603 70.7332 27.1699 70.8602C26.9795 70.9555 26.8208 71.0826 26.6938 71.2414C27.8047 71.3684 28.9474 71.432 30.0583 71.4637C30.2805 71.4637 30.5344 71.686 30.344 71.8766C30.1853 72.0354 29.9948 72.1942 29.8361 72.353C30.8835 72.5754 31.931 72.5754 32.9467 72.353C33.2006 72.2895 33.4863 72.5436 33.2958 72.7342C33.2006 72.8295 33.0736 72.9247 32.9784 73.02C33.4863 73.1153 33.9941 73.2106 34.502 73.3059C35.232 73.3694 35.9938 73.3694 36.7238 73.2741C36.9142 73.2424 37.0412 73.4647 36.946 73.5917C36.819 73.7188 36.7238 73.8458 36.5968 73.9729C37.8347 73.9094 39.0409 73.8458 40.2787 73.7823C40.3422 73.7506 40.4692 73.7506 40.5961 73.7823C40.7548 73.8458 40.7231 74.0364 40.5644 74.0364H40.5327C41.3579 74.2587 42.5006 74.1635 43.3576 74.1952C43.9289 74.227 44.4685 74.2587 45.0398 74.2905C44.9763 74.1317 44.9446 74.1317 44.9446 74.0999Z" fill="#C3EBED"/>
<path d="M42.7543 74.3533C42.3099 74.3533 41.8338 74.3215 41.3895 74.3215C41.1038 74.3215 40.7546 74.3533 40.469 74.258C40.2785 74.1945 40.1516 74.0674 40.1198 73.9404C38.7867 74.0357 37.4854 74.131 36.1523 74.2263C35.9618 74.2263 35.8666 74.0674 35.9618 73.9404C36.0571 73.8134 36.1523 73.6863 36.2792 73.5593C35.6762 73.591 35.1048 73.591 34.5018 73.5275H34.47C33.9939 73.4957 33.4861 73.4322 33.01 73.3369C33.0734 73.4322 33.1052 73.4957 33.2004 73.591C33.3274 73.7181 33.2004 73.9086 33.0417 73.8769C32.2482 73.7816 31.4547 73.591 30.7247 73.3052C30.8199 73.464 30.9468 73.6228 31.1055 73.7498C31.296 73.8769 31.0738 74.1627 30.8834 74.0357C30.3438 73.6863 29.709 73.4957 29.0741 73.4957C29.1694 73.6545 29.2646 73.8134 29.455 73.9404C29.6137 74.0674 29.4868 74.3215 29.2646 74.258C28.5346 73.9722 27.8045 73.8451 27.011 73.8769C27.138 74.0992 27.2967 74.258 27.5506 74.3851C27.741 74.5121 27.5506 74.7344 27.3602 74.6709C26.6936 74.5121 25.9953 74.3851 25.3288 74.3215C25.424 74.4803 25.551 74.6392 25.7097 74.798C25.8049 74.8932 25.7097 75.0838 25.551 75.0838C24.7574 74.9568 23.9639 74.9568 23.1704 75.0838C23.2974 75.2426 23.4561 75.3697 23.583 75.5285C23.7417 75.6873 23.4878 75.8779 23.3291 75.7826C22.8213 75.465 22.1865 75.465 21.6786 75.719C21.7738 75.8143 21.8691 75.9096 21.996 75.9731C22.1547 76.0684 22.0595 76.3225 21.8691 76.2908C21.1708 76.132 20.5042 76.1637 19.8377 76.386C19.9011 76.4496 19.9646 76.5131 20.0281 76.5766C20.1233 76.7037 20.0281 76.8942 19.8694 76.8625C19.425 76.7989 19.0124 76.8625 18.5998 77.0213C18.6315 77.053 18.6315 77.053 18.6633 77.0848C18.7267 77.1483 18.695 77.3071 18.5998 77.3389C17.7428 77.593 16.9175 77.9106 16.0923 78.1965C25.5192 77.1166 34.9461 75.8143 44.3096 74.3533C43.7065 74.3533 43.2304 74.3533 42.7543 74.3533Z" fill="#C3EBED"/>
<path d="M44.9763 73.4003C44.5954 72.5745 44.2145 71.7169 43.8336 70.8593C43.5479 70.2241 43.2623 69.5571 43.0084 68.9219C42.8497 68.5407 42.5322 68.0325 42.5005 67.6196C42.4688 67.302 42.5957 67.0479 42.7862 66.9209C41.7705 65.1422 40.7548 63.3636 39.7073 61.5849C39.6121 61.4261 39.7073 61.2355 39.8343 61.1403C39.5804 60.6638 39.5486 60.0921 39.5169 59.9333C39.3899 60.1557 39.2312 60.3462 39.1043 60.5686C38.8821 60.8862 38.4377 60.6638 38.4377 60.3462C38.4695 59.0122 38.1203 57.7418 37.4538 56.5666C37.2633 56.8524 37.0729 57.1383 36.8824 57.4242C36.692 57.71 36.2476 57.5512 36.1842 57.2653C35.8033 55.8996 35.3272 54.5974 34.7876 53.2951C34.5971 53.5175 34.4702 53.7716 34.3749 54.0574C34.2797 54.3433 33.8036 54.3433 33.6767 54.0892C33.0418 52.7234 32.5975 51.2942 32.3753 49.8331C32.1531 50.1507 32.0261 50.5001 31.9309 50.913C31.8674 51.3577 31.1374 51.2942 31.1692 50.8495C31.2644 49.6108 31.0105 48.4674 30.3439 47.4192C30.1217 47.7369 29.9948 48.0545 29.8995 48.4356C29.8361 48.8168 29.2012 48.8803 29.1695 48.4674C28.9791 47.0381 28.4395 45.7359 27.5825 44.5289C27.3286 44.9418 27.2016 45.3865 27.1699 45.8947C27.1381 46.3076 26.535 46.2758 26.4398 45.9264C26.0589 44.6877 25.5828 43.5126 24.9798 42.3374C24.7576 42.6868 24.5989 43.0361 24.4719 43.4173C24.3767 43.7031 23.9006 43.7031 23.8054 43.449C23.234 42.0198 22.4405 40.7811 21.3613 39.6694C21.2344 40.0505 21.1074 40.3999 20.9805 40.7811C20.8535 41.1622 20.2504 41.0034 20.2822 40.6223C20.3456 39.5106 19.7426 38.4942 18.7269 37.9543C18.6317 38.1766 18.5682 38.4307 18.5682 38.6848C18.5364 39.0024 17.9651 39.1295 17.8699 38.7801C17.4573 37.5096 16.7272 36.4932 15.6481 35.6674C15.5846 35.8262 15.5211 35.9851 15.4576 36.1439C15.3624 36.4297 14.8863 36.4615 14.7593 36.1756C14.4102 35.4133 13.9023 34.8099 13.1723 34.3652C13.1406 34.4287 13.1406 34.4605 13.1088 34.524C13.0453 34.7146 12.7279 34.8416 12.5375 34.6828C10.7918 33.2536 8.82385 32.0149 7.10986 30.5538C16.9177 41.6704 26.7255 52.8187 36.5333 63.9353C39.3899 67.0797 42.1831 70.2559 44.9763 73.4003Z" fill="#C3EBED"/>
<path d="M29.2962 63.269C28.9788 63.3643 28.6614 63.4913 28.3758 63.5866C28.6614 63.8407 28.9788 64.0948 29.2962 64.3489C29.2962 64.1583 29.3597 63.9677 29.4549 63.7772C29.5184 63.6501 29.7406 63.5866 29.8993 63.7136C30.7563 64.3171 31.5816 64.9841 32.3433 65.6511C32.3433 65.4923 32.3433 65.3017 32.3433 65.1429C32.3433 65.0159 32.5655 64.8888 32.7242 64.9841C33.6764 65.4605 34.4699 66.0958 35.1048 66.858C35.1048 66.8263 35.1048 66.7627 35.1048 66.731C35.1048 66.5722 35.3587 66.5087 35.5174 66.6039C36.6283 67.2709 37.6123 68.0332 38.4375 68.8908C38.4692 68.732 38.501 68.5732 38.501 68.4461C38.5327 68.3191 38.7549 68.2555 38.8819 68.3826C39.7071 69.3037 40.5641 70.2565 41.4211 71.1776C41.5481 71.1141 41.7068 71.1141 41.8972 71.2094C42.1511 71.3364 42.3733 71.5905 42.5638 71.7811C42.8812 72.0669 43.2303 72.3528 43.5477 72.6386C43.6112 72.7022 43.7064 72.7657 43.7699 72.8292C33.9621 61.7126 24.186 50.5961 14.3782 39.4795C11.8707 36.6527 9.36321 33.7942 6.85571 30.9674C8.03011 32.7778 8.95059 34.8105 10.0932 36.6527C10.2202 36.8433 10.0298 37.1291 9.80758 37.1291C9.7441 37.1291 9.68062 37.1291 9.64888 37.1609C9.96628 37.9232 10.5059 38.5267 11.2359 38.9713C11.5216 39.1301 11.3946 39.543 11.0772 39.6066L10.5376 39.6701C11.1724 40.8135 12.1246 41.7028 13.3625 42.3063C13.6799 42.4651 13.4577 42.9733 13.1086 42.9415C12.8547 42.878 12.569 42.878 12.3151 42.9415C12.696 43.9897 13.6164 44.7202 14.8226 44.879C15.2035 44.9425 15.2669 45.5142 14.8543 45.546C14.4417 45.5777 14.0291 45.6413 13.6164 45.673C14.5687 46.88 15.7113 47.8646 17.1079 48.6586C17.3618 48.8174 17.2666 49.2303 16.9492 49.2621C16.5366 49.2939 16.1239 49.3891 15.7431 49.5162C16.854 50.2785 17.9966 50.9455 19.2028 51.5489C19.5519 51.7077 19.4884 52.2794 19.0441 52.2159C18.5045 52.1524 18.0284 52.1842 17.5205 52.343C18.5997 53.3593 19.8693 54.0899 21.3294 54.5663C21.742 54.6933 21.5516 55.265 21.1707 55.2333C20.7263 55.2333 20.3772 55.2968 19.9963 55.4238C20.9802 56.2179 22.1229 56.6943 23.456 56.8531C23.9321 56.9166 23.8686 57.5836 23.3925 57.5519C22.9481 57.5201 22.5355 57.5836 22.1864 57.7424C23.6782 58.2506 25.0748 58.9176 26.3761 59.7752C26.63 59.934 26.5348 60.3787 26.2174 60.4104C25.8683 60.4422 25.6143 60.5057 25.3287 60.6328C26.5983 61.3633 27.8997 62.062 29.2328 62.6655C29.5502 62.729 29.6454 63.1419 29.2962 63.269Z" fill="#C3EBED"/>
<path d="M14.1248 78.7047C14.1882 78.7047 14.2517 78.7047 14.2835 78.7047V78.6729C14.22 78.6729 14.1882 78.7047 14.1248 78.7047Z" fill="#C3EBED"/>
<path d="M43.5158 67.3346C43.5475 67.5887 43.1666 67.684 43.0397 67.4617L43.0079 67.4299C43.1666 68.7322 44.1188 70.2567 44.6267 71.4637C44.8489 72.0354 45.071 72.5753 45.2932 73.147C45.2932 68.1287 45.2932 63.0786 45.2932 58.0602C45.2932 40.1467 45.2932 22.2014 45.325 4.2878C44.9758 6.95578 44.1823 9.592 43.7697 12.26C43.7379 12.5458 43.3571 12.6729 43.1349 12.5141C43.0714 12.4823 43.0397 12.4505 42.9762 12.4188C42.6588 13.3716 42.6905 14.3245 42.9762 15.3409C43.0714 15.6902 42.6588 16.0078 42.3731 15.8173C42.2144 15.722 42.024 15.5949 41.8653 15.4997C41.5478 17.056 41.7066 18.6123 42.2779 20.1051C42.4366 20.518 41.8653 20.8039 41.5796 20.518C41.3891 20.2639 41.167 20.0733 40.913 19.9145C40.4369 21.185 40.6909 22.5825 41.5796 23.5989C41.8653 23.9483 41.4844 24.52 41.0717 24.2659C40.6909 24.0118 40.2782 23.7577 39.8973 23.5036C39.8021 25.3458 40.0561 27.1562 40.6591 28.9031C40.7861 29.2524 40.3417 29.5701 40.056 29.3795C39.6434 29.0936 39.2308 28.9031 38.8182 28.7443C39.1991 30.2688 39.6752 31.7616 40.31 33.2226C40.4687 33.6356 39.9926 34.1437 39.6434 33.7308C39.2308 33.2544 38.7864 32.9368 38.2468 32.7145C38.4055 34.4931 38.9451 36.113 39.8656 37.6375C40.1513 38.0822 39.5482 38.4633 39.1991 38.1775C38.8182 37.8598 38.469 37.6375 38.0247 37.5105C38.2468 39.0033 38.9134 40.3055 39.9291 41.4171C40.31 41.8301 39.7386 42.4018 39.326 42.0206C38.9451 41.6712 38.5642 41.4489 38.1199 41.3219C39.0404 42.91 39.7386 44.5616 40.2147 46.3402C40.31 46.6896 39.8973 47.039 39.5799 46.8484C39.2625 46.6261 38.9451 46.499 38.6277 46.4355C39.1673 48.0871 39.7704 49.6752 40.4687 51.2633C40.6274 51.5809 40.3735 52.0573 39.9926 51.9303C39.6117 51.8032 39.2308 51.6444 38.8499 51.5173C39.1673 53.1372 39.8339 54.5982 40.8813 55.8687C41.1352 56.1545 40.913 56.7263 40.4687 56.5675C40.183 56.4722 39.8973 56.3769 39.6434 56.2816C39.9608 58.2191 40.7543 60.0295 41.77 61.7128C41.9287 61.9669 41.6748 62.2845 41.3891 62.221C41.1035 62.1575 40.8178 62.0622 40.5004 61.9987C41.4209 63.6503 42.3096 65.3337 43.2618 66.9853C43.4205 66.9853 43.5158 67.1123 43.5158 67.3346Z" fill="#C3EBED"/>
<path d="M51.0069 59.9019C50.7847 60.3783 50.5625 60.8547 50.3086 61.2994C50.5943 61.2359 50.8482 61.1724 51.1339 61.1088C51.3878 61.0453 51.6417 61.3312 51.483 61.5853C50.4356 63.3639 49.4199 65.1426 48.4042 66.9212C48.5946 67.0483 48.7216 67.3024 48.6899 67.62C48.6581 68.0646 48.3407 68.5411 48.182 68.9222C47.8963 69.5574 47.6107 70.2244 47.3568 70.8597C47.0394 71.5902 46.7219 72.2889 46.4045 73.0194C49.1342 69.9386 51.8322 66.8577 54.5618 63.7768C64.3697 52.6602 74.1775 41.5437 83.9853 30.3953C82.2396 31.9199 80.2082 33.1904 78.399 34.6514C78.2085 34.8102 77.8911 34.6832 77.8276 34.4926C77.7959 34.4291 77.7959 34.3973 77.7642 34.3338C77.0341 34.7784 76.4945 35.3819 76.1771 36.1442C76.0502 36.4301 75.6058 36.3983 75.4788 36.1124C75.4154 35.9536 75.3519 35.7948 75.2884 35.636C74.2092 36.43 73.4792 37.4782 73.0666 38.7486C72.9713 39.0663 72.4 38.971 72.3683 38.6534C72.3683 38.3993 72.3365 38.1452 72.2096 37.9228C71.1939 38.4628 70.5908 39.4474 70.6543 40.5908C70.686 40.972 70.083 41.1308 69.956 40.7496C69.829 40.3685 69.7021 40.0191 69.5751 39.638C68.4959 40.7496 67.7024 41.9883 67.1311 43.4176C67.0359 43.7035 66.5598 43.6717 66.4645 43.3858C66.3376 43.0047 66.1789 42.6553 65.9567 42.306C65.3854 43.4494 64.9093 44.6563 64.4966 45.895C64.4014 46.2444 63.7983 46.3079 63.7666 45.8633C63.7349 45.3551 63.6079 44.9104 63.354 44.4975C62.497 45.6727 61.9574 46.9749 61.7669 48.4359C61.7035 48.8488 61.1004 48.7853 61.0369 48.4042C60.9734 47.9913 60.8147 47.6737 60.5925 47.3878C59.926 48.4359 59.6721 49.6111 59.7673 50.8181C59.799 51.2627 59.1007 51.3263 59.0055 50.8816C58.942 50.4687 58.7833 50.1193 58.5612 49.8017C58.3072 51.2627 57.8946 52.692 57.2598 54.0578C57.1328 54.3436 56.6567 54.3436 56.5615 54.026C56.4663 53.7084 56.3393 53.486 56.1489 53.2637C55.6093 54.5659 55.1649 55.8999 54.7523 57.2339C54.6888 57.5198 54.2444 57.6786 54.054 57.3927C53.8636 57.1069 53.6731 56.821 53.4827 56.5352C52.8161 57.7103 52.467 58.9808 52.4987 60.3148C52.4987 60.5689 52.2131 60.7595 51.9909 60.6642C51.9274 60.6324 51.8639 60.6007 51.8322 60.5371C51.5782 60.1877 51.2291 60.2195 51.0069 59.9019Z" fill="#C3EBED"/>
<path d="M46.69 74.9569C47.1661 75.2428 47.7691 75.7192 48.3405 75.8463C48.3405 75.8463 48.3405 75.8463 48.3087 75.8463C48.2135 75.7827 48.277 75.6239 48.4039 75.6557C48.4992 75.6874 48.5627 75.7192 48.5944 75.7827C49.2292 76.2592 49.8958 76.7356 50.5623 77.212C50.5623 77.085 50.5306 76.9579 50.5306 76.8309C50.5306 76.7038 50.6893 76.6403 50.7845 76.7038C51.451 77.212 52.1811 77.6567 52.9746 77.879C52.9428 77.7519 52.9111 77.6249 52.9111 77.5296C52.8794 77.339 53.1333 77.2755 53.2602 77.4026C53.7364 77.9108 54.3394 78.2601 55.006 78.4825C54.9742 78.3237 54.9425 78.1648 54.9107 78.006C54.879 77.8472 55.1012 77.7519 55.2282 77.8472C55.863 78.2284 56.5295 78.5777 57.1961 78.8954C57.1961 78.7683 57.1643 78.6413 57.0691 78.4825C57.0056 78.3554 57.1643 78.1966 57.323 78.2601C58.0531 78.5777 58.7196 78.9589 59.3544 79.4353C59.3227 79.2447 59.2592 79.0859 59.1322 78.8954C59.0053 78.7048 59.2909 78.5142 59.4496 78.673C59.8623 79.1495 60.3701 79.4988 61.0049 79.6894C60.9732 79.4988 60.9097 79.34 60.7827 79.1812C60.6875 79.0224 60.878 78.8001 61.0684 78.9271C61.6715 79.4036 62.338 79.7212 63.0998 79.88C63.0363 79.6576 62.9411 79.4353 62.7507 79.2447C62.592 79.0859 62.8459 78.9271 63.0046 79.0224C63.6076 79.3718 64.2107 79.6576 64.8455 79.88C64.8138 79.6894 64.7503 79.4988 64.6551 79.34C64.5916 79.213 64.7503 79.0542 64.909 79.1177C65.639 79.4671 66.4008 79.6894 67.1943 79.7529C67.0991 79.5941 67.0356 79.4036 66.9404 79.2447C66.8452 79.0542 67.1308 78.9271 67.2578 79.0859C67.6387 79.5306 68.2418 79.6894 68.8131 79.5941C68.7814 79.4671 68.6861 79.3718 68.5909 79.2765C68.4639 79.1495 68.6544 78.9271 68.8131 79.0224C69.4162 79.3718 70.0827 79.4988 70.781 79.4671C70.7493 79.4035 70.7175 79.3083 70.6858 79.2447C70.6223 79.1177 70.781 78.9589 70.9397 79.0224C71.3523 79.213 71.765 79.2765 72.2093 79.1812L72.1776 79.1177C72.1458 79.0224 72.2093 78.8954 72.3363 78.8954C73.1933 78.8954 74.082 78.8001 74.939 78.7683C65.4169 77.6567 55.9264 76.3862 46.4678 74.8934C46.4995 74.8616 46.5947 74.8934 46.69 74.9569Z" fill="#C3EBED"/>
<path d="M89.4131 57.4884C89.5401 57.4249 89.667 57.3613 89.794 57.2978C89.667 57.3296 89.5083 57.3613 89.3496 57.3931C89.3814 57.4249 89.4131 57.4566 89.4131 57.4884Z" fill="#C3EBED"/>
<path d="M57.8311 73.6232C57.9263 73.5279 57.9581 73.4644 58.0215 73.3691C56.9106 73.5597 55.8314 73.6232 54.7523 73.5914C54.8475 73.7185 54.9427 73.8455 55.0697 73.9726C55.1649 74.0996 55.0379 74.2584 54.8792 74.2584C53.5461 74.1631 52.2448 74.0679 50.9117 73.9726C50.8799 74.0996 50.753 74.2267 50.5625 74.2902C50.2769 74.3855 49.9277 74.322 49.642 74.3537C49.1977 74.3537 48.7216 74.3855 48.2772 74.3855C47.8011 74.3855 47.325 74.4172 46.8489 74.4172C56.2441 75.91 65.671 77.1805 75.0979 78.2604C74.2409 77.9745 73.4157 77.6569 72.5587 77.4028C72.4317 77.3711 72.4 77.2123 72.4952 77.1487C72.5269 77.117 72.5269 77.117 72.5587 77.0852C72.1778 76.8946 71.7334 76.8629 71.2891 76.9264C71.1304 76.9582 71.0034 76.7676 71.1304 76.6406C71.1938 76.577 71.2573 76.5135 71.3208 76.45C70.6543 76.2276 69.9877 76.1959 69.2894 76.3547C69.099 76.3865 69.0037 76.1324 69.1624 76.0371C69.2894 75.9736 69.3846 75.91 69.4799 75.783C68.972 75.5289 68.3372 75.5289 67.8293 75.8465C67.6706 75.9418 67.4485 75.7512 67.5754 75.5924C67.7024 75.4336 67.8611 75.3066 67.9881 75.1478C67.1945 74.9889 66.401 74.9889 65.6075 75.1478C65.4488 75.1795 65.3536 74.9889 65.4488 74.8619C65.6075 74.7031 65.7027 74.5443 65.8297 74.3855C65.1314 74.449 64.4649 74.5443 63.7983 74.7349C63.6079 74.7666 63.4174 74.5443 63.6079 74.449C63.83 74.2902 64.0205 74.1314 64.1475 73.9408C63.3857 73.9091 62.6239 74.0361 61.8939 74.322C61.6717 74.4172 61.5447 74.1314 61.7034 74.0043C61.8621 73.8773 61.9891 73.7185 62.0843 73.5597C61.4178 73.5597 60.8147 73.7502 60.2751 74.0996C60.0847 74.2267 59.8625 73.9726 60.0529 73.8138C60.2434 73.6867 60.3703 73.5279 60.4338 73.3691C59.672 73.655 58.9103 73.8455 58.1168 73.9408C57.8311 73.9091 57.7041 73.7185 57.8311 73.6232Z" fill="#C3EBED"/>
<path d="M45.2302 74.7029H45.1984C44.3097 78.6413 43.9606 82.548 44.151 86.4864C44.2462 88.4239 44.4367 90.3931 44.6906 92.3306C44.8175 93.3152 44.9762 94.268 45.1349 95.2527C45.1984 95.5703 45.1032 96.3961 45.5158 96.6184C45.6745 96.6819 45.9285 96.7455 46.1506 96.809C44.6271 89.472 44.0875 82.0716 45.4841 74.6711C45.4206 74.6394 45.4206 74.6076 45.3889 74.5441C45.4206 74.6076 45.3571 74.6711 45.2302 74.7029Z" fill="#C3EBED"/>
<path d="M46.0552 74.0998C46.0234 74.1315 46.0234 74.1315 45.9917 74.1633C46.563 74.1315 47.1026 74.0998 47.6739 74.068C48.5309 74.0363 49.6736 74.1633 50.4989 73.9092H50.4671C50.3084 73.9092 50.2767 73.6869 50.4354 73.6551C50.5623 73.6234 50.6893 73.6234 50.7528 73.6551C51.9589 73.7504 53.1968 73.7822 54.4347 73.8457C54.3077 73.7186 54.2125 73.5916 54.0855 73.4646C53.9903 73.3375 54.1173 73.1469 54.3077 73.1469C55.5456 73.274 56.847 73.2105 58.1166 72.9246C57.9896 72.7976 57.8626 72.7023 57.7357 72.5752C57.5452 72.3847 57.8309 72.1623 58.0848 72.1941C59.1005 72.4164 60.148 72.4164 61.1954 72.1941C61.0367 72.0353 60.8463 71.8765 60.6875 71.7177C60.4971 71.5589 60.751 71.3365 60.9732 71.3048C62.0841 71.273 63.2268 71.2095 64.3377 71.0824C64.2107 70.9236 64.052 70.8283 63.8616 70.7013C63.6712 70.606 63.7664 70.3202 64.0203 70.2566C65.2264 70.0978 66.4008 70.0343 67.5752 70.1296C67.3848 69.939 67.1626 69.812 66.8452 69.6849C66.5278 69.5579 66.75 69.145 67.0674 69.2403C67.9879 69.4943 68.9401 69.5261 69.8923 69.272C69.7018 69.0815 69.5114 68.9544 69.2257 68.8591C68.9718 68.7638 69.067 68.3827 69.3844 68.4145C70.5271 68.5097 71.638 68.4145 72.7489 68.0651C72.495 67.8427 72.2093 67.7157 71.7967 67.5887C71.4793 67.4934 71.6698 67.144 71.9554 67.144C72.9711 67.1122 74.0186 66.9852 75.0343 66.8264C74.8438 66.6358 74.6216 66.5088 74.336 66.3499C74.1455 66.2547 74.2407 65.9688 74.4947 65.9371C75.7008 65.81 76.8435 65.5241 77.9544 65.0477C77.7005 64.9207 77.4465 64.7936 77.2243 64.6348C76.9704 64.5078 77.2243 64.1584 77.51 64.2219C78.367 64.4443 79.2557 64.2219 79.9223 63.682C79.7636 63.5867 79.6049 63.5232 79.4144 63.4914C79.1605 63.4279 79.224 63.0785 79.5097 63.0467C80.5571 62.9832 81.5411 62.6974 82.4298 62.1892C82.3346 62.1257 82.2076 62.0621 82.1124 61.9986C81.9219 61.9033 82.0172 61.6175 82.2711 61.5857C82.9376 61.4904 83.5407 61.2681 84.0485 60.9187C84.0168 60.887 83.9851 60.887 83.9533 60.8552C83.8264 60.7917 83.7946 60.5693 83.9533 60.474C85.3817 59.68 86.7465 58.7589 88.1748 57.9649C81.1919 59.9023 74.4947 62.7609 67.7974 65.3971C60.5288 68.4145 53.292 71.273 46.0552 74.0998Z" fill="#C3EBED"/>
<path d="M76.6851 78.6729C76.6851 78.7047 76.6851 78.7047 76.6851 78.7365C76.7485 78.7365 76.812 78.7365 76.8755 78.7365C76.812 78.7047 76.7485 78.6729 76.6851 78.6729Z" fill="#C3EBED"/>
<path d="M63.9572 63.6183C64.0842 63.3324 64.1477 63.1101 64.1159 62.856C63.3541 63.6818 62.4972 64.4123 61.5449 65.0793C61.3545 65.2063 61.0371 65.0793 61.1006 64.8887C61.1641 64.6664 61.1641 64.5076 61.1323 64.317C60.2436 64.9522 59.4183 65.651 58.6248 66.3498C58.4661 66.5086 58.117 66.4768 58.117 66.2545C58.117 66.0321 58.117 65.8098 58.117 65.5875C57.1965 66.1274 56.4665 66.7944 55.9586 67.6202C55.8317 67.8108 55.4508 67.8426 55.419 67.5885C55.419 67.4297 55.419 67.2708 55.419 67.112C54.3081 67.7155 53.3876 68.5413 52.5941 69.4306C52.4672 69.5577 52.2132 69.5259 52.1815 69.3671C52.1498 69.2083 52.1498 69.0495 52.118 68.8907C51.3245 69.7483 50.531 70.5741 49.7375 71.4316C49.7057 71.4951 49.6423 71.5904 49.5153 71.654C49.3566 71.7175 49.2296 71.5587 49.3248 71.4634C49.3248 71.4634 49.3248 71.4634 49.3566 71.4316C48.5948 71.8128 47.8965 72.6068 47.2935 73.1468C54.2129 70.4153 61.1006 67.7155 68.02 64.984C73.9555 62.6654 79.8275 60.1562 85.9534 58.2823C85.0012 58.4729 84.0172 58.6317 83.0967 58.854C82.9063 58.8858 82.7476 58.7587 82.7793 58.5999C82.7793 58.5682 82.8111 58.5364 82.8111 58.5046C82.1445 58.5682 81.5732 58.7905 81.0336 59.1716C80.8432 59.2987 80.5575 59.1716 80.5892 58.9811C80.621 58.8858 80.6527 58.7587 80.6527 58.6634C79.637 58.8858 78.7166 59.2987 77.9548 59.9657C77.7643 60.1245 77.4152 59.9339 77.5422 59.7116C77.6374 59.5528 77.7326 59.394 77.7326 59.2352C76.8439 59.2987 76.0504 59.7433 75.6377 60.4421C75.5108 60.6644 75.0664 60.6009 75.1299 60.3468C75.1934 60.0927 75.2568 59.8386 75.3203 59.5845C74.1777 59.9657 73.1302 60.5056 72.2097 61.2361C72.0193 61.3632 71.7336 61.2361 71.7971 61.0456C71.8606 60.7915 71.8923 60.5374 71.8923 60.2833C71.0354 60.8232 70.2418 61.4267 69.5118 62.0619C69.2896 62.2525 68.877 62.1255 69.0357 61.8714C69.2261 61.5538 69.3214 61.2679 69.3214 60.9503C68.2739 61.4267 67.4169 62.0937 66.6869 62.9195C66.4647 63.1736 66.1156 62.9513 66.2108 62.6972C66.3378 62.4431 66.3695 62.189 66.3378 61.9667C65.4808 62.4431 64.846 63.0465 64.4016 63.8406C64.3064 64.0312 63.8303 63.9041 63.9572 63.6183Z" fill="#C3EBED"/>
<path d="M47.3567 72.6386C47.3884 72.6069 47.3884 72.6069 47.4202 72.5751C47.7376 72.2893 48.0867 72.0034 48.4041 71.7176C48.5946 71.5588 48.8168 71.2729 49.0707 71.1458C49.2611 71.0506 49.4516 71.0823 49.5468 71.1141C50.4038 70.193 51.229 69.2719 52.086 68.3191C52.213 68.192 52.4352 68.2555 52.4669 68.3826C52.4987 68.5414 52.5304 68.7002 52.5304 68.8272C53.3556 67.9379 54.3713 67.2074 55.4505 66.5404C55.6092 66.4451 55.8631 66.5086 55.8631 66.6675C55.8631 66.6992 55.8631 66.7627 55.8631 66.7945C56.498 66.0322 57.2597 65.4288 58.2437 64.9206C58.4024 64.8253 58.6246 64.9523 58.6246 65.0794C58.6246 65.2382 58.6246 65.4288 58.6246 65.5876C59.4181 64.9206 60.2116 64.2536 61.0686 63.6501C61.2273 63.5548 61.4495 63.5866 61.513 63.7136C61.6082 63.9042 61.6399 64.0948 61.6717 64.2853C61.9891 64.0312 62.3065 63.7771 62.5921 63.5231C62.2747 63.4278 61.9573 63.3007 61.6717 63.2054C61.3225 63.0784 61.4177 62.6655 61.7034 62.5384C63.0365 61.935 64.3379 61.2362 65.6075 60.5057C65.3536 60.3787 65.0679 60.3151 64.7187 60.2834C64.3696 60.2516 64.3061 59.8069 64.56 59.6481C65.8614 58.7906 67.258 58.1236 68.7498 57.6154C68.3689 57.4566 67.988 57.4248 67.5437 57.4248C67.0675 57.4566 66.9723 56.7896 67.4802 56.7261C68.7815 56.599 69.9559 56.1226 70.9399 55.2968C70.5907 55.1698 70.2099 55.1062 69.7655 55.1062C69.3529 55.1062 69.1624 54.5663 69.6068 54.4392C71.0669 53.9946 72.3365 53.2323 73.4156 52.2159C72.9395 52.0571 72.4634 52.0253 71.8921 52.0889C71.4477 52.1524 71.3843 51.5807 71.7334 51.4219C72.9395 50.8184 74.1139 50.1514 75.1931 49.3891C74.8122 49.2621 74.3996 49.1668 73.987 49.135C73.6696 49.1033 73.5744 48.6904 73.8283 48.5316C75.1931 47.7375 76.3675 46.7529 77.3197 45.546C76.9071 45.5142 76.4945 45.4507 76.0818 45.4189C75.6692 45.3872 75.701 44.8155 76.1136 44.7519C77.3197 44.5931 78.2402 43.8626 78.6211 42.8145C78.3672 42.751 78.0815 42.751 77.8276 42.8145C77.4784 42.878 77.2562 42.3698 77.5737 42.1792C78.8115 41.544 79.7637 40.6864 80.3986 39.543L79.859 39.4795C79.5416 39.4477 79.4463 39.0031 79.7003 38.8443C80.462 38.3679 80.9699 37.7961 81.2873 37.0339C81.2238 37.0339 81.1603 37.0339 81.1286 37.0021C80.9064 36.9703 80.716 36.7162 80.8429 36.5257C81.9538 34.7153 82.8426 32.7778 83.9852 30.9674C81.573 33.7307 79.1289 36.4622 76.7167 39.2254C66.9406 50.4055 57.1645 61.5221 47.3567 72.6386Z" fill="#C3EBED"/>
<path d="M48.1501 67.4292L48.1183 67.4609C47.9914 67.6833 47.6105 67.588 47.6422 67.3339C47.6422 67.1115 47.7374 66.9845 47.8644 66.8892C48.8166 65.2376 49.7053 63.586 50.6258 61.9026C50.3402 61.9662 50.0545 62.0615 49.7371 62.125C49.4514 62.1885 49.1975 61.8709 49.3562 61.6168C50.3719 59.9652 51.1337 58.123 51.4828 56.1855C51.1971 56.2808 50.9115 56.3761 50.6576 56.4714C50.2449 56.6302 50.0228 56.0585 50.2449 55.7727C51.2924 54.5022 51.9589 53.0411 52.2763 51.4213C51.8954 51.5484 51.5146 51.7072 51.1337 51.8342C50.7528 51.9613 50.4989 51.4848 50.6576 51.1672C51.3559 49.5791 51.9589 47.991 52.4985 46.3394C52.1811 46.403 51.8637 46.5618 51.5463 46.7523C51.2289 46.9747 50.8163 46.6253 50.9115 46.2442C51.4193 44.4655 52.1176 42.7821 53.0064 41.2258C52.562 41.3529 52.1811 41.5752 51.8002 41.9246C51.3876 42.3057 50.8163 41.7023 51.1971 41.3211C52.2446 40.2095 52.8794 38.9072 53.1016 37.4144C52.689 37.5415 52.3081 37.7638 51.9272 38.0814C51.578 38.399 51.0067 37.9861 51.2606 37.5415C52.1811 36.0169 52.7207 34.3971 52.8794 32.6184C52.3398 32.8408 51.8954 33.1584 51.4828 33.6348C51.1337 34.0159 50.6576 33.5395 50.8163 33.1266C51.4193 31.6656 51.9272 30.1728 52.3081 28.6482C51.8637 28.807 51.4511 29.0294 51.0702 29.2835C50.7845 29.474 50.3719 29.1564 50.4671 28.807C51.0702 27.0284 51.3241 25.2497 51.2289 23.4076C50.848 23.6616 50.4671 23.9157 50.0545 24.1698C49.6419 24.4239 49.261 23.8522 49.5466 23.5028C50.4671 22.4547 50.6893 21.089 50.2132 19.8185C49.9593 19.9455 49.7053 20.1679 49.5466 20.422C49.2927 20.7078 48.6896 20.422 48.8484 20.0091C49.4514 18.4845 49.6101 16.9599 49.261 15.4036C49.1023 15.4989 48.9118 15.626 48.7531 15.7212C48.4357 15.9118 48.0231 15.5942 48.1501 15.2448C48.4357 14.2602 48.4675 13.3074 48.1501 12.3227C48.0866 12.3545 48.0548 12.3863 47.9914 12.418C47.7692 12.5451 47.42 12.4498 47.3566 12.1639C46.9439 9.55948 46.2139 6.98679 45.833 4.38234C45.833 8.86073 45.833 13.3074 45.833 17.7857C45.833 36.2393 45.833 54.6928 45.8013 73.1463C46.0235 72.5745 46.2774 71.9711 46.4996 71.3994C47.0391 70.256 47.9914 68.7314 48.1501 67.4292Z" fill="#C3EBED"/>
<path d="M90.8729 56.8847C90.9681 56.8212 90.9047 56.6942 90.7777 56.7259C90.2699 56.8847 89.762 57.0753 89.2224 57.1706C88.9685 57.2341 88.6828 57.2341 88.4289 57.2976C86.7467 57.4247 85.0327 57.8694 83.4139 58.2505V58.2187C83.4456 58.0917 83.3187 57.9646 83.1917 57.9646C82.4934 57.9964 81.8586 58.1552 81.2555 58.4411L81.2873 58.3458C81.319 58.187 81.1603 58.0599 81.0016 58.0917C80.0177 58.2505 79.0972 58.5681 78.3037 59.0763C78.3037 59.0128 78.3037 58.981 78.3037 58.9175C78.3037 58.8222 78.1767 58.7269 78.0815 58.7269C77.2562 58.7269 76.5262 58.981 75.9231 59.4257C75.9549 59.3622 75.9549 59.2669 75.9866 59.2033C76.0501 59.0128 75.7962 58.9175 75.6057 58.981C74.4313 59.3304 73.3839 59.8068 72.4317 60.4738C72.4634 60.2515 72.4634 59.9974 72.4317 59.7433C72.3999 59.5845 72.1778 59.521 71.9873 59.6162C71.2573 60.0927 70.5273 60.5691 69.8607 61.109C69.8925 60.8867 69.8925 60.6961 69.8607 60.4738C69.829 60.3468 69.6703 60.2197 69.4798 60.315C68.4959 60.7279 67.6706 61.2678 66.9406 61.9031C66.9406 61.776 66.9088 61.6172 66.8771 61.4902C66.8454 61.3631 66.6867 61.2361 66.4962 61.3314C65.7662 61.6808 65.1314 62.1254 64.6235 62.6654C64.5918 62.5066 64.5601 62.3477 64.4966 62.2207C64.4648 62.1572 64.4331 62.1254 64.3696 62.1254C65.0996 61.7443 65.8297 61.3314 66.528 60.9185C66.7501 60.7914 66.7501 60.5056 66.5597 60.3468C66.274 60.1244 66.0201 59.9974 65.7345 59.8703C67.0041 59.1398 68.3689 58.5364 69.7972 58.1234C70.0512 58.0599 70.1146 57.6788 69.8924 57.52C69.6703 57.3612 69.4481 57.2341 69.2259 57.1388C70.2099 56.7895 71.0986 56.2495 71.8604 55.519C72.0508 55.3284 71.9238 55.0743 71.7334 54.979C71.5112 54.852 71.3208 54.7885 71.0986 54.6932C72.3365 54.1532 73.4156 53.3592 74.3361 52.4064C74.4948 52.2158 74.3996 51.9617 74.2092 51.8664C73.8918 51.7076 73.5426 51.6123 73.2252 51.5488C74.2409 51.0088 75.2249 50.3736 76.1453 49.7066C76.3675 49.5478 76.3358 49.2302 76.0818 49.1349C75.7327 48.9761 75.3518 48.8491 75.0027 48.7538C76.2723 47.8962 77.3832 46.8798 78.2402 45.6411C78.3989 45.4506 78.3037 45.1329 78.018 45.1012C77.8911 45.1012 77.7958 45.0694 77.6689 45.0694C78.5259 44.5612 79.1289 43.7672 79.4146 42.7826C79.4463 42.6555 79.3511 42.465 79.1924 42.4332C79.0972 42.4014 79.002 42.3697 78.9385 42.3697C79.9859 41.6709 80.7477 40.7181 81.2873 39.5747C81.3825 39.3841 81.2555 39.13 81.0016 39.0982C80.9381 39.0982 80.8747 39.0982 80.8429 39.0665C81.4777 38.4948 81.9221 37.796 82.176 36.9702C82.2395 36.7796 82.0491 36.5891 81.8586 36.5573C81.8269 36.5573 81.8269 36.5573 81.7951 36.5573C82.9378 34.7787 84.1439 32.873 84.8422 30.9037C85.0009 30.6179 85.0962 30.3003 85.2549 30.0144C85.5723 29.4109 86.0166 28.9028 86.3975 28.3628C86.4927 28.2358 86.334 28.1087 86.2071 28.204C86.2705 28.077 86.1118 27.9499 85.9849 28.0452C85.477 28.5216 85.0327 28.998 84.4613 29.4109C84.1757 29.6015 83.89 29.7921 83.6043 29.9826C81.6682 30.999 79.9224 32.4918 78.2719 33.8893C78.2719 33.8576 78.2719 33.8576 78.2402 33.8258C78.1767 33.667 77.9228 33.5399 77.7641 33.6035C76.9388 34.0164 76.2723 34.5246 75.7962 35.2233C75.7644 35.1598 75.7644 35.128 75.7327 35.0645C75.6375 34.8422 75.3518 34.7787 75.1614 34.9057C74.0822 35.6045 73.2252 36.5255 72.6856 37.6054C72.6539 37.5419 72.5904 37.4466 72.5587 37.3831C72.4952 37.2561 72.273 37.1925 72.146 37.2561C71.1621 37.669 70.4638 38.3995 70.0829 39.2888C70.0512 39.1935 70.0194 39.0665 69.9877 38.9712C69.8924 38.7171 69.5433 38.7171 69.3529 38.8759C68.2102 39.924 67.3532 41.131 66.7184 42.465C66.5597 42.1474 66.3693 41.8297 66.1153 41.5439C65.9566 41.3215 65.6075 41.3851 65.4805 41.6074C64.9409 42.592 64.4966 43.6084 64.1157 44.6565C63.9887 44.3707 63.7983 44.0848 63.5761 43.799C63.4491 43.6401 63.1317 43.5766 62.973 43.7672C62.116 44.8153 61.513 45.9587 61.1956 47.1657C61.0686 46.9751 60.9416 46.8163 60.7829 46.6575C60.6242 46.4987 60.3386 46.4352 60.1799 46.6257C59.5451 47.4833 59.1642 48.3726 59.0055 49.3572C58.8468 49.1667 58.6881 48.9761 58.4659 48.8173C58.2437 48.6585 57.8945 48.7855 57.8628 49.0396C57.7041 50.4371 57.355 51.8029 56.8154 53.1051C56.6567 52.851 56.4345 52.6604 56.1488 52.4381C55.9584 52.2793 55.641 52.3428 55.5457 52.5652C55.0062 53.8039 54.5618 55.0743 54.1492 56.3766C53.9905 56.1542 53.8635 55.9319 53.7048 55.7096C53.5778 55.519 53.2287 55.4872 53.1017 55.6778C52.34 56.8212 51.8956 58.0599 51.7369 59.3621C51.5464 59.2669 51.3877 59.2033 51.1973 59.1081C51.6099 58.0282 51.9273 56.9165 52.1813 55.7731C52.2447 55.4872 51.9908 55.2014 51.7051 55.2967C51.6417 55.3284 51.5464 55.3602 51.483 55.3602C52.3717 53.9944 52.9113 52.5016 53.1017 50.85C53.1335 50.5642 52.7843 50.3419 52.5621 50.4054C52.2765 50.5007 51.9591 50.6277 51.6734 50.723C52.3082 49.1984 52.8795 47.6421 53.3874 46.054C53.4826 45.7682 53.2287 45.4823 52.9748 45.4823C52.5939 45.4823 52.213 45.5458 51.8956 45.6411C52.4352 43.9895 53.1652 42.4332 54.0857 40.9722C54.2444 40.6863 54.0222 40.3052 53.7048 40.3052C53.3874 40.3052 53.1017 40.3687 52.8478 40.4322C53.4509 39.3841 53.8 38.2089 53.8952 36.9702C53.927 36.6526 53.6096 36.5255 53.3557 36.5573C53.07 36.5891 52.8478 36.6526 52.5939 36.7479C53.2287 35.3186 53.5778 33.794 53.6413 32.1742C53.6413 31.8883 53.3557 31.6978 53.1017 31.7613C52.6891 31.8566 52.34 31.9836 51.9908 32.1742C52.4352 30.9037 52.8478 29.6015 53.1335 28.2675C53.197 27.9499 52.943 27.664 52.6256 27.7593C52.1813 27.8864 51.8004 28.0134 51.3877 28.204C51.8638 26.4571 52.0226 24.6467 51.8321 22.8045C51.8004 22.5187 51.5147 22.2646 51.229 22.4551C51.1021 22.5187 51.0069 22.6139 50.8799 22.6775C51.229 21.5658 51.1656 20.3589 50.6577 19.2155C50.5942 19.0566 50.3403 18.9614 50.2133 19.0249C50.1181 19.0566 50.0229 19.1202 49.9277 19.1519C50.2768 17.6909 50.2451 16.2299 49.8325 14.7371C49.769 14.483 49.4516 14.3242 49.2294 14.483C49.1659 14.5147 49.1342 14.5465 49.0707 14.5783C49.1977 13.5619 49.0389 12.5773 48.6263 11.5927C48.5311 11.3703 48.2137 11.3386 48.055 11.4339C48.0233 11.4339 48.0233 11.4656 47.9915 11.4656C47.6106 8.92469 47.2297 6.22495 46.341 3.84283C46.2458 3.46169 46.1188 3.04879 46.0236 2.66765C45.8649 1.87361 45.8332 1.04781 45.7697 0.222004C45.7697 0.0314342 45.5158 0.0314342 45.4523 0.190242C45.4205 -0.000327453 45.1666 -0.000327464 45.1349 0.222004C45.0714 1.04781 45.0396 1.84185 44.8809 2.66765C44.7857 3.08055 44.6588 3.46169 44.5635 3.84283C43.6748 6.25671 43.2939 8.92469 42.913 11.4656C42.8813 11.4656 42.8813 11.4339 42.8496 11.4339C42.6591 11.3068 42.3734 11.3703 42.2782 11.5927C41.8656 12.5773 41.7069 13.5619 41.8339 14.5783C41.7704 14.5465 41.7386 14.5147 41.6752 14.483C41.453 14.3242 41.1356 14.483 41.0721 14.7371C40.6595 16.2299 40.6277 17.6909 40.9769 19.1519C40.8816 19.1202 40.7864 19.0566 40.6912 19.0249C40.5325 18.9614 40.3103 19.0566 40.2468 19.2155C39.7072 20.3589 39.6438 21.5658 40.0246 22.6775C39.8977 22.6139 39.8025 22.5187 39.6755 22.4551C39.3898 22.2646 39.0724 22.5187 39.0724 22.8045C38.882 24.6467 39.0407 26.4253 39.5168 28.204C39.1359 28.0134 38.7233 27.8864 38.2789 27.7593C37.9615 27.664 37.7076 27.9499 37.7711 28.2675C38.0567 29.6015 38.4376 30.9037 38.9137 32.1742C38.5646 31.9836 38.2154 31.8566 37.8028 31.7613C37.5489 31.6978 37.2632 31.8883 37.2632 32.1742C37.3267 33.794 37.6758 35.3186 38.3107 36.7479C38.0885 36.6526 37.8346 36.5891 37.5489 36.5573C37.295 36.5255 36.9776 36.6526 37.0093 36.9702C37.1045 38.2407 37.4537 39.3841 38.0567 40.4322C37.7711 40.3687 37.4854 40.3052 37.1997 40.3052C36.8823 40.3052 36.6602 40.6863 36.8189 40.9722C37.7393 42.4332 38.4694 43.9895 39.009 45.6411C38.6598 45.5458 38.3107 45.4823 37.9298 45.4823C37.6441 45.4823 37.4219 45.7682 37.5171 46.054C37.9933 47.6421 38.5646 49.1984 39.2311 50.723C38.9455 50.6277 38.6281 50.5007 38.3424 50.4054C38.0885 50.3101 37.7393 50.5642 37.8028 50.85C37.9933 52.5016 38.5646 54.0262 39.4216 55.3602C39.3581 55.3284 39.2629 55.2967 39.1994 55.2967C38.9137 55.2014 38.6598 55.4872 38.7233 55.7731C39.1359 57.7105 39.739 59.521 40.6595 61.2361C40.6277 61.1726 40.596 61.109 40.5325 61.0138C39.9929 59.9974 39.9294 59.7115 39.6755 59.2351C39.5485 59.0128 39.2311 58.981 39.0724 59.1716C39.0407 59.2351 38.9772 59.2986 38.9455 59.3304C38.8185 58.0282 38.3424 56.7895 37.5806 55.646C37.4537 55.4555 37.0728 55.4872 36.9776 55.6778C36.8189 55.9001 36.6919 56.1225 36.5332 56.3448C36.1206 55.0426 35.6762 53.7721 35.1366 52.5334C35.0414 52.3111 34.724 52.2475 34.5335 52.4064C34.2479 52.6287 34.0574 52.8193 33.867 53.0734C33.3274 51.7711 32.9783 50.4054 32.8196 49.0079C32.7878 48.7538 32.4069 48.6267 32.2165 48.7855C32.026 48.9443 31.8356 49.1349 31.6769 49.3255C31.5182 48.3726 31.1056 47.4515 30.5025 46.594C30.3438 46.3716 30.0581 46.4669 29.8994 46.6257C29.7407 46.7845 29.6138 46.9751 29.4868 47.1339C29.1377 45.8952 28.5346 44.7518 27.7093 43.7354C27.5506 43.5449 27.265 43.5766 27.1063 43.7672C26.8841 44.0213 26.7254 44.3071 26.5667 44.6248C26.1858 43.5766 25.7414 42.5602 25.2018 41.5756C25.0749 41.3533 24.7575 41.2898 24.567 41.5121C24.3448 41.798 24.1227 42.1156 23.964 42.4332C23.3291 41.0992 22.4404 39.8923 21.3295 38.8441C21.1391 38.6853 20.7899 38.6853 20.6947 38.9394C20.6629 39.0347 20.6312 39.1618 20.5995 39.257C20.2503 38.3677 19.5203 37.669 18.5363 37.2243C18.4094 37.1608 18.1872 37.2243 18.1237 37.3513C18.092 37.4149 18.0285 37.5102 17.9967 37.5737C17.4572 36.4938 16.6002 35.5727 15.521 34.8739C15.3305 34.7469 15.0449 34.8104 14.9497 35.0327C14.9179 35.0963 14.9179 35.128 14.8862 35.1916C14.4101 34.4928 13.7753 33.9528 12.9183 33.5717C12.7278 33.4764 12.5056 33.6035 12.4422 33.794C12.4422 33.8258 12.4422 33.8258 12.4104 33.8576C10.7599 32.4918 9.01419 30.999 7.07802 29.9509C6.79235 29.7603 6.50669 29.6015 6.22102 29.3792C5.64969 28.9663 5.20533 28.4898 4.69748 28.0134C4.57052 27.8864 4.41182 28.0452 4.4753 28.1722C4.34833 28.0769 4.18963 28.204 4.28485 28.331C4.69748 28.871 5.11011 29.3792 5.42751 29.9826C5.58621 30.2685 5.71318 30.5861 5.84014 30.872C6.53843 32.8412 7.77631 34.7151 8.88723 36.5255C8.85548 36.5255 8.85548 36.5255 8.82374 36.5255C8.6333 36.5573 8.44286 36.7479 8.50634 36.9384C8.76026 37.796 9.20463 38.463 9.83944 39.0347C9.77596 39.0347 9.71248 39.0347 9.68074 39.0665C9.42681 39.0982 9.29985 39.3523 9.39507 39.5429C9.93466 40.6863 10.7282 41.6074 11.7439 42.3379C11.6486 42.3697 11.5852 42.3697 11.4899 42.4014C11.363 42.4332 11.236 42.6238 11.2678 42.7508C11.5217 43.7354 12.1565 44.5295 13.0135 45.0377C12.8865 45.0377 12.7913 45.0694 12.6643 45.0694C12.3787 45.1012 12.2835 45.4188 12.4422 45.6094C13.3309 46.8481 14.4101 47.8962 15.6797 48.722C15.2988 48.8173 14.9497 48.9443 14.6005 49.1031C14.3466 49.2302 14.3148 49.516 14.537 49.6749C15.4892 50.3418 16.4415 50.9771 17.4572 51.517C17.108 51.5806 16.7906 51.6758 16.4732 51.8346C16.251 51.9299 16.1558 52.184 16.3462 52.3746C17.2667 53.3592 18.3459 54.1215 19.5838 54.6614C19.3616 54.725 19.1711 54.8202 18.949 54.9473C18.7585 55.0426 18.6316 55.2967 18.822 55.4872C19.5838 56.2178 20.4725 56.7577 21.4565 57.1071C21.2343 57.2024 21.0121 57.3294 20.7899 57.4882C20.5677 57.647 20.6312 57.9964 20.8851 58.0917C22.3135 58.5046 23.6783 59.1081 24.9479 59.8386C24.6623 59.9656 24.3766 60.0927 24.1227 60.315C23.9322 60.442 23.9322 60.7597 24.1544 60.8867C24.8527 61.2996 25.5827 61.7125 26.3128 62.0937C26.2493 62.1254 26.2175 62.1572 26.1858 62.1889C26.1223 62.3477 26.0906 62.5066 26.0588 62.6336C25.551 62.0937 24.9162 61.649 24.1861 61.2996C23.9957 61.2043 23.837 61.3314 23.8053 61.4584C23.7735 61.6172 23.7418 61.7443 23.7418 61.8713C23.0117 61.2043 22.1548 60.6644 21.2025 60.2832C21.0438 60.2197 20.8534 60.315 20.8216 60.442C20.7899 60.6644 20.7899 60.8867 20.8216 61.0773C20.1551 60.5373 19.4568 60.0609 18.695 59.5845C18.5363 59.4892 18.2824 59.5527 18.2507 59.7115C18.2189 59.9656 18.2189 60.188 18.2507 60.442C17.2985 59.8068 16.251 59.2986 15.0766 58.9493C14.8862 58.8857 14.664 58.981 14.6957 59.1716C14.7275 59.2351 14.7275 59.3304 14.7592 59.3939C14.1561 58.9492 13.4261 58.6952 12.6009 58.6952C12.5056 58.6952 12.3787 58.7904 12.3787 58.8857C12.3787 58.9492 12.3787 59.0128 12.3787 59.0445C11.5852 58.5363 10.6647 58.187 9.68074 58.0599C9.49029 58.0282 9.33159 58.1552 9.39507 58.314L9.42681 58.4093C8.82374 58.1234 8.18893 57.9646 7.49064 57.9329C7.33194 57.9329 7.23672 58.0599 7.26846 58.187V58.2187C5.64969 57.8058 3.90397 57.3612 2.25346 57.2659C1.99954 57.2341 1.71387 57.2024 1.45995 57.1388C0.920361 57.0436 0.444254 56.853 -0.0953347 56.6942C-0.222297 56.6624 -0.285778 56.7895 -0.190556 56.853C-0.317518 56.8212 -0.380999 56.9483 -0.254037 57.0118C0.22207 57.2341 0.729918 57.4247 1.17429 57.7105C1.39647 57.8376 1.61865 57.9964 1.84084 58.1552C3.07871 59.1716 4.634 59.9656 6.09406 60.7597C6.09406 60.7597 6.06232 60.7597 6.06232 60.7914C5.9671 60.8549 5.90362 61.0138 6.03058 61.109C6.53843 61.5537 7.10976 61.8713 7.74457 62.0301C7.71283 62.0619 7.68109 62.0619 7.64935 62.0937C7.49064 62.1889 7.52238 62.3477 7.64935 62.4748C8.44286 63.0147 9.36333 63.3959 10.3155 63.5547C10.2838 63.5864 10.2203 63.6182 10.1886 63.6817C10.1251 63.7453 10.1251 63.8723 10.1886 63.9676C10.7599 64.5075 11.4899 64.8251 12.22 64.8887C12.1565 64.9204 12.0613 64.9522 11.9978 65.0157C11.8074 65.111 11.9026 65.3333 12.0613 65.3969C13.1405 65.905 14.2514 66.2544 15.4258 66.445C15.2353 66.6038 15.0449 66.7626 14.8544 66.9532C14.7275 67.0802 14.8544 67.2708 15.0449 67.3343C15.9336 67.4931 16.8223 67.6202 17.7111 67.6837C17.5206 67.8107 17.3619 67.9696 17.2032 68.1284C17.108 68.2554 17.1398 68.4142 17.3302 68.4777C18.3142 68.8271 19.3298 69.0177 20.3773 69.0177C20.2821 69.113 20.1868 69.24 20.0916 69.3353C19.9964 69.4623 20.0281 69.6529 20.2186 69.6847C21.0121 69.9388 21.8056 70.0341 22.5674 69.9705C22.4722 70.0976 22.3769 70.2246 22.2817 70.3834C22.1865 70.5422 22.3769 70.7328 22.5991 70.7328C23.71 70.6058 24.821 70.6058 25.9636 70.7328C25.8049 70.8599 25.7097 71.0504 25.6145 71.241C25.551 71.368 25.6779 71.5586 25.8684 71.5904C26.9476 71.7174 28.0267 71.8127 29.1059 71.8445C28.979 71.9715 28.852 72.0986 28.6933 72.2256C28.5663 72.3209 28.6616 72.5432 28.8203 72.6068C29.8677 72.8926 30.9151 72.9879 31.9626 72.8608C31.9308 72.8926 31.8991 72.9244 31.8673 72.9561C31.7404 73.0832 31.8673 73.2737 32.0578 73.3055C32.0895 73.3055 32.153 73.3055 32.1847 73.3373C32.2165 73.4008 32.2482 73.4643 32.28 73.5278C31.5182 73.4008 30.8199 73.2102 30.0899 72.8926C29.9629 72.8291 29.8042 72.9561 29.836 73.0832C29.8677 73.2102 29.8994 73.3055 29.9629 73.4325C29.4551 73.242 28.9472 73.1785 28.3759 73.2102C28.2489 73.2102 28.1854 73.369 28.2172 73.4643C28.2489 73.5596 28.3124 73.6549 28.3441 73.7502C27.6776 73.5596 26.9793 73.5278 26.281 73.5914C26.1541 73.5914 26.0906 73.7184 26.1541 73.8455C26.2175 74.0043 26.3128 74.1313 26.408 74.2584C25.8366 74.1313 25.2336 74.0678 24.6305 74.036C24.5035 74.036 24.3766 74.1631 24.4401 74.2584C24.5353 74.4172 24.5988 74.576 24.7257 74.7348C23.9322 74.6395 23.1387 74.703 22.3769 74.8618C22.25 74.8936 22.1548 75.0206 22.25 75.1477C22.2817 75.1794 22.3452 75.243 22.3769 75.2747C21.8691 75.1794 21.3612 75.3065 20.8851 75.5606C20.8217 75.5923 20.7899 75.6876 20.8216 75.7512C20.8534 75.7829 20.8851 75.8147 20.8851 75.8464C20.2186 75.7829 19.5838 75.8782 18.9807 76.1323C18.8855 76.164 18.822 76.3229 18.9172 76.3864C18.949 76.4181 18.949 76.4181 18.9807 76.4499C18.5363 76.4499 18.1237 76.577 17.7111 76.7993C17.6159 76.8628 17.6159 76.9899 17.6793 77.0534C17.6793 77.0534 17.6793 77.0534 17.7111 77.0851C16.6319 77.4028 15.4892 77.7204 14.537 78.2286C14.4101 78.2603 14.3148 78.3238 14.1879 78.3556C14.1244 78.3556 14.0927 78.3874 14.0609 78.4191C14.0609 78.4191 14.0609 78.4191 14.0292 78.4191C13.68 78.5462 13.3309 78.6097 12.9817 78.6732C12.8865 78.705 12.9183 78.8003 13.0135 78.8003C12.9183 78.832 12.95 78.9273 13.0452 78.9273C13.3944 78.8956 13.7435 78.8638 14.1244 78.8955C14.3148 78.8955 14.4736 78.9273 14.664 78.9591C15.7749 79.1814 16.9493 79.1814 18.092 79.1814V79.2132C18.0602 79.2767 18.092 79.4037 18.1872 79.4355C18.6316 79.5625 19.0759 79.5625 19.5203 79.4355C19.5203 79.4673 19.4886 79.499 19.4886 79.499C19.4568 79.5943 19.5203 79.7214 19.6473 79.7214C20.3138 79.7849 20.9486 79.7214 21.5517 79.499C21.5517 79.5308 21.5199 79.5943 21.5199 79.6261C21.5199 79.6896 21.5517 79.7849 21.6469 79.8166C22.1865 79.9754 22.6943 79.9119 23.1704 79.6896C23.1387 79.7531 23.107 79.7849 23.107 79.8484C23.0435 79.9754 23.1704 80.0707 23.2974 80.0707C24.0909 80.039 24.8844 79.8802 25.6145 79.5625C25.551 79.7214 25.5192 79.9119 25.5192 80.1025C25.5192 80.2295 25.6462 80.3248 25.7732 80.2613C26.3445 80.0707 26.8841 79.8166 27.3919 79.5625C27.3285 79.7214 27.2967 79.8802 27.2967 80.039C27.2967 80.1343 27.3919 80.2613 27.5189 80.2295C28.2172 80.1025 28.852 79.8802 29.4233 79.5308C29.3916 79.6261 29.3916 79.7531 29.3916 79.8484C29.3916 79.9437 29.4868 80.0707 29.6138 80.039C30.1534 79.9119 30.6295 79.7214 31.0421 79.4037C31.0421 79.5308 31.0421 79.6261 31.0421 79.7531C31.0421 79.8802 31.2325 79.9437 31.3595 79.8484C31.9308 79.372 32.5656 78.9908 33.2322 78.6732C33.2004 78.832 33.2004 78.9591 33.2322 79.1179C33.2639 79.2132 33.3909 79.3084 33.5178 79.2449C34.1844 78.9591 34.8192 78.6097 35.4223 78.2603C35.3905 78.3874 35.3588 78.5144 35.3588 78.6415C35.3271 78.7367 35.454 78.8638 35.581 78.832C36.2793 78.6415 36.9141 78.3238 37.4219 77.9109C37.4219 77.9427 37.4219 77.9745 37.3902 78.0062C37.3584 78.1333 37.5172 78.2286 37.6441 78.165C38.4694 77.8792 39.2311 77.498 39.9294 77.0216C39.9294 77.1487 39.8977 77.2439 39.8977 77.371C39.8977 77.4663 40.0247 77.5616 40.1199 77.498C40.8182 76.9581 41.5165 76.4499 42.2147 75.91C42.2782 75.9735 42.4052 76.0052 42.5321 75.9735C42.7226 75.9417 42.913 75.7829 43.0717 75.6876L43.8652 75.243C44.0874 75.1159 44.3414 74.9571 44.5635 74.7983C43.6431 78.3238 43.4844 81.8811 43.6431 85.4384C43.8018 89.1546 44.2144 92.9024 44.8809 96.6185C44.8809 96.6821 44.9444 96.7138 45.0396 96.7138C45.357 96.7773 45.7062 96.8409 46.0236 96.9362C46.1188 96.9997 46.2458 96.9361 46.2458 96.8409C44.4048 89.5357 44.4366 82.04 45.484 74.6395C45.5475 74.6395 45.611 74.6713 45.6745 74.6713C45.9919 74.8618 46.3093 75.0524 46.6267 75.243L47.4202 75.6876C47.5789 75.7829 47.7693 75.9417 47.9598 75.9735C48.0867 76.0052 48.2137 75.9735 48.2772 75.91C48.9755 76.4181 49.6738 76.9581 50.372 77.498C50.4673 77.5616 50.5942 77.498 50.5942 77.371C50.5942 77.2439 50.5625 77.1487 50.5625 77.0216C51.2608 77.5298 52.0226 77.8792 52.8478 78.165C52.9748 78.1968 53.1017 78.1333 53.1017 78.0062C53.1017 77.9745 53.1017 77.9427 53.07 77.9109C53.6096 78.3556 54.2127 78.6732 54.9109 78.832C55.0379 78.8638 55.1649 78.7367 55.1331 78.6415C55.1014 78.5144 55.0696 78.3874 55.0696 78.2603C55.6727 78.6097 56.3075 78.9273 56.9741 79.2449C57.101 79.3084 57.228 79.2132 57.2597 79.1179C57.2915 78.9591 57.2915 78.8003 57.2597 78.6732C57.9263 78.9908 58.5611 79.372 59.1324 79.8484C59.2276 79.9437 59.4181 79.8802 59.4498 79.7531C59.4498 79.6261 59.4816 79.499 59.4498 79.4037C59.8625 79.7214 60.3386 79.9119 60.8782 80.039C61.0051 80.0707 61.1003 79.9437 61.1003 79.8484C61.1003 79.7214 61.1003 79.6261 61.0686 79.5308C61.6399 79.8802 62.2747 80.1025 62.973 80.2295C63.1 80.2613 63.1952 80.1343 63.1952 80.039C63.1952 79.8802 63.1317 79.7214 63.1 79.5625C63.6078 79.8166 64.1474 80.0707 64.7188 80.2613C64.8457 80.2931 65.0044 80.2295 64.9727 80.1025C64.9409 79.9119 64.9092 79.7531 64.8774 79.5625C65.6075 79.8484 66.3693 80.039 67.1945 80.0707C67.3215 80.0707 67.4484 79.9754 67.385 79.8484C67.3532 79.7849 67.3215 79.7531 67.3215 79.6896C67.7658 79.9119 68.3054 79.9437 68.845 79.8166C68.9085 79.7849 68.972 79.7214 68.972 79.6261C68.972 79.5943 68.9402 79.5308 68.9402 79.499C69.5433 79.7214 70.1781 79.8166 70.8447 79.7214C70.9716 79.7214 71.0351 79.5943 71.0034 79.499C71.0034 79.4673 70.9716 79.4355 70.9716 79.4355C71.416 79.5625 71.8286 79.5308 72.3047 79.4355C72.4 79.4037 72.4634 79.2767 72.4 79.2132V79.1814C73.5109 79.1814 74.717 79.1814 75.8279 78.9591C76.0184 78.9273 76.1771 78.9273 76.3675 78.8955C76.7167 78.8638 77.0658 78.8956 77.4467 78.9273C77.5419 78.9273 77.5419 78.832 77.4784 78.8003C77.5737 78.8003 77.5736 78.705 77.5102 78.6732C77.161 78.6097 76.8119 78.5462 76.4627 78.4191C76.304 78.3556 76.1453 78.2921 75.9549 78.2286C74.9709 77.7204 73.8283 77.4028 72.7808 77.0851C72.7808 77.0851 72.7808 77.0851 72.8126 77.0534C72.8761 76.9899 72.8761 76.8628 72.7808 76.7993C72.3682 76.577 71.9556 76.4499 71.5112 76.4499C71.543 76.4181 71.543 76.4181 71.5747 76.3864C71.6699 76.2911 71.6064 76.164 71.5112 76.1323C70.9081 75.8782 70.2733 75.7829 69.6068 75.8464C69.6385 75.8147 69.6703 75.7829 69.6703 75.7512C69.702 75.6876 69.6703 75.5923 69.6068 75.5606C69.1624 75.2747 68.6228 75.1794 68.115 75.2747C68.1467 75.243 68.2102 75.1794 68.2419 75.1477C68.3372 75.0524 68.242 74.8936 68.115 74.8618C67.3215 74.6713 66.5597 74.6395 65.7662 74.7348C65.8614 74.576 65.9566 74.4172 66.0519 74.2584C66.1153 74.1313 65.9884 74.0043 65.8614 74.036C65.2583 74.0678 64.6553 74.1631 64.0839 74.2584C64.1792 74.1313 64.2744 74.0043 64.3379 73.8455C64.3696 73.7502 64.3061 73.6231 64.2109 73.5914C63.5126 73.5278 62.8143 73.5596 62.1478 73.7502C62.2113 73.6549 62.243 73.5596 62.2747 73.4643C62.3065 73.369 62.2747 73.242 62.116 73.2102C61.5764 73.1785 61.0369 73.242 60.529 73.4325C60.5925 73.3373 60.6242 73.2102 60.656 73.0832C60.6877 72.9561 60.529 72.8291 60.402 72.8926C59.7038 73.1785 58.9737 73.4008 58.2119 73.5278C58.2437 73.4643 58.2754 73.4008 58.3072 73.3373C58.3389 73.3373 58.4024 73.3373 58.4341 73.3055C58.6246 73.2737 58.7515 73.0832 58.6246 72.9561C58.5928 72.9244 58.5611 72.8926 58.5294 72.8608C59.545 72.9879 60.5925 72.8926 61.6717 72.6068C61.8621 72.5432 61.9256 72.3209 61.7986 72.2256C61.6717 72.0986 61.5447 71.9715 61.386 71.8445C62.4652 71.8127 63.5444 71.7174 64.6235 71.5904C64.814 71.5586 64.9409 71.3998 64.8774 71.241C64.7822 71.0504 64.687 70.8916 64.5283 70.7328C65.671 70.6058 66.7819 70.6058 67.8928 70.7328C68.0832 70.7646 68.2737 70.5422 68.2102 70.3834C68.115 70.2246 68.0515 70.0976 67.9245 69.9705C68.6863 70.0341 69.4798 69.907 70.2733 69.6847C70.4638 69.6212 70.4955 69.4306 70.4003 69.3353C70.3051 69.2083 70.2099 69.113 70.1146 69.0177C71.1303 68.9859 72.146 68.8271 73.1617 68.4777C73.3522 68.4142 73.3839 68.2236 73.2887 68.1284C73.13 67.9378 72.9713 67.8107 72.7808 67.6837C73.6696 67.6202 74.5583 67.4931 75.447 67.3343C75.6692 67.3026 75.7644 67.112 75.6375 66.9532C75.4788 66.7626 75.2883 66.6038 75.0662 66.445C76.2405 66.2544 77.3832 65.9368 78.4306 65.3969C78.5893 65.3016 78.6846 65.111 78.4941 65.0157C78.4306 64.984 78.3354 64.9522 78.2719 64.8887C79.0337 64.8251 79.7637 64.5075 80.3033 63.9676C80.3668 63.9041 80.3986 63.7453 80.3033 63.6817C80.2716 63.65 80.2081 63.6182 80.1764 63.5547C81.1286 63.3959 82.0491 63.0147 82.8426 62.4748C83.0013 62.3795 83.0013 62.1889 82.8426 62.0937C82.8108 62.0619 82.7791 62.0619 82.7474 62.0301C83.3822 61.8396 83.9535 61.5537 84.4613 61.109C84.5566 61.0138 84.5248 60.8549 84.4296 60.7914C84.4296 60.7914 84.3979 60.7914 84.3979 60.7597C85.8579 59.9656 87.4132 59.1716 88.6511 58.1552C88.8733 58.0282 89.0637 57.8694 89.3176 57.7105C89.762 57.4247 90.2698 57.2341 90.746 57.0118C91.0634 56.98 90.9999 56.853 90.8729 56.8847ZM5.8084 29.3792C5.77666 29.3157 5.74492 29.2839 5.71318 29.2204C5.77666 29.2521 5.8084 29.3157 5.87188 29.3474C5.84014 29.3474 5.84014 29.3474 5.8084 29.3792ZM14.1244 78.705C14.1879 78.705 14.2196 78.6732 14.2831 78.6732V78.705C14.2196 78.705 14.1879 78.705 14.1244 78.705ZM41.453 62.1572C41.7386 62.2207 41.9926 61.9031 41.8339 61.649C40.8182 59.9974 40.0564 58.1552 39.7072 56.2178C39.9929 56.313 40.2786 56.4083 40.5325 56.5036C40.9451 56.6624 41.1673 56.0907 40.9451 55.8048C39.8977 54.5344 39.2311 53.0733 38.9137 51.4535C39.2946 51.5806 39.6755 51.7394 40.0564 51.8664C40.4373 51.9935 40.6912 51.517 40.5325 51.1994C39.8342 49.6113 39.2311 48.0233 38.6915 46.3716C39.009 46.4352 39.3264 46.594 39.6438 46.7845C39.9612 47.0069 40.3738 46.6575 40.2786 46.2764C39.7707 44.4977 39.0724 42.8143 38.1837 41.258C38.6281 41.3851 39.009 41.6074 39.3898 41.9568C39.8025 42.3379 40.3738 41.7344 39.9929 41.3533C38.9455 40.2417 38.3107 38.9394 38.0885 37.4466C38.5011 37.5737 38.882 37.796 39.2629 38.1136C39.612 38.4312 40.1834 38.0183 39.9294 37.5737C39.009 36.0491 38.4694 34.4293 38.3107 32.6506C38.8503 32.873 39.2946 33.1906 39.7072 33.667C40.0564 34.0481 40.5325 33.5717 40.3738 33.1588C39.7707 31.6978 39.2629 30.205 38.882 28.6804C39.3264 28.8392 39.739 29.0616 40.1199 29.3157C40.4055 29.5062 40.8182 29.1886 40.7229 28.8392C40.1199 27.0606 39.8659 25.2819 39.9612 23.4398C40.3421 23.6938 40.7229 23.9479 41.1356 24.202C41.5482 24.4561 41.9291 23.8844 41.6434 23.535C40.7229 22.4869 40.5008 21.1212 40.9769 19.8507C41.2308 19.9777 41.4847 20.2001 41.6434 20.4542C41.8973 20.74 42.5004 20.4542 42.3417 20.0413C41.7386 18.5167 41.5799 16.9921 41.9291 15.4358C42.0878 15.5311 42.2782 15.6582 42.4369 15.7534C42.7543 15.944 43.167 15.6264 43.04 15.277C42.7543 14.2924 42.7226 13.3396 43.04 12.3549C43.1035 12.3867 43.1352 12.4185 43.1987 12.4502C43.4209 12.5773 43.77 12.482 43.8335 12.1961C44.2461 9.52816 45.0396 6.89194 45.3888 4.22397C45.3888 22.1375 45.3888 40.0828 45.357 57.9964C45.357 63.0147 45.357 68.0648 45.357 73.0832C45.1349 72.5115 44.9127 71.9715 44.6905 71.3998C44.1827 70.1929 43.2304 68.6683 43.0717 67.3661L43.1035 67.3978C43.2304 67.6202 43.6113 67.5249 43.5796 67.2708C43.5796 67.0485 43.4844 66.9214 43.3574 66.8261C42.4052 65.1745 41.5164 63.5229 40.596 61.8396C40.8499 61.9984 41.1673 62.0937 41.453 62.1572ZM12.6009 34.6834C12.7913 34.8422 13.1087 34.7151 13.1722 34.5246C13.2039 34.461 13.2039 34.4293 13.2357 34.3657C13.9657 34.8104 14.5053 35.4139 14.8227 36.1762C14.9497 36.462 15.394 36.4303 15.521 36.1444C15.5845 35.9856 15.648 35.8268 15.7114 35.668C16.7906 36.462 17.5206 37.5102 17.9333 38.7806C18.0285 39.0982 18.5998 39.0029 18.6316 38.6853C18.6316 38.4312 18.6633 38.1771 18.7903 37.9548C19.806 38.4948 20.409 39.4794 20.3455 40.6228C20.3138 41.0039 20.9169 41.1627 21.0438 40.7816C21.1708 40.4005 21.2978 40.0511 21.4247 39.6699C22.5039 40.7816 23.2974 42.0203 23.8687 43.4496C23.964 43.7354 24.4401 43.7037 24.5353 43.4178C24.6623 43.0367 24.821 42.6873 25.0431 42.3379C25.6145 43.4813 26.0906 44.6883 26.5032 45.927C26.5984 46.2764 27.2015 46.3399 27.2332 45.8952C27.265 45.387 27.3919 44.9424 27.6459 44.5295C28.5028 45.7047 29.0424 47.0069 29.2329 48.4679C29.2964 48.8808 29.8994 48.8173 29.9629 48.4362C30.0264 48.0233 30.1851 47.7056 30.4073 47.4198C31.0738 48.4679 31.3278 49.6431 31.2325 50.85C31.2008 51.2947 31.8991 51.3582 31.9943 50.9136C32.0578 50.5007 32.2165 50.1513 32.4387 49.8337C32.6926 51.2947 33.1052 52.724 33.74 54.0897C33.867 54.3756 34.3431 54.3756 34.4383 54.058C34.5335 53.7403 34.6605 53.518 34.8509 53.2957C35.3905 54.5979 35.8349 55.9319 36.2475 57.2659C36.311 57.5517 36.7554 57.7105 36.9458 57.4247C37.1363 57.1388 37.3267 56.853 37.5171 56.5671C38.1837 57.7423 38.5328 59.0128 38.5011 60.3468C38.5011 60.6644 38.9455 60.8867 39.1677 60.5691C39.2946 60.3468 39.4533 60.1562 39.5803 59.9339C39.5803 60.0927 39.6438 60.6644 39.8977 61.1408C39.739 61.2043 39.6755 61.3949 39.7707 61.5855C40.8182 63.3641 41.8339 65.1428 42.8496 66.9214C42.6591 67.0485 42.5322 67.3026 42.5639 67.6202C42.5956 68.0648 42.913 68.5413 43.0717 68.9224C43.3574 69.5576 43.6431 70.2246 43.897 70.8599C44.2779 71.7174 44.6588 72.5432 45.0396 73.4008C42.2465 70.2564 39.4851 67.0802 36.6919 63.9358C26.8841 52.8193 17.0763 41.6709 7.26846 30.5544C8.88722 32.0154 10.8551 33.2541 12.6009 34.6834ZM25.3605 60.5691C25.6145 60.442 25.9001 60.3785 26.2493 60.3468C26.5984 60.315 26.6619 59.8703 26.408 59.7115C25.1066 58.854 23.71 58.187 22.2182 57.6788C22.5991 57.52 22.98 57.4882 23.4244 57.4882C23.9005 57.52 23.9957 56.853 23.4879 56.7895C22.1865 56.6624 21.0121 56.186 20.0281 55.3602C20.3773 55.2331 20.7582 55.1696 21.2025 55.1696C21.6152 55.1696 21.8056 54.6297 21.3612 54.5026C19.9012 54.058 18.6316 53.2957 17.5524 52.2793C18.0285 52.1205 18.5046 52.0887 19.0759 52.1523C19.5203 52.2158 19.5838 51.6441 19.2346 51.4853C18.0285 50.8818 16.8541 50.2148 15.7749 49.4525C16.1558 49.3255 16.5684 49.2302 16.9811 49.1984C17.2985 49.1667 17.3937 48.7538 17.1398 48.595C15.7749 47.8009 14.6005 46.8163 13.6483 45.6094C14.0609 45.5776 14.4736 45.5141 14.8862 45.4823C15.2988 45.4506 15.2671 44.8789 14.8544 44.8153C13.6483 44.6565 12.7278 43.926 12.3469 42.8779C12.6009 42.8143 12.8865 42.8143 13.1405 42.8779C13.4896 42.9414 13.7118 42.4332 13.3944 42.2426C12.1565 41.6074 11.2043 40.7498 10.5695 39.6064L11.1091 39.5429C11.4265 39.5111 11.5217 39.0665 11.2678 38.9077C10.506 38.4312 9.99814 37.8595 9.68074 37.0973C9.74422 37.0973 9.8077 37.0972 9.83944 37.0655C10.0616 37.0337 10.2521 36.7796 10.1251 36.5891C8.98245 34.7469 8.06197 32.7459 6.88757 30.9037C9.39507 33.7305 11.9026 36.5891 14.4101 39.4158C24.2179 50.5324 33.994 61.649 43.8018 72.7656C43.7383 72.702 43.6431 72.6385 43.5796 72.575C43.2622 72.2891 42.913 72.0033 42.5956 71.7174C42.4052 71.5586 42.183 71.2728 41.9291 71.1457C41.7386 71.0504 41.5482 71.0822 41.453 71.114C40.596 70.1929 39.7707 69.2718 38.9137 68.3189C38.7868 68.1919 38.5646 68.2554 38.5328 68.3825C38.5011 68.5413 38.4694 68.7001 38.4694 68.8271C37.6441 67.9378 36.6284 67.2073 35.5492 66.5403C35.3905 66.445 35.1366 66.5085 35.1366 66.6673C35.1366 66.6991 35.1366 66.7626 35.1366 66.7944C34.5018 66.0321 33.74 65.4286 32.7561 64.9204C32.5974 64.8251 32.3752 64.9522 32.3752 65.0792C32.3752 65.2381 32.3752 65.4286 32.3752 65.5874C31.5817 64.9204 30.7882 64.2534 29.9312 63.65C29.7725 63.5547 29.5503 63.5864 29.4868 63.7135C29.3916 63.9041 29.3598 64.0946 29.3281 64.2852C29.0107 64.0311 28.6933 63.777 28.4076 63.5229C28.725 63.4276 29.0424 63.3006 29.3281 63.2053C29.6772 63.0783 29.582 62.6654 29.2964 62.5383C27.9315 61.9666 26.6302 61.2996 25.3605 60.5691ZM28.1537 62.8877C28.0267 62.9195 27.868 62.983 27.7411 63.0147C27.5189 62.7924 27.3285 62.6018 27.138 62.3795C27.4872 62.5383 27.8363 62.7289 28.1537 62.8877ZM7.90327 58.8222C8.09371 58.854 8.25241 58.7269 8.22067 58.5681C8.22067 58.5363 8.18893 58.5046 8.18893 58.4728C8.85548 58.5364 9.42681 58.7587 9.9664 59.1398C10.1568 59.2669 10.4425 59.1398 10.4108 58.9493C10.379 58.854 10.3473 58.7269 10.3473 58.6316C11.363 58.854 12.2835 59.2669 13.0452 59.9339C13.2357 60.0927 13.5848 59.9021 13.4579 59.6798C13.3626 59.521 13.2674 59.3621 13.2674 59.2033C14.1561 59.2669 14.9497 59.7115 15.3623 60.4103C15.4892 60.6326 15.9336 60.5691 15.8701 60.315C15.8067 60.0609 15.7432 59.8068 15.6797 59.5527C16.8223 59.9339 17.8698 60.4738 18.7903 61.2043C18.9807 61.3314 19.2664 61.2043 19.2029 61.0138C19.1394 60.7597 19.1077 60.5056 19.1077 60.2515C19.9647 60.7914 20.7582 61.3949 21.4882 62.0301C21.7104 62.2207 22.123 62.0937 21.9643 61.8396C21.7739 61.5219 21.6786 61.2361 21.6786 60.9185C22.7261 61.3949 23.5831 62.0619 24.3131 62.8877C24.5353 63.1418 24.8844 62.9195 24.7892 62.6654C24.6623 62.4113 24.6305 62.1572 24.6622 61.9348C25.5192 62.4113 26.1541 63.0147 26.5984 63.8088C26.7571 64.0946 27.2332 63.9358 27.1063 63.65C26.9793 63.3641 26.9158 63.1418 26.9476 62.8877C27.7093 63.7135 28.5663 64.444 29.5185 65.111C29.709 65.2381 30.0264 65.111 29.9629 64.9204C29.8994 64.6981 29.8994 64.5393 29.9312 64.3487C30.8199 64.984 31.6452 65.6827 32.4387 66.3815C32.5974 66.5403 32.9465 66.5085 32.9465 66.2862C32.9465 66.0639 32.9465 65.8415 32.9465 65.6192C33.867 66.1591 34.597 66.8261 35.1049 67.6519C35.2318 67.8425 35.6127 67.8743 35.6445 67.6202C35.6445 67.4614 35.6445 67.3026 35.6445 67.1437C36.7554 67.7472 37.6758 68.573 38.4694 69.4623C38.5963 69.5894 38.8503 69.5576 38.882 69.3988C38.9137 69.24 38.9137 69.0812 38.9455 68.9224C39.739 69.78 40.5325 70.6058 41.326 71.4633C41.3577 71.5269 41.4212 71.6221 41.5482 71.6857C41.7069 71.7492 41.8339 71.5904 41.7386 71.4951C41.7386 71.4951 41.7386 71.4951 41.7069 71.4633C42.4687 71.8445 43.167 72.6703 43.77 73.1785C36.8506 70.447 29.9312 67.7155 23.0117 65.0157C23.0117 65.0157 11.4582 60.3785 5.30055 58.3458C6.15754 58.4411 7.04628 58.5999 7.90327 58.8222ZM18.4729 77.371C18.5998 77.3392 18.6316 77.1804 18.5363 77.1169C18.5046 77.0851 18.5046 77.0851 18.4729 77.0534C18.8537 76.8628 19.2981 76.831 19.7425 76.8946C19.9012 76.9263 20.0281 76.7358 19.9012 76.6087C19.8377 76.5452 19.7742 76.4817 19.7107 76.4181C20.3773 76.1958 21.0438 76.1641 21.7421 76.3229C21.9326 76.3546 22.0278 76.1005 21.8691 76.0052C21.7421 75.9417 21.6469 75.8782 21.5517 75.7512C22.0595 75.4971 22.6943 75.4971 23.2022 75.8147C23.3609 75.91 23.5831 75.7194 23.4561 75.5606C23.3291 75.4018 23.1704 75.2747 23.0435 75.1159C23.837 74.9571 24.6305 74.9571 25.424 75.1159C25.5827 75.1477 25.6779 74.9571 25.5827 74.8301C25.424 74.6713 25.3288 74.5125 25.2018 74.3536C25.9001 74.4172 26.5667 74.5124 27.2332 74.703C27.4237 74.7348 27.6141 74.5125 27.4237 74.4172C27.2015 74.2584 27.011 74.0995 26.8841 73.909C27.6459 73.8772 28.4076 74.0043 29.1377 74.2901C29.3598 74.3854 29.4868 74.0995 29.3281 73.9725C29.1694 73.8455 29.0424 73.6866 28.9472 73.5278C29.6138 73.5278 30.2168 73.7184 30.7564 74.0678C30.9469 74.1948 31.1691 73.9407 30.9786 73.7819C30.7882 73.6549 30.6612 73.4961 30.5977 73.3373C31.3595 73.6231 32.1213 73.8137 32.9148 73.909C33.0735 73.9407 33.2004 73.7502 33.0735 73.6231C32.9783 73.5278 32.9465 73.4643 32.883 73.369C33.3591 73.4643 33.867 73.4961 34.3431 73.5596H34.3748C34.9779 73.5914 35.5492 73.6231 36.1523 73.5914C36.0571 73.7184 35.9619 73.8455 35.8349 73.9725C35.7397 74.0995 35.8666 74.2584 36.0253 74.2584C37.3584 74.1631 38.6598 74.0678 39.9929 73.9725C40.0246 74.0995 40.1516 74.2266 40.3421 74.2901C40.6277 74.3854 40.9769 74.3219 41.2625 74.3536C41.7069 74.3536 42.183 74.3854 42.6274 74.3854C43.1035 74.3854 43.5796 74.4172 44.0557 74.4172C34.6922 75.91 25.2653 77.1804 15.8384 78.2603C16.7906 77.9427 17.6159 77.5933 18.4729 77.371ZM44.3096 74.9571C43.8335 75.243 43.2304 75.7194 42.6591 75.8464C42.6591 75.8464 42.6591 75.8464 42.6908 75.8464C42.7861 75.7829 42.7226 75.6241 42.5956 75.6559C42.5004 75.6876 42.4369 75.7194 42.4052 75.7829C41.7704 76.2593 41.1038 76.7358 40.4373 77.2122C40.4373 77.0851 40.469 76.9581 40.469 76.831C40.469 76.704 40.3103 76.6405 40.2151 76.704C39.5485 77.2122 38.8185 77.6568 38.025 77.8792C38.0567 77.7521 38.0885 77.6251 38.0885 77.5298C38.1202 77.3392 37.8663 77.2757 37.7393 77.4028C37.2632 77.9109 36.6602 78.2603 35.9936 78.4827C36.0253 78.3238 36.0571 78.165 36.0888 78.0062C36.1206 77.8474 35.8984 77.7521 35.7714 77.8474C35.1366 78.2286 34.4701 78.5779 33.8035 78.8955C33.8035 78.7685 33.8353 78.6415 33.9305 78.4827C33.994 78.3556 33.8353 78.1968 33.6765 78.2603C32.9465 78.5779 32.28 78.9591 31.6452 79.4355C31.6769 79.2449 31.7404 79.0861 31.8673 78.8955C31.9943 78.705 31.7086 78.5144 31.5499 78.6732C31.1373 79.1496 30.6295 79.499 29.9947 79.6896C30.0264 79.499 30.0899 79.3402 30.2168 79.1814C30.3121 79.0226 30.1216 78.8003 29.9312 78.9273C29.3281 79.4037 28.6616 79.7214 27.8998 79.8802C27.9633 79.6578 28.0585 79.4355 28.2489 79.2449C28.4076 79.0861 28.1537 78.9273 27.995 79.0226C27.3919 79.372 26.7889 79.6578 26.1541 79.8802C26.1858 79.6896 26.2493 79.499 26.3445 79.3402C26.408 79.2132 26.2493 79.0544 26.0906 79.1179C25.3605 79.4673 24.5988 79.6896 23.8053 79.7531C23.9005 79.5943 23.964 79.4037 24.0592 79.2449C24.1544 79.0544 23.8687 78.9273 23.7418 79.0861C23.3609 79.5308 22.7578 79.6896 22.1865 79.5943C22.2182 79.4673 22.3135 79.372 22.4087 79.2767C22.5356 79.1496 22.3452 78.9273 22.1865 79.0226C21.5834 79.372 20.9169 79.499 20.2186 79.4673C20.2503 79.4037 20.2821 79.3084 20.3138 79.2449C20.3773 79.1179 20.2186 78.9591 20.0599 79.0226C19.6473 79.2132 19.2346 79.2767 18.7903 79.1814C18.7903 79.1496 18.822 79.1179 18.822 79.1179C18.8537 79.0226 18.7903 78.8955 18.6633 78.8955C17.8063 78.8955 16.9176 78.8003 16.0288 78.7685C25.551 77.6568 35.0731 76.3546 44.5318 74.8618C44.5001 74.8618 44.4048 74.8936 44.3096 74.9571ZM43.3257 74.0678C42.4687 74.036 41.326 74.1631 40.5008 73.909H40.5325C40.6912 73.909 40.7229 73.6866 40.5642 73.6549C40.4373 73.6231 40.3103 73.6231 40.2468 73.6549C39.0407 73.7502 37.8028 73.7819 36.5649 73.8455C36.6919 73.7184 36.7871 73.5914 36.9141 73.4643C37.0093 73.3373 36.8823 73.1467 36.6919 73.1467C35.9619 73.2102 35.2001 73.2102 34.4701 73.1785C33.9622 73.0514 33.4544 72.9561 32.9465 72.8926C33.0417 72.7973 33.1687 72.702 33.2639 72.6068C33.4544 72.4162 33.1687 72.1938 32.9148 72.2256C31.8991 72.4479 30.8516 72.4479 29.8042 72.2256C29.9629 72.0668 30.1534 71.908 30.3121 71.7492C30.5025 71.5904 30.2486 71.368 30.0264 71.3363C28.9155 71.3045 27.7728 71.241 26.6619 71.114C26.7889 70.9551 26.9476 70.8599 27.138 70.7328C27.3285 70.6375 27.2332 70.3517 26.9793 70.2882C25.7732 70.1293 24.5988 70.0658 23.4244 70.1611C23.6148 69.9705 23.837 69.8435 24.1544 69.7164C24.4718 69.5894 24.2496 69.1765 23.9322 69.2718C23.0117 69.5259 22.0595 69.5576 21.1073 69.3035C21.2978 69.113 21.4882 68.9859 21.7739 68.8906C22.0278 68.7953 21.9326 68.4142 21.6152 68.446C20.4725 68.5413 19.3616 68.446 18.2507 68.0966C18.5046 67.8743 18.7903 67.7472 19.2029 67.6202C19.5203 67.5249 19.3298 67.1755 19.0442 67.1755C18.0285 67.1438 16.9811 67.0167 15.9654 66.8579C16.1558 66.6673 16.378 66.5403 16.6636 66.3815C16.8541 66.2862 16.7589 66.0003 16.5049 65.9686C15.2988 65.8415 14.1561 65.5557 13.0452 65.0792C13.2992 64.9522 13.5531 64.8252 13.7753 64.6663C14.0292 64.5393 13.7753 64.1899 13.4896 64.2534C12.6326 64.4758 11.7439 64.2534 11.0773 63.7135C11.236 63.6182 11.3947 63.5547 11.5852 63.5229C11.8391 63.4594 11.7756 63.11 11.4899 63.0783C10.4425 63.0147 9.45855 62.7289 8.56982 62.2207C8.66504 62.1572 8.792 62.0937 8.88723 62.0301C9.07767 61.9348 8.98245 61.649 8.72852 61.6172C8.06197 61.5219 7.4589 61.2996 6.95105 60.9502C6.9828 60.9185 7.01454 60.9185 7.04628 60.8867C7.17324 60.8232 7.20498 60.6009 7.04628 60.5056C5.61795 59.7115 4.25311 58.7904 2.82479 57.9964C9.8077 59.9339 16.4732 62.7924 23.1704 65.4286C30.4073 68.2872 37.6441 71.114 44.8809 73.9725C44.8809 73.9725 44.8809 73.9725 44.9127 73.9725C44.9444 74.0043 44.9444 74.0043 44.9762 74.036C44.4366 74.1313 43.8652 74.0995 43.3257 74.0678ZM46.1823 96.7774C45.9601 96.7138 45.7062 96.6821 45.5475 96.5868C45.1031 96.3644 45.1983 95.5386 45.1666 95.221C45.0079 94.2682 44.8492 93.2836 44.7222 92.299C44.4366 90.3615 44.2779 88.424 44.1827 86.4548C43.9922 82.5164 44.3414 78.6097 45.2301 74.6713H45.2618C45.3888 74.6395 45.4523 74.576 45.4523 74.4807C45.4523 74.5442 45.484 74.576 45.5475 74.6077C44.1509 82.0399 44.6588 89.4404 46.1823 96.7774ZM76.6849 78.6732C76.7484 78.705 76.8119 78.705 76.8754 78.7367C76.8119 78.7367 76.7484 78.7367 76.6849 78.7367C76.6849 78.705 76.6849 78.6732 76.6849 78.6732ZM64.4648 63.7453C64.8775 62.983 65.544 62.3477 66.401 61.8713C66.401 62.1254 66.3693 62.3477 66.274 62.6018C66.1788 62.8559 66.528 63.0465 66.7501 62.8242C67.4484 61.9984 68.3372 61.3631 69.3846 60.8549C69.3846 61.1726 69.2894 61.4584 69.0989 61.776C68.9402 62.0301 69.3529 62.1572 69.575 61.9666C70.3368 61.3314 71.1303 60.7279 71.9556 60.188C71.9556 60.442 71.9238 60.6961 71.8604 60.9502C71.7969 61.1408 72.1143 61.2678 72.273 61.1408C73.1935 60.442 74.2409 59.8703 75.3836 59.4892C75.3201 59.7433 75.2566 59.9974 75.1931 60.2515C75.1296 60.5056 75.574 60.5691 75.701 60.3468C76.1136 59.648 76.9071 59.2033 77.7958 59.1398C77.7641 59.2986 77.7006 59.4574 77.6054 59.6162C77.4784 59.8068 77.7958 60.0291 78.018 59.8703C78.8115 59.2033 79.7003 58.7904 80.716 58.5681C80.6842 58.6634 80.6525 58.7904 80.6525 58.8857C80.6207 59.0763 80.9064 59.2033 81.0968 59.0763C81.6364 58.6952 82.2078 58.4728 82.8743 58.4093C82.8743 58.4411 82.8426 58.4728 82.8426 58.5046C82.8108 58.6316 82.9695 58.7904 83.16 58.7587C84.1122 58.5364 85.0644 58.3458 86.0166 58.187C79.8907 60.0609 73.987 62.5701 68.0832 64.8887C61.1638 67.6202 54.2761 70.3199 47.3567 73.0514C47.9598 72.5115 48.6581 71.7174 49.4198 71.3363C49.4198 71.3363 49.4198 71.3363 49.3881 71.368C49.2929 71.4633 49.4198 71.6539 49.5785 71.5586C49.7055 71.4951 49.769 71.4316 49.8007 71.3363C50.5942 70.4787 51.3877 69.6529 52.1813 68.7954C52.213 68.9542 52.213 69.113 52.2447 69.2718C52.2765 69.4306 52.5304 69.4941 52.6574 69.3353C53.4191 68.446 54.3714 67.6202 55.4823 67.0167C55.4823 67.1755 55.4823 67.3343 55.4823 67.4931C55.4823 67.7472 55.8949 67.7155 56.0219 67.5249C56.5614 66.6991 57.2915 66.0321 58.1802 65.4921C58.1802 65.7145 58.1802 65.9368 58.1802 66.1591C58.1802 66.3815 58.5294 66.3815 58.6881 66.2544C59.4816 65.5239 60.3068 64.8569 61.1956 64.2217C61.2273 64.4122 61.2273 64.5711 61.1638 64.7934C61.1003 65.0157 61.4177 65.111 61.6082 64.984C62.5604 64.317 63.4174 63.5864 64.1792 62.7606C64.2109 63.0147 64.1474 63.2688 64.0205 63.5229C63.83 63.9041 64.3061 64.0311 64.4648 63.7453ZM62.8143 62.8877C63.1635 62.7289 63.4809 62.5383 63.83 62.3795C63.6396 62.6018 63.4491 62.8242 63.2269 63.0147C63.1 62.983 62.973 62.9195 62.8143 62.8877ZM80.8747 36.5891C80.7477 36.7796 80.9381 37.0655 81.1603 37.0655C81.2238 37.0655 81.2873 37.0655 81.319 37.0973C81.0016 37.8595 80.462 38.463 79.732 38.9077C79.4463 39.0665 79.5733 39.4794 79.8907 39.5429L80.4303 39.6064C79.7955 40.7498 78.8433 41.6392 77.6054 42.2426C77.288 42.4014 77.5102 42.9096 77.8593 42.8779C78.1132 42.8143 78.3989 42.8143 78.6528 42.8779C78.2719 43.926 77.3515 44.6565 76.1453 44.8153C75.7644 44.8789 75.701 45.4506 76.1136 45.4823C76.5262 45.5141 76.9388 45.5776 77.3515 45.6094C76.3993 46.8163 75.2566 47.8009 73.86 48.595C73.6061 48.7538 73.7013 49.1667 74.0187 49.1984C74.4313 49.2302 74.844 49.3255 75.2249 49.4525C74.1139 50.2148 72.9713 50.8818 71.7651 51.4853C71.416 51.6441 71.4795 52.2158 71.9238 52.1523C72.4634 52.0887 72.9395 52.1205 73.4474 52.2793C72.3682 53.2957 71.0986 54.0262 69.6385 54.5026C69.2259 54.6297 69.4163 55.2014 69.7972 55.1696C70.2416 55.1696 70.5907 55.2331 70.9716 55.3602C69.9877 56.1542 68.845 56.6307 67.5119 56.7895C67.0358 56.853 67.0993 57.52 67.5754 57.4882C68.0198 57.4565 68.4324 57.52 68.7815 57.6788C67.2897 58.187 65.8932 58.854 64.5918 59.7115C64.3379 59.8703 64.4331 60.315 64.7505 60.3468C65.0996 60.3785 65.3536 60.442 65.6392 60.5691C64.3696 61.2996 63.0682 61.9984 61.7351 62.6018C61.4495 62.7289 61.3543 63.1418 61.7034 63.2688C62.0208 63.3641 62.3382 63.4912 62.6239 63.5864C62.3382 63.8405 62.0208 64.0946 61.7034 64.3487C61.7034 64.1582 61.6399 63.9676 61.5447 63.777C61.4812 63.65 61.259 63.5864 61.1003 63.7135C60.2433 64.317 59.4181 64.984 58.6563 65.651C58.6563 65.4921 58.6563 65.3016 58.6563 65.1428C58.6563 65.0157 58.4341 64.8887 58.2754 64.984C57.3232 65.4604 56.5297 66.0956 55.8949 66.8579C55.8949 66.8261 55.8949 66.7626 55.8949 66.7309C55.8949 66.572 55.641 66.5085 55.4823 66.6038C54.3714 67.2708 53.3874 68.0331 52.5621 68.8906C52.5304 68.7318 52.4987 68.573 52.4987 68.446C52.4669 68.3189 52.2447 68.2554 52.1178 68.3825C51.2925 69.3035 50.4355 70.2564 49.5785 71.1775C49.4516 71.114 49.2929 71.114 49.1024 71.2092C48.8485 71.3363 48.6263 71.5904 48.4359 71.7809C48.1185 72.0668 47.7693 72.3527 47.4519 72.6385C47.4202 72.6703 47.4202 72.6703 47.3884 72.702C57.1963 61.5855 67.0041 50.4689 76.7801 39.3523C79.1924 36.5891 81.6364 33.8576 84.0487 31.0943C82.8743 32.8412 81.9856 34.8104 80.8747 36.5891ZM51.8956 60.5691C51.9591 60.6326 51.9908 60.6644 52.0543 60.6961C52.2765 60.7597 52.5621 60.5691 52.5621 60.3468C52.5304 59.0128 52.8795 57.7423 53.5461 56.5671C53.7365 56.853 53.927 57.1388 54.1174 57.4247C54.3079 57.7105 54.7522 57.5517 54.8157 57.2659C55.1966 55.9001 55.6727 54.5979 56.2123 53.2957C56.4027 53.518 56.5297 53.7721 56.6249 54.058C56.7201 54.3438 57.1963 54.3438 57.3232 54.0897C57.958 52.724 58.4024 51.2947 58.6246 49.8337C58.8468 50.1513 58.9737 50.5007 59.0689 50.9136C59.1324 51.3582 59.8625 51.2947 59.8307 50.85C59.7355 49.6113 59.9894 48.4679 60.656 47.4198C60.8782 47.7374 61.0051 48.055 61.1003 48.4362C61.1638 48.8173 61.7986 48.8808 61.8304 48.4679C62.0208 47.0386 62.5604 45.7364 63.4174 44.5295C63.6713 44.9424 63.7983 45.387 63.83 45.8952C63.8618 46.3081 64.4648 46.2764 64.5601 45.927C64.9409 44.6883 65.417 43.5131 66.0201 42.3379C66.2423 42.6873 66.401 43.0367 66.528 43.4178C66.6232 43.7037 67.0993 43.7037 67.1945 43.4496C67.7658 42.0203 68.5593 40.7816 69.6385 39.6699C69.7655 40.0511 69.8925 40.4005 70.0194 40.7816C70.1464 41.1627 70.7494 41.0039 70.7177 40.6228C70.6542 39.5111 71.2573 38.4948 72.273 37.9548C72.3682 38.1771 72.4317 38.4312 72.4317 38.6853C72.4634 39.0029 73.0348 39.13 73.13 38.7806C73.5426 37.5102 74.2726 36.4938 75.3518 35.668C75.4153 35.8268 75.4788 35.9856 75.5423 36.1444C75.6375 36.4303 76.1136 36.462 76.2405 36.1762C76.5897 35.4139 77.0975 34.8104 77.8276 34.3657C77.8593 34.4293 77.8593 34.461 77.8911 34.5246C77.9545 34.7151 78.2719 34.8422 78.4624 34.6834C80.2716 33.2223 82.303 31.9519 84.0487 30.4273C74.2409 41.5439 64.4331 52.6604 54.6253 63.8088C51.8956 66.8897 49.1977 69.9705 46.468 73.0514C46.7854 72.3209 47.1345 71.6221 47.4202 70.8916C47.7058 70.2564 47.9915 69.5894 48.2454 68.9542C48.4041 68.573 48.7215 68.0648 48.7533 67.6519C48.785 67.3343 48.6581 67.0802 48.4676 66.9532C49.4833 65.1745 50.499 63.3959 51.5464 61.6172C51.7051 61.3631 51.4512 61.0773 51.1973 61.1408C50.9116 61.2043 50.6577 61.2679 50.372 61.3314C50.626 60.8867 50.8482 60.4103 51.0703 59.9339C51.229 60.2197 51.5782 60.188 51.8956 60.5691ZM45.8332 73.2102C45.8332 54.7567 45.8332 36.3032 45.8649 17.8497C45.8649 13.3713 45.8649 8.92469 45.8649 4.4463C46.2458 7.05075 46.9758 9.62345 47.3884 12.2279C47.4202 12.5138 47.8011 12.6408 48.0233 12.482C48.0867 12.4502 48.1185 12.4185 48.182 12.3867C48.4994 13.3396 48.4676 14.2924 48.182 15.3088C48.0867 15.6582 48.4994 15.9758 48.785 15.7852C48.9437 15.6899 49.1342 15.5629 49.2929 15.4676C49.6103 17.0239 49.4516 18.5802 48.8802 20.073C48.7215 20.4859 49.2929 20.7718 49.5785 20.4859C49.769 20.2318 49.9912 20.0413 50.2451 19.8825C50.7212 21.1529 50.4673 22.5504 49.5785 23.5668C49.2929 23.9162 49.6738 24.4879 50.0864 24.2338C50.4673 23.9797 50.8799 23.7256 51.2608 23.4715C51.356 25.3137 51.1021 27.1241 50.499 28.871C50.3721 29.2204 50.8164 29.538 51.1021 29.3474C51.5147 29.0616 51.9273 28.871 52.34 28.7122C51.9591 30.2367 51.483 31.7295 50.8482 33.1906C50.6895 33.6035 51.1656 34.1117 51.5147 33.6988C51.9273 33.2223 52.3717 32.9047 52.9113 32.6824C52.7526 34.461 52.213 36.0809 51.2925 37.6054C51.0069 38.0501 51.6099 38.4312 51.9591 38.1454C52.34 37.8278 52.6891 37.6054 53.1335 37.4784C52.9113 38.9712 52.2447 40.2734 51.229 41.3851C50.8482 41.798 51.4195 42.3697 51.8321 41.9885C52.213 41.6392 52.5939 41.4168 53.0383 41.2898C52.1178 42.8779 51.4195 44.5295 50.9434 46.3081C50.8482 46.6575 51.2608 47.0069 51.5782 46.8163C51.8956 46.594 52.213 46.4669 52.5304 46.4034C51.9908 48.055 51.3877 49.6431 50.6895 51.2312C50.5308 51.5488 50.7847 52.0252 51.1656 51.8982C51.5464 51.7711 51.9273 51.6123 52.3082 51.4853C51.9908 53.1051 51.3243 54.5661 50.2768 55.8366C50.0229 56.1225 50.2451 56.6942 50.6895 56.5354C50.9751 56.4401 51.2608 56.3448 51.5147 56.2495C51.1973 58.187 50.4038 59.9974 49.3881 61.6807C49.2294 61.9348 49.4833 62.2525 49.769 62.1889C50.0546 62.1254 50.3403 62.0301 50.6577 61.9666C49.7372 63.6182 48.8485 65.3016 47.8963 66.9532C47.7693 67.0485 47.7058 67.1755 47.6741 67.3978C47.6424 67.6519 48.0233 67.7472 48.1502 67.5249L48.182 67.4931C48.0233 68.7954 47.071 70.3199 46.5632 71.5269C46.3093 72.035 46.0871 72.6385 45.8332 73.2102ZM72.273 78.832C72.146 78.832 72.0825 78.9591 72.1143 79.0544L72.146 79.1179C71.7017 79.1814 71.289 79.1179 70.8764 78.9591C70.7177 78.8956 70.559 79.0544 70.6225 79.1814C70.6542 79.2449 70.686 79.3402 70.7177 79.4037C70.0194 79.4355 69.3529 79.2767 68.7498 78.9591C68.5911 78.8638 68.4007 79.0861 68.5276 79.2132C68.6228 79.3084 68.6863 79.4037 68.7498 79.5308C68.1785 79.6578 67.5754 79.4673 67.1945 79.0226C67.0676 78.8956 66.7819 78.9908 66.8771 79.1814C66.9723 79.3402 67.0358 79.5308 67.131 79.6896C66.3375 79.6261 65.5757 79.4037 64.8457 79.0544C64.7188 78.9908 64.5283 79.1496 64.5918 79.2767C64.687 79.4673 64.7505 79.6261 64.7822 79.8166C64.1474 79.5625 63.5444 79.2767 62.9413 78.9591C62.7826 78.8638 62.5287 79.0226 62.6874 79.1814C62.8778 79.372 62.973 79.5943 63.0365 79.8166C62.2747 79.6578 61.6082 79.3402 61.0051 78.8638C60.8464 78.7367 60.6242 78.9591 60.7195 79.1179C60.8464 79.2767 60.9099 79.4673 60.9416 79.6261C60.3068 79.4355 59.799 79.0861 59.3864 78.6097C59.2276 78.4191 58.942 78.6415 59.0689 78.832C59.1959 79.0226 59.2594 79.1814 59.2911 79.372C58.6563 78.8955 57.9898 78.5144 57.2597 78.1968C57.101 78.1333 56.9423 78.2921 57.0058 78.4191C57.0693 78.5779 57.101 78.705 57.1328 78.832C56.4662 78.5144 55.7997 78.165 55.1649 77.7839C55.0379 77.7204 54.8157 77.7839 54.8475 77.9427C54.8792 78.1015 54.9109 78.2603 54.9427 78.4191C54.2761 78.1968 53.6731 77.8157 53.197 77.3392C53.07 77.2122 52.8161 77.2757 52.8478 77.4663C52.8795 77.5933 52.8795 77.7204 52.9113 77.8157C52.086 77.5616 51.356 77.1487 50.7212 76.6405C50.626 76.5452 50.4673 76.6405 50.4673 76.7675C50.4673 76.8946 50.499 77.0216 50.499 77.1487C49.8325 76.6722 49.1976 76.1958 48.5311 75.7194C48.4994 75.6559 48.4359 75.6241 48.3407 75.5923C48.2137 75.5606 48.1502 75.7194 48.2454 75.7829C48.2454 75.7829 48.2454 75.7829 48.2772 75.7829C47.7058 75.6559 47.1345 75.1477 46.6267 74.8936C46.5314 74.8301 46.468 74.7983 46.3727 74.7665C55.8314 76.2593 65.3218 77.5616 74.844 78.6415C74.0187 78.7367 73.13 78.832 72.273 78.832ZM60.3386 73.3373C60.2433 73.4961 60.1164 73.6549 59.9577 73.7819C59.7672 73.909 59.9894 74.1948 60.1799 74.0678C60.7195 73.7184 61.3543 73.5278 61.9891 73.5278C61.8938 73.6866 61.7986 73.8455 61.6082 73.9725C61.4495 74.0995 61.5764 74.3536 61.7986 74.2901C62.5287 74.0043 63.2587 73.8772 64.0522 73.909C63.9252 74.1313 63.7665 74.2901 63.5126 74.4172C63.3222 74.5442 63.5126 74.7665 63.7031 74.703C64.3696 74.5442 65.0679 74.4172 65.7345 74.3536C65.6392 74.5125 65.5123 74.6713 65.3536 74.8301C65.2583 74.9254 65.3536 75.1159 65.5123 75.1159C66.3058 74.9889 67.0993 74.9889 67.8928 75.1159C67.7658 75.2747 67.6071 75.4018 67.4802 75.5606C67.3215 75.7194 67.5754 75.91 67.7341 75.8147C68.2419 75.4971 68.8768 75.4971 69.3846 75.7512C69.2894 75.8464 69.1942 75.9417 69.0672 76.0052C68.9085 76.1005 69.0037 76.3546 69.1942 76.3229C69.8924 76.1641 70.559 76.1958 71.2255 76.4181C71.1621 76.4817 71.0986 76.5452 71.0351 76.6087C70.9399 76.7358 71.0351 76.9263 71.1938 76.8946C71.6382 76.831 72.0508 76.8946 72.4634 77.0534C72.4317 77.0851 72.4317 77.0851 72.4 77.1169C72.3365 77.1804 72.3682 77.3392 72.4634 77.371C73.3204 77.6251 74.1457 77.9427 75.0027 78.2286C65.544 77.1487 56.1488 75.8464 46.7536 74.3854C47.2297 74.3854 47.7058 74.3854 48.182 74.3536C48.6263 74.3536 49.1024 74.3219 49.5468 74.3219C49.8325 74.3219 50.1816 74.3536 50.4673 74.2584C50.6577 74.1948 50.7847 74.0678 50.8164 73.9407C52.1495 74.036 53.4509 74.1313 54.784 74.2266C54.9744 74.2266 55.0696 74.0678 54.9744 73.9407C54.8792 73.8137 54.784 73.6866 54.657 73.5596C55.7362 73.6231 56.8471 73.5278 57.9263 73.3373C57.8628 73.4325 57.8311 73.4961 57.7358 73.5914C57.6089 73.7184 57.7358 73.909 57.8945 73.8772C58.815 73.8137 59.5768 73.6231 60.3386 73.3373ZM83.9217 60.6009C83.763 60.6961 83.763 60.8867 83.9217 60.982C83.9535 61.0138 83.9852 61.0138 84.017 61.0455C83.5091 61.4267 82.9061 61.649 82.2395 61.7125C81.9856 61.7443 81.8904 62.0301 82.0808 62.1254C82.176 62.1889 82.303 62.2525 82.3982 62.316C81.5095 62.8559 80.5573 63.1418 79.4781 63.1735C79.1924 63.1735 79.1289 63.5547 79.3829 63.6182C79.5733 63.65 79.7637 63.7135 79.8907 63.8088C79.2242 64.3487 78.3354 64.5393 77.4784 64.3487C77.1928 64.2852 76.9388 64.6028 77.1928 64.7616C77.4467 64.8887 77.7006 65.0157 77.9228 65.1745C76.8119 65.651 75.6692 65.9368 74.4631 66.0639C74.2409 66.0956 74.1139 66.3815 74.3044 66.4768C74.5583 66.6038 74.7805 66.7626 75.0027 66.9532C73.987 67.112 72.9713 67.239 71.9238 67.2708C71.6382 67.2708 71.4477 67.6519 71.7651 67.7155C72.146 67.8107 72.4634 67.9696 72.7174 68.1919C71.6064 68.5413 70.4955 68.6366 69.3529 68.5413C69.0355 68.5095 68.9085 68.8906 69.1942 68.9859C69.4798 69.0812 69.702 69.24 69.8607 69.3988C68.9085 69.6212 67.9563 69.6212 67.0358 69.3671C66.6867 69.2718 66.4962 69.6847 66.8136 69.8117C67.131 69.907 67.3532 70.0658 67.5437 70.2564C66.3693 70.1611 65.1949 70.2246 63.9887 70.3834C63.7348 70.4152 63.6396 70.701 63.83 70.8281C64.0205 70.9234 64.1792 71.0504 64.3061 71.2092C63.1952 71.3363 62.0526 71.3998 60.9416 71.4316C60.7194 71.4316 60.4655 71.6539 60.656 71.8445C60.8147 72.0033 61.0051 72.1621 61.1638 72.3209C60.1164 72.5432 59.0689 72.5432 58.0532 72.3209C57.7993 72.2574 57.5137 72.5115 57.7041 72.702C57.8311 72.8291 57.958 72.9244 58.085 73.0514C56.8154 73.3373 55.5457 73.4008 54.2761 73.2737C54.0857 73.242 53.9587 73.4643 54.0539 73.5914C54.1809 73.7184 54.2761 73.8455 54.4031 73.9725C53.1652 73.909 51.9591 73.8455 50.7212 73.7819C50.6577 73.7502 50.5308 73.7502 50.4038 73.7819C50.2451 73.8455 50.2768 74.036 50.4355 74.036H50.4673C49.642 74.2584 48.4994 74.1631 47.6424 74.1948C47.071 74.2266 46.5315 74.2584 45.9601 74.2901C45.9919 74.2584 45.9919 74.2584 46.0236 74.2266C53.2604 71.368 60.4973 68.5413 67.7341 65.6827C74.4313 63.0465 81.1286 60.1562 88.1115 58.2505C86.7149 58.8857 85.3501 59.8386 83.9217 60.6009ZM89.4129 57.4882C89.4129 57.4565 89.3811 57.4247 89.3494 57.3929C89.5081 57.3612 89.635 57.3294 89.7937 57.2976C89.6668 57.3612 89.5398 57.4247 89.4129 57.4882Z" fill="#FAFAFA"/>
</g>
<defs>
<clipPath id="clip0">
<rect width="91" height="97" fill="white"/>
</clipPath>
</defs>
</svg>
