<svg width="91" height="91" viewBox="0 0 91 91" fill="none" xmlns="http://www.w3.org/2000/svg">
<path d="M36.1841 54.816L34.3517 59.1718L29.9957 61.0044L27.7878 61.3199L28.1033 59.112C28.6079 58.6072 33.7495 53.4656 34.37 52.8451L36.5183 52.5876L36.1841 54.816Z" fill="#F3F3F3"/>
<path d="M38.4127 54.4827L38.1552 56.631C37.2103 57.5759 33.727 61.0592 31.8885 62.8979L29.6807 63.2132L29.9961 61.0055C30.1927 60.8089 35.5504 55.4512 36.1845 54.8169L38.4127 54.4827Z" fill="#F0F0F0"/>
<path d="M20.3037 58.8817C17.8178 61.3675 3.03705 76.1481 2.44771 76.7374C-0.831256 80.0166 -0.801459 85.2964 2.45056 88.549L17.4849 76.038L26.2109 64.7887L24.519 60.5735L20.3037 58.8817Z" fill="#E7CBFE"/>
<path d="M26.2107 64.7891C23.1184 67.8814 2.82603 88.1738 2.45044 88.5494C5.70317 91.8021 10.983 91.8302 14.2618 88.5521C14.9844 87.8295 31.4098 71.4043 32.1178 70.6961L30.4259 66.4808L26.2107 64.7891Z" fill="#8E39A1"/>
<path d="M26.2112 64.7901C25.8498 64.4288 26.5989 65.1778 20.304 58.8831L24.0889 55.0981L29.996 61.0051L29.0879 63.8821L26.2112 64.7901Z" fill="#C3EBED"/>
<path d="M32.1175 70.6978C29.7481 68.3284 29.0553 67.6356 26.2104 64.7906C27.5342 63.4668 28.6717 62.3293 29.9954 61.0056C32.3648 63.3749 33.0626 64.0728 35.9025 66.9128C34.5787 68.2365 33.4412 69.374 32.1175 70.6978Z" fill="#C3EBED"/>
<path d="M36.1825 9.41918C23.6442 21.9578 23.6098 42.244 36.1825 54.8181L60.1439 33.3802L81.5818 9.41918C69.0721 -3.08948 48.7909 -3.18922 36.1825 9.41918Z" fill="#8E39A1"/>
<path d="M81.5815 9.4202C80.3007 10.7008 37.4629 53.5386 36.1824 54.8191C48.7735 67.4095 69.0584 67.3419 81.5813 54.8189C94.1308 42.2694 94.1449 21.9835 81.5815 9.4202Z" fill="#E7CBFE"/>
<path d="M41.8573 15.0947C32.434 24.5182 32.4476 39.7345 41.8572 49.1438L60.3012 33.5386L75.9065 15.0947C66.4818 5.66998 51.2671 5.68461 41.8573 15.0947Z" fill="white"/>
<path d="M75.907 15.0944C74.9465 16.0549 42.8183 48.1829 41.8577 49.1435C51.2984 58.5849 66.5135 58.5372 75.9068 49.1437C85.3205 39.7302 85.3285 24.5159 75.907 15.0944Z" fill="white"/>
<path d="M58.5474 38.8014C58.3757 38.6477 58.1768 38.4126 57.9599 38.3132C57.9599 38.3132 57.9599 38.3132 57.9689 38.3222C57.9961 38.3493 57.9599 38.4036 57.9147 38.3764C57.8786 38.3584 57.8605 38.3403 57.8514 38.3132C57.6255 38.069 57.3995 37.8339 57.1735 37.5898C57.1645 37.635 57.1645 37.6802 57.1554 37.7254C57.1464 37.7706 57.0741 37.7887 57.0379 37.7435C56.821 37.4903 56.5498 37.2553 56.2335 37.0835C56.2335 37.1287 56.2335 37.1739 56.2335 37.2191C56.2335 37.2914 56.116 37.2824 56.0798 37.2281C55.9262 36.993 55.7183 36.8032 55.4652 36.6495C55.4652 36.7127 55.4652 36.776 55.4652 36.8393C55.4652 36.9026 55.3657 36.9026 55.3206 36.8665C55.0946 36.6585 54.8596 36.4686 54.6065 36.2878C54.5974 36.342 54.5974 36.3872 54.6155 36.4505C54.6336 36.5138 54.5432 36.5409 54.489 36.5048C54.2178 36.3149 53.9738 36.1069 53.7568 35.8719C53.7478 35.9442 53.7659 36.0165 53.802 36.0889C53.8382 36.1702 53.7026 36.2154 53.6574 36.1341C53.5399 35.9171 53.3501 35.7362 53.106 35.6006C53.106 35.6729 53.1151 35.7362 53.1422 35.8086C53.1693 35.8809 53.0699 35.9351 53.0066 35.8719C52.8077 35.6368 52.5547 35.4559 52.2564 35.3113C52.2564 35.4017 52.2835 35.4831 52.3377 35.5735C52.3829 35.6458 52.2654 35.682 52.2021 35.6277C51.9852 35.4469 51.7592 35.2751 51.5242 35.1214C51.5242 35.1937 51.5333 35.266 51.5513 35.3384C51.5694 35.3926 51.479 35.4288 51.4338 35.3926C51.1717 35.1937 50.8734 35.031 50.548 34.9225C50.5661 34.9948 50.5842 35.0671 50.6022 35.1395C50.6203 35.2118 50.4938 35.2299 50.4576 35.1666C50.3401 34.9677 50.1141 34.8411 49.8611 34.823C49.8701 34.8682 49.8882 34.9134 49.9153 34.9586C49.9514 35.0129 49.8611 35.0762 49.7978 35.031C49.5718 34.8411 49.3187 34.7235 49.0295 34.6602C49.0385 34.6874 49.0476 34.7235 49.0476 34.7507C49.0566 34.8049 48.9752 34.8411 48.921 34.8049C48.7674 34.6964 48.6047 34.6331 48.4148 34.615C48.4148 34.6241 48.4239 34.6331 48.4239 34.6422C48.4329 34.6783 48.3877 34.7235 48.3335 34.7145C48.0804 34.6512 47.8273 34.606 47.5742 34.5608C49.3368 35.1395 52.6179 36.4596 52.6179 36.4596C54.6065 37.2462 56.577 38.0238 58.5474 38.8014Z" fill="#8E39A1"/>
<path d="M51.4253 40.4275C51.4614 40.4275 51.4795 40.4637 51.4705 40.4908C51.4705 40.4998 51.4614 40.5089 51.4614 40.5089C51.588 40.527 51.7055 40.5089 51.823 40.4637C51.8682 40.4456 51.9134 40.4908 51.8953 40.527C51.8862 40.545 51.8772 40.5722 51.8682 40.5902C52.067 40.5993 52.2568 40.5541 52.4286 40.4637C52.4738 40.4365 52.528 40.4998 52.4919 40.536C52.4647 40.5631 52.4467 40.5902 52.4286 40.6264C52.5913 40.6626 52.763 40.6083 52.8715 40.4817C52.9076 40.4456 52.989 40.4727 52.9619 40.527C52.9348 40.5722 52.9167 40.6264 52.8896 40.6716C53.1155 40.6535 53.3325 40.5902 53.5404 40.4908C53.5765 40.4727 53.6308 40.5179 53.6127 40.5541C53.5856 40.6083 53.5675 40.6535 53.5584 40.7078C53.7392 40.6355 53.911 40.5541 54.0827 40.4637C54.1279 40.4365 54.2002 40.4817 54.155 40.527C54.1008 40.5812 54.0737 40.6445 54.0556 40.7078C54.2725 40.6626 54.4623 40.5722 54.6341 40.4365C54.6793 40.4004 54.7425 40.4637 54.7154 40.5089C54.6793 40.5541 54.6612 40.6083 54.6522 40.6535C54.8329 40.5993 54.9776 40.4998 55.0951 40.3642C55.1403 40.31 55.2216 40.3732 55.1854 40.4275C55.1493 40.4817 55.1312 40.527 55.1222 40.5812C55.303 40.4456 55.4928 40.3371 55.7007 40.2467C55.7459 40.2286 55.7911 40.2738 55.773 40.3099C55.7549 40.3552 55.7459 40.3913 55.7368 40.4275C55.9266 40.3371 56.1165 40.2376 56.2972 40.1291C56.3334 40.111 56.3967 40.1291 56.3876 40.1743C56.3786 40.2195 56.3695 40.2647 56.3605 40.3099C56.5503 40.2467 56.7221 40.1382 56.8576 40.0025C56.8938 39.9664 56.9661 39.9844 56.9571 40.0387C56.948 40.0749 56.948 40.111 56.939 40.1382C57.174 40.0658 57.3819 39.9483 57.5627 39.8036C57.5898 39.7765 57.635 39.8036 57.635 39.8398C57.635 39.8759 57.6259 39.9121 57.6259 39.9483C57.8158 39.8126 57.9965 39.677 58.1864 39.5414C58.1954 39.5233 58.2135 39.5143 58.2406 39.5052C58.2767 39.4962 58.2948 39.5414 58.2677 39.5595C58.2677 39.5595 58.2677 39.5595 58.2587 39.5595C58.4214 39.5233 58.5841 39.3786 58.7287 39.3063C58.7558 39.2882 58.7829 39.2792 58.81 39.2611C56.1165 39.6861 53.4048 40.0568 50.6931 40.3732C50.9281 40.4004 51.1812 40.4275 51.4253 40.4275Z" fill="#8E39A1"/>
<path d="M58.8916 39.0804C58.8825 39.0804 58.8825 39.0804 58.8916 39.0804C56.8217 38.2666 54.7608 37.4529 52.6999 36.6481C50.7927 35.8977 48.8946 35.0839 46.906 34.5323C47.3128 34.7584 47.7014 35.0206 48.1082 35.2466C48.1534 35.2738 48.1534 35.328 48.1082 35.3552C48.0991 35.3642 48.0901 35.3642 48.0811 35.3732C48.2257 35.4817 48.3974 35.545 48.5872 35.5631C48.6596 35.5722 48.6867 35.6535 48.6324 35.6807C48.6053 35.6987 48.5692 35.7168 48.542 35.7349C48.7951 35.8886 49.0663 35.97 49.3736 35.979C49.455 35.979 49.4731 36.0875 49.4007 36.1056C49.3465 36.1147 49.2923 36.1328 49.2561 36.1599C49.4459 36.3136 49.699 36.3678 49.9431 36.3136C50.0244 36.2955 50.0967 36.3859 50.0244 36.4311C49.9521 36.4673 49.8798 36.5035 49.8165 36.5487C50.1329 36.6843 50.4583 36.7657 50.8018 36.8018C50.865 36.8109 50.9012 36.8923 50.847 36.9194C50.7747 36.9556 50.7114 37.0008 50.6481 37.055C50.9374 37.1002 51.2266 37.1364 51.5249 37.1454C51.6062 37.1454 51.6605 37.2539 51.5701 37.272C51.4616 37.2992 51.3712 37.3444 51.2989 37.4077C51.6153 37.5071 51.9316 37.5342 52.257 37.5071C52.3474 37.4981 52.3836 37.6066 52.3022 37.6337C52.2209 37.6608 52.1576 37.706 52.1124 37.7512C52.3836 37.8145 52.6547 37.8145 52.9169 37.7422C53.0163 37.7151 53.0705 37.8326 52.9801 37.8688C52.8898 37.8959 52.8265 37.9411 52.7722 37.9954C53.1067 37.9682 53.4411 37.9863 53.7846 38.0315C53.8569 38.0406 53.884 38.122 53.8298 38.1581C53.7756 38.1853 53.7304 38.2214 53.6942 38.2666C54.0106 38.3028 54.336 38.3209 54.6523 38.3299C54.7156 38.3299 54.7879 38.3932 54.7337 38.4475C54.6885 38.4927 54.6343 38.5379 54.5891 38.5831C54.8874 38.6464 55.1856 38.6464 55.4749 38.5831C55.5472 38.565 55.6285 38.6373 55.5743 38.6916C55.5472 38.7187 55.511 38.7458 55.4839 38.773C55.6285 38.8001 55.7732 38.8272 55.9178 38.8544C56.1257 38.8724 56.3426 38.8724 56.5505 38.8453C56.6047 38.8363 56.6409 38.8996 56.6138 38.9357C56.5776 38.9719 56.5505 39.0081 56.5144 39.0442C56.8669 39.0261 57.2103 39.0081 57.5629 38.99C57.5809 38.9809 57.6171 38.9809 57.6533 38.99C57.6984 39.0081 57.6894 39.0623 57.6442 39.0623H57.6352C57.8702 39.1256 58.1956 39.0985 58.4396 39.1075C58.6023 39.1166 58.756 39.1256 58.9187 39.1346C58.9006 39.0894 58.8916 39.0894 58.8916 39.0804Z" fill="#8E39A1"/>
<path d="M58.2675 39.1532C58.1409 39.1532 58.0053 39.1442 57.8788 39.1442C57.7975 39.1442 57.698 39.1532 57.6167 39.1261C57.5624 39.108 57.5263 39.0718 57.5172 39.0357C57.1376 39.0628 56.767 39.0899 56.3874 39.1171C56.3332 39.1171 56.306 39.0718 56.3332 39.0357C56.3603 38.9995 56.3874 38.9633 56.4235 38.9272C56.2518 38.9362 56.0891 38.9362 55.9174 38.9181H55.9083C55.7727 38.9091 55.6281 38.891 55.4925 38.8639C55.5106 38.891 55.5197 38.9091 55.5468 38.9362C55.5829 38.9724 55.5468 39.0266 55.5016 39.0176C55.2756 38.9905 55.0496 38.9362 54.8417 38.8548C54.8689 38.9001 54.905 38.9453 54.9502 38.9814C55.0044 39.0176 54.9412 39.099 54.8869 39.0628C54.7333 38.9633 54.5525 38.9091 54.3717 38.9091C54.3988 38.9543 54.4259 38.9995 54.4802 39.0357C54.5254 39.0718 54.4892 39.1442 54.4259 39.1261C54.2181 39.0447 54.0102 39.0086 53.7842 39.0176C53.8203 39.0809 53.8655 39.1261 53.9378 39.1623C53.9921 39.1984 53.9378 39.2617 53.8836 39.2436C53.6938 39.1984 53.4949 39.1623 53.3051 39.1442C53.3322 39.1894 53.3684 39.2346 53.4136 39.2798C53.4407 39.3069 53.4136 39.3612 53.3684 39.3612C53.1424 39.325 52.9165 39.325 52.6905 39.3612C52.7266 39.4064 52.7718 39.4426 52.808 39.4878C52.8532 39.533 52.7809 39.5872 52.7357 39.5601C52.5911 39.4697 52.4103 39.4697 52.2657 39.542C52.2928 39.5691 52.3199 39.5963 52.356 39.6144C52.4012 39.6415 52.3741 39.7138 52.3199 39.7048C52.121 39.6596 51.9312 39.6686 51.7414 39.7319C51.7595 39.75 51.7775 39.7681 51.7956 39.7862C51.8227 39.8223 51.7956 39.8766 51.7504 39.8675C51.6239 39.8494 51.5064 39.8675 51.3889 39.9127C51.3979 39.9218 51.3979 39.9218 51.407 39.9308C51.425 39.9489 51.416 39.9941 51.3889 40.0032C51.1448 40.0755 50.9098 40.1659 50.6748 40.2473C53.3594 39.9399 56.0439 39.5692 58.7104 39.1532C58.5386 39.1532 58.4031 39.1532 58.2675 39.1532Z" fill="#8E39A1"/>
<path d="M58.8989 38.8811C58.7904 38.646 58.6819 38.4018 58.5735 38.1577C58.4921 37.9769 58.4108 37.787 58.3385 37.6062C58.2933 37.4977 58.2029 37.353 58.1938 37.2354C58.1848 37.145 58.221 37.0727 58.2752 37.0365C57.986 36.5302 57.6967 36.0238 57.3984 35.5175C57.3713 35.4723 57.3984 35.418 57.4346 35.3909C57.3623 35.2553 57.3532 35.0925 57.3442 35.0473C57.308 35.1106 57.2628 35.1649 57.2267 35.2281C57.1634 35.3186 57.0369 35.2553 57.0369 35.1649C57.0459 34.7851 56.9465 34.4234 56.7567 34.0889C56.7024 34.1703 56.6482 34.2516 56.594 34.333C56.5397 34.4144 56.4132 34.3692 56.3951 34.2878C56.2866 33.899 56.1511 33.5283 55.9974 33.1576C55.9432 33.2209 55.907 33.2932 55.8799 33.3746C55.8528 33.4559 55.7172 33.4559 55.681 33.3836C55.5003 32.9948 55.3737 32.5879 55.3104 32.172C55.2472 32.2624 55.211 32.3619 55.1839 32.4794C55.1658 32.606 54.9579 32.5879 54.967 32.4613C54.9941 32.1087 54.9218 31.7832 54.7319 31.4848C54.6687 31.5752 54.6325 31.6657 54.6054 31.7742C54.5873 31.8827 54.4065 31.9007 54.3975 31.7832C54.3433 31.3763 54.1896 31.0056 53.9456 30.662C53.8733 30.7796 53.8371 30.9061 53.8281 31.0508C53.819 31.1684 53.6473 31.1593 53.6202 31.0599C53.5117 30.7072 53.3761 30.3727 53.2044 30.0381C53.1411 30.1376 53.0959 30.237 53.0598 30.3455C53.0326 30.4269 52.8971 30.4269 52.8699 30.3546C52.7072 29.9477 52.4813 29.5951 52.1739 29.2786C52.1378 29.3871 52.1016 29.4866 52.0655 29.5951C52.0293 29.7036 51.8576 29.6584 51.8666 29.5499C51.8847 29.2334 51.713 28.9441 51.4237 28.7903C51.3966 28.8536 51.3785 28.926 51.3785 28.9983C51.3695 29.0887 51.2068 29.1249 51.1797 29.0254C51.0622 28.6638 50.8543 28.3744 50.5469 28.1393C50.5289 28.1845 50.5108 28.2298 50.4927 28.275C50.4656 28.3563 50.33 28.3654 50.2939 28.284C50.1944 28.067 50.0498 27.8952 49.8419 27.7686C49.8329 27.7867 49.8329 27.7957 49.8238 27.8138C49.8058 27.8681 49.7154 27.9042 49.6611 27.859C49.164 27.4522 48.6036 27.0995 48.1155 26.6836C50.9085 29.8482 53.7015 33.0219 56.4945 36.1866C57.308 37.0817 58.1035 37.9859 58.8989 38.8811Z" fill="#8E39A1"/>
<path d="M54.4359 35.997C54.3455 36.0241 54.2551 36.0603 54.1738 36.0874C54.2551 36.1597 54.3455 36.2321 54.4359 36.3044C54.4359 36.2501 54.454 36.1959 54.4811 36.1416C54.4992 36.1055 54.5625 36.0874 54.6076 36.1236C54.8517 36.2954 55.0867 36.4852 55.3036 36.6751C55.3036 36.6299 55.3036 36.5757 55.3036 36.5304C55.3036 36.4943 55.3669 36.4581 55.4121 36.4852C55.6833 36.6209 55.9093 36.8017 56.09 37.0187C56.09 37.0097 56.09 36.9916 56.09 36.9825C56.09 36.9373 56.1623 36.9192 56.2075 36.9464C56.5239 37.1363 56.8041 37.3533 57.0391 37.5974C57.0482 37.5522 57.0572 37.507 57.0572 37.4708C57.0662 37.4346 57.1295 37.4165 57.1657 37.4527C57.4007 37.7149 57.6447 37.9862 57.8888 38.2484C57.9249 38.2303 57.9701 38.2303 58.0244 38.2574C58.0967 38.2936 58.1599 38.3659 58.2142 38.4202C58.3046 38.5016 58.404 38.5829 58.4944 38.6643C58.5125 38.6824 58.5396 38.7005 58.5576 38.7186C55.7646 35.5539 52.9806 32.3893 50.1876 29.2246C49.4736 28.4199 48.7595 27.6061 48.0454 26.8014C48.3798 27.3168 48.642 27.8955 48.9674 28.4199C49.0035 28.4742 48.9493 28.5555 48.886 28.5555C48.8679 28.5555 48.8499 28.5555 48.8408 28.5646C48.9312 28.7816 49.0849 28.9534 49.2928 29.08C49.3741 29.1252 49.338 29.2427 49.2476 29.2608L49.0939 29.2789C49.2747 29.6044 49.5459 29.8576 49.8984 30.0294C49.9888 30.0746 49.9255 30.2192 49.8261 30.2102C49.7538 30.1921 49.6724 30.1921 49.6001 30.2102C49.7086 30.5086 49.9707 30.7165 50.3142 30.7617C50.4226 30.7798 50.4407 30.9426 50.3232 30.9516C50.2057 30.9607 50.0882 30.9787 49.9707 30.9878C50.2419 31.3314 50.5673 31.6117 50.965 31.8377C51.0373 31.8829 51.0102 32.0005 50.9198 32.0095C50.8023 32.0186 50.6848 32.0457 50.5763 32.0819C50.8927 32.2989 51.2181 32.4887 51.5615 32.6605C51.661 32.7057 51.6429 32.8685 51.5163 32.8504C51.3627 32.8323 51.2271 32.8414 51.0825 32.8866C51.3898 33.1759 51.7514 33.3839 52.1671 33.5195C52.2847 33.5557 52.2304 33.7184 52.122 33.7094C51.9954 33.7094 51.896 33.7275 51.7875 33.7636C52.0677 33.9897 52.3931 34.1253 52.7728 34.1705C52.9083 34.1886 52.8903 34.3785 52.7547 34.3694C52.6281 34.3604 52.5106 34.3785 52.4112 34.4237C52.836 34.5684 53.2337 34.7582 53.6043 35.0024C53.6766 35.0476 53.6495 35.1742 53.5591 35.1832C53.4597 35.1923 53.3874 35.2103 53.306 35.2465C53.6676 35.4545 54.0382 35.6534 54.4178 35.8252C54.5082 35.8433 54.5353 35.9608 54.4359 35.997Z" fill="#8E39A1"/>
<path d="M50.1143 40.3892C50.132 40.3892 50.1497 40.3892 50.1586 40.3892V40.3803C50.1408 40.3803 50.132 40.3892 50.1143 40.3892Z" fill="#8E39A1"/>
<path d="M58.4837 37.1567C58.4927 37.229 58.3842 37.2561 58.3481 37.1929L58.339 37.1838C58.3842 37.5545 58.6554 37.9885 58.8 38.3321C58.8633 38.4949 58.9266 38.6486 58.9898 38.8113C58.9898 37.3827 58.9898 35.9451 58.9898 34.5165C58.9898 29.4169 58.9898 24.3082 58.9989 19.2086C58.8994 19.9681 58.6735 20.7186 58.556 21.4781C58.5469 21.5595 58.4385 21.5956 58.3752 21.5504C58.3571 21.5414 58.3481 21.5324 58.33 21.5233C58.2396 21.7946 58.2486 22.0658 58.33 22.3552C58.3571 22.4546 58.2396 22.545 58.1582 22.4908C58.1131 22.4637 58.0588 22.4275 58.0136 22.4004C57.9232 22.8434 57.9684 23.2865 58.1311 23.7114C58.1763 23.829 58.0136 23.9104 57.9323 23.829C57.878 23.7566 57.8148 23.7024 57.7425 23.6572C57.6069 24.0189 57.6792 24.4167 57.9323 24.706C58.0136 24.8055 57.9052 24.9683 57.7877 24.8959C57.6792 24.8236 57.5617 24.7513 57.4532 24.6789C57.4261 25.2033 57.4984 25.7187 57.6702 26.216C57.7063 26.3155 57.5798 26.4059 57.4984 26.3517C57.3809 26.2703 57.2634 26.216 57.1459 26.1708C57.2544 26.6048 57.3899 27.0298 57.5707 27.4457C57.6159 27.5633 57.4803 27.7079 57.3809 27.5904C57.2634 27.4548 57.1369 27.3644 56.9832 27.3011C57.0284 27.8074 57.182 28.2685 57.4442 28.7025C57.5255 28.8291 57.3538 28.9376 57.2544 28.8563C57.1459 28.7658 57.0465 28.7025 56.9199 28.6664C56.9832 29.0913 57.173 29.4621 57.4623 29.7785C57.5707 29.8961 57.408 30.0588 57.2905 29.9503C57.182 29.8509 57.0736 29.7876 56.947 29.7514C57.2092 30.2035 57.408 30.6737 57.5436 31.18C57.5707 31.2795 57.4532 31.3789 57.3628 31.3247C57.2724 31.2614 57.182 31.2252 57.0917 31.2071C57.2453 31.6773 57.4171 32.1294 57.6159 32.5815C57.6611 32.6719 57.5888 32.8076 57.4803 32.7714C57.3719 32.7352 57.2634 32.69 57.1549 32.6538C57.2453 33.115 57.4351 33.5309 57.7334 33.8926C57.8057 33.9739 57.7425 34.1367 57.6159 34.0915C57.5346 34.0644 57.4532 34.0372 57.3809 34.0101C57.4713 34.5617 57.6973 35.0771 57.9865 35.5563C58.0317 35.6286 57.9594 35.719 57.878 35.7009C57.7967 35.6829 57.7153 35.6557 57.625 35.6377C57.8871 36.1078 58.1402 36.587 58.4113 37.0572C58.4565 37.0572 58.4837 37.0934 58.4837 37.1567Z" fill="#8E39A1"/>
<path d="M60.6173 35.0368C60.554 35.1724 60.4907 35.308 60.4184 35.4346C60.4998 35.4165 60.5721 35.3984 60.6534 35.3803C60.7257 35.3623 60.7981 35.4436 60.7529 35.516C60.4546 36.0223 60.1653 36.5287 59.8761 37.035C59.9303 37.0712 59.9665 37.1435 59.9574 37.2339C59.9484 37.3605 59.858 37.4961 59.8128 37.6046C59.7315 37.7855 59.6501 37.9754 59.5778 38.1562C59.4874 38.3642 59.397 38.5631 59.3066 38.771C60.084 37.894 60.8523 37.0169 61.6296 36.1399C64.4227 32.9752 67.2157 29.8106 70.0087 26.6369C69.5116 27.0709 68.9331 27.4326 68.4178 27.8485C68.3636 27.8937 68.2732 27.8575 68.2551 27.8033C68.2461 27.7852 68.2461 27.7761 68.2371 27.7581C68.0292 27.8846 67.8755 28.0564 67.7851 28.2734C67.749 28.3548 67.6224 28.3458 67.5863 28.2644C67.5682 28.2192 67.5501 28.174 67.532 28.1288C67.2247 28.3548 67.0168 28.6532 66.8993 29.0149C66.8722 29.1053 66.7095 29.0782 66.7005 28.9878C66.7005 28.9154 66.6914 28.8431 66.6553 28.7798C66.366 28.9335 66.1943 29.2138 66.2124 29.5393C66.2214 29.6478 66.0497 29.693 66.0135 29.5845C65.9773 29.476 65.9412 29.3766 65.905 29.2681C65.5977 29.5845 65.3717 29.9371 65.209 30.344C65.1819 30.4254 65.0463 30.4164 65.0192 30.335C64.9831 30.2265 64.9379 30.127 64.8746 30.0276C64.7119 30.3531 64.5763 30.6967 64.4588 31.0493C64.4317 31.1488 64.26 31.1668 64.2509 31.0403C64.2419 30.8956 64.2057 30.769 64.1334 30.6515C63.8894 30.986 63.7357 31.3567 63.6815 31.7726C63.6634 31.8902 63.4917 31.8721 63.4736 31.7636C63.4555 31.6461 63.4103 31.5556 63.347 31.4743C63.1572 31.7726 63.0849 32.1072 63.112 32.4508C63.1211 32.5774 62.9222 32.5955 62.8951 32.4689C62.877 32.3513 62.8318 32.2519 62.7685 32.1614C62.6962 32.5774 62.5787 32.9843 62.3979 33.3731C62.3618 33.4544 62.2262 33.4544 62.1991 33.364C62.172 33.2736 62.1358 33.2103 62.0816 33.147C61.9279 33.5177 61.8014 33.8975 61.6839 34.2772C61.6658 34.3586 61.5392 34.4038 61.485 34.3225C61.4308 34.2411 61.3765 34.1597 61.3223 34.0783C61.1325 34.4129 61.0331 34.7745 61.0421 35.1543C61.0421 35.2266 60.9608 35.2809 60.8975 35.2538C60.8794 35.2447 60.8613 35.2357 60.8523 35.2176C60.78 35.1181 60.6806 35.1272 60.6173 35.0368Z" fill="#8E39A1"/>
<path d="M59.3882 39.3254C59.5238 39.4068 59.6955 39.5424 59.8582 39.5786C59.8582 39.5786 59.8582 39.5786 59.8492 39.5786C59.8221 39.5605 59.8402 39.5153 59.8763 39.5243C59.9034 39.5333 59.9215 39.5424 59.9306 39.5605C60.1113 39.6961 60.3012 39.8317 60.491 39.9674C60.491 39.9312 60.4819 39.895 60.4819 39.8588C60.4819 39.8227 60.5271 39.8046 60.5542 39.8227C60.7441 39.9674 60.952 40.0939 61.1779 40.1572C61.1689 40.1211 61.1598 40.0849 61.1598 40.0578C61.1508 40.0035 61.2231 39.9854 61.2593 40.0216C61.3949 40.1663 61.5666 40.2657 61.7564 40.329C61.7474 40.2838 61.7383 40.2386 61.7293 40.1934C61.7203 40.1482 61.7835 40.1211 61.8197 40.1482C62.0005 40.2567 62.1903 40.3561 62.3801 40.4466C62.3801 40.4104 62.3711 40.3742 62.3439 40.329C62.3259 40.2929 62.3711 40.2476 62.4163 40.2657C62.6242 40.3561 62.814 40.4647 62.9947 40.6003C62.9857 40.546 62.9676 40.5008 62.9315 40.4466C62.8953 40.3923 62.9767 40.3381 63.0219 40.3833C63.1394 40.5189 63.284 40.6184 63.4648 40.6726C63.4557 40.6184 63.4377 40.5732 63.4015 40.5279C63.3744 40.4827 63.4286 40.4194 63.4828 40.4556C63.6546 40.5912 63.8444 40.6817 64.0613 40.7269C64.0433 40.6636 64.0161 40.6003 63.9619 40.546C63.9167 40.5008 63.989 40.4556 64.0342 40.4827C64.206 40.5822 64.3777 40.6636 64.5585 40.7269C64.5494 40.6726 64.5314 40.6184 64.5042 40.5732C64.4862 40.537 64.5314 40.4918 64.5766 40.5099C64.7844 40.6093 65.0014 40.6726 65.2274 40.6907C65.2002 40.6455 65.1822 40.5912 65.155 40.546C65.1279 40.4918 65.2093 40.4556 65.2454 40.5008C65.3539 40.6274 65.5256 40.6726 65.6883 40.6455C65.6793 40.6093 65.6522 40.5822 65.6251 40.5551C65.5889 40.5189 65.6431 40.4556 65.6883 40.4827C65.8601 40.5822 66.0499 40.6184 66.2487 40.6093C66.2397 40.5912 66.2307 40.5641 66.2216 40.546C66.2036 40.5099 66.2487 40.4647 66.2939 40.4827C66.4114 40.537 66.529 40.5551 66.6555 40.5279L66.6465 40.5099C66.6374 40.4827 66.6555 40.4466 66.6917 40.4466C66.9357 40.4466 67.1888 40.4194 67.4328 40.4104C64.7212 40.0939 62.0185 39.7323 59.325 39.3073C59.334 39.2983 59.3611 39.3073 59.3882 39.3254Z" fill="#8E39A1"/>
<path d="M71.5549 34.351C71.5911 34.3329 71.6273 34.3148 71.6634 34.2967C71.6273 34.3058 71.5821 34.3148 71.5369 34.3238C71.5459 34.3329 71.5549 34.3419 71.5549 34.351Z" fill="#8E39A1"/>
<path d="M62.5611 38.9455C62.5882 38.9183 62.5972 38.9002 62.6153 38.8731C62.2989 38.9274 61.9916 38.9455 61.6843 38.9364C61.7114 38.9726 61.7385 39.0088 61.7747 39.0449C61.8018 39.0811 61.7656 39.1263 61.7204 39.1263C61.3408 39.0992 60.9702 39.072 60.5906 39.0449C60.5815 39.0811 60.5454 39.1173 60.4911 39.1353C60.4098 39.1625 60.3104 39.1444 60.229 39.1534C60.1025 39.1534 59.9669 39.1625 59.8403 39.1625C59.7048 39.1625 59.5692 39.1715 59.4336 39.1715C62.1091 39.5965 64.7937 39.9581 67.4782 40.2656C67.2342 40.1842 66.9992 40.0938 66.7551 40.0214C66.7189 40.0124 66.7099 39.9672 66.737 39.9491C66.7461 39.9401 66.7461 39.9401 66.7551 39.931C66.6466 39.8768 66.5201 39.8677 66.3935 39.8858C66.3484 39.8949 66.3122 39.8406 66.3484 39.8044C66.3664 39.7864 66.3845 39.7683 66.4026 39.7502C66.2128 39.6869 66.023 39.6778 65.8241 39.7231C65.7699 39.7321 65.7427 39.6598 65.7879 39.6326C65.8241 39.6146 65.8512 39.5965 65.8783 39.5603C65.7337 39.488 65.5529 39.488 65.4083 39.5784C65.3631 39.6055 65.2998 39.5513 65.336 39.5061C65.3722 39.4608 65.4173 39.4247 65.4535 39.3795C65.2275 39.3343 65.0016 39.3343 64.7756 39.3795C64.7304 39.3885 64.7033 39.3343 64.7304 39.2981C64.7756 39.2529 64.8027 39.2077 64.8389 39.1625C64.64 39.1805 64.4502 39.2077 64.2604 39.2619C64.2061 39.271 64.1519 39.2077 64.2061 39.1805C64.2694 39.1353 64.3236 39.0901 64.3598 39.0359C64.1429 39.0268 63.9259 39.063 63.718 39.1444C63.6548 39.1715 63.6186 39.0901 63.6638 39.054C63.709 39.0178 63.7451 38.9726 63.7723 38.9274C63.5824 38.9274 63.4107 38.9816 63.257 39.0811C63.2028 39.1173 63.1395 39.0449 63.1938 38.9997C63.248 38.9635 63.2842 38.9183 63.3022 38.8731C63.0853 38.9545 62.8684 39.0088 62.6424 39.0359C62.5611 39.0268 62.5249 38.9726 62.5611 38.9455Z" fill="#8E39A1"/>
<path d="M58.9723 39.2515H58.9633C58.7102 40.3726 58.6108 41.4848 58.665 42.606C58.6921 43.1575 58.7463 43.7181 58.8187 44.2697C58.8548 44.55 58.9 44.8212 58.9452 45.1015C58.9633 45.192 58.9362 45.427 59.0537 45.4903C59.0989 45.5084 59.1712 45.5265 59.2344 45.5446C58.8006 43.4559 58.6469 41.3492 59.0446 39.2424C59.0265 39.2334 59.0265 39.2243 59.0175 39.2062C59.0265 39.2243 59.0085 39.2424 58.9723 39.2515Z" fill="#8E39A1"/>
<path d="M59.207 39.0789C59.198 39.0879 59.198 39.0879 59.189 39.097C59.3517 39.0879 59.5053 39.0789 59.668 39.0698C59.9121 39.0608 60.2375 39.097 60.4725 39.0246H60.4634C60.4183 39.0246 60.4092 38.9613 60.4544 38.9523C60.4906 38.9433 60.5267 38.9433 60.5448 38.9523C60.8883 38.9794 61.2408 38.9885 61.5933 39.0066C61.5572 38.9704 61.53 38.9342 61.4939 38.8981C61.4668 38.8619 61.5029 38.8076 61.5572 38.8076C61.9097 38.8438 62.2803 38.8257 62.6418 38.7443C62.6057 38.7082 62.5695 38.681 62.5334 38.6449C62.4791 38.5906 62.5605 38.5273 62.6328 38.5364C62.922 38.5997 63.2203 38.5997 63.5186 38.5364C63.4734 38.4912 63.4192 38.446 63.374 38.4007C63.3197 38.3555 63.3921 38.2922 63.4553 38.2832C63.7717 38.2742 64.0971 38.2561 64.4134 38.2199C64.3773 38.1747 64.3321 38.1476 64.2779 38.1114C64.2236 38.0843 64.2507 38.0029 64.3231 37.9848C64.6665 37.9396 65.001 37.9215 65.3354 37.9487C65.2812 37.8944 65.2179 37.8582 65.1275 37.8221C65.0371 37.7859 65.1004 37.6684 65.1908 37.6955C65.4529 37.7678 65.7241 37.7769 65.9953 37.7045C65.941 37.6503 65.8868 37.6141 65.8054 37.587C65.7331 37.5599 65.7602 37.4514 65.8506 37.4604C66.176 37.4875 66.4924 37.4604 66.8088 37.3609C66.7364 37.2976 66.6551 37.2615 66.5376 37.2253C66.4472 37.1982 66.5014 37.0987 66.5828 37.0987C66.872 37.0897 67.1703 37.0535 67.4596 37.0083C67.4053 36.9541 67.342 36.9179 67.2607 36.8727C67.2065 36.8455 67.2336 36.7642 67.3059 36.7551C67.6494 36.719 67.9748 36.6376 68.2911 36.502C68.2188 36.4658 68.1465 36.4296 68.0832 36.3844C68.0109 36.3482 68.0832 36.2488 68.1646 36.2669C68.4086 36.3302 68.6617 36.2669 68.8515 36.1132C68.8064 36.086 68.7612 36.0679 68.7069 36.0589C68.6346 36.0408 68.6527 35.9414 68.734 35.9323C69.0323 35.9142 69.3125 35.8329 69.5656 35.6882C69.5385 35.6701 69.5023 35.652 69.4752 35.6339C69.421 35.6068 69.4481 35.5254 69.5204 35.5164C69.7102 35.4893 69.882 35.426 70.0266 35.3265C70.0176 35.3175 70.0085 35.3175 69.9995 35.3084C69.9633 35.2904 69.9543 35.2271 69.9995 35.1999C70.4062 34.9739 70.7949 34.7117 71.2017 34.4856C69.2131 35.0372 67.3059 35.8509 65.3987 36.6014C63.3288 37.4604 61.2679 38.2742 59.207 39.0789Z" fill="#8E39A1"/>
<path d="M67.9304 40.3803C67.9304 40.3894 67.9304 40.3894 67.9304 40.3984C67.9485 40.3984 67.9666 40.3984 67.9847 40.3984C67.9666 40.3894 67.9485 40.3803 67.9304 40.3803Z" fill="#8E39A1"/>
<path d="M64.306 36.094C64.3421 36.0127 64.3602 35.9494 64.3512 35.877C64.1342 36.1121 63.8902 36.3201 63.619 36.51C63.5648 36.5461 63.4744 36.51 63.4925 36.4557C63.5105 36.3924 63.5105 36.3472 63.5015 36.2929C63.2484 36.4738 63.0134 36.6727 62.7874 36.8716C62.7422 36.9168 62.6428 36.9078 62.6428 36.8445C62.6428 36.7812 62.6428 36.7179 62.6428 36.6546C62.3807 36.8083 62.1728 36.9982 62.0282 37.2333C61.992 37.2876 61.8835 37.2966 61.8745 37.2243C61.8745 37.1791 61.8745 37.1338 61.8745 37.0886C61.5581 37.2604 61.296 37.4955 61.07 37.7487C61.0339 37.7849 60.9616 37.7758 60.9525 37.7306C60.9435 37.6854 60.9435 37.6402 60.9345 37.595C60.7085 37.8391 60.4825 38.0742 60.2565 38.3183C60.2475 38.3364 60.2294 38.3635 60.1933 38.3816C60.1481 38.3997 60.1119 38.3545 60.139 38.3274C60.139 38.3274 60.139 38.3274 60.1481 38.3183C59.9311 38.4268 59.7323 38.6529 59.5605 38.8066C61.531 38.029 63.4925 37.2604 65.4629 36.4828C67.1532 35.8228 68.8254 35.1085 70.5699 34.575C70.2988 34.6292 70.0185 34.6745 69.7564 34.7378C69.7022 34.7468 69.657 34.7106 69.666 34.6654C69.666 34.6564 69.6751 34.6473 69.6751 34.6383C69.4853 34.6564 69.3226 34.7197 69.1689 34.8282C69.1147 34.8643 69.0333 34.8282 69.0423 34.7739C69.0514 34.7468 69.0604 34.7106 69.0604 34.6835C68.7712 34.7468 68.5091 34.8643 68.2921 35.0542C68.2379 35.0994 68.1385 35.0452 68.1746 34.9819C68.2017 34.9367 68.2288 34.8915 68.2288 34.8463C67.9758 34.8643 67.7498 34.9909 67.6323 35.1898C67.5961 35.2531 67.4696 35.2351 67.4877 35.1627C67.5057 35.0904 67.5238 35.018 67.5419 34.9457C67.2165 35.0542 66.9182 35.2079 66.6561 35.4159C66.6018 35.4521 66.5205 35.4159 66.5386 35.3616C66.5567 35.2893 66.5657 35.217 66.5657 35.1446C66.3216 35.2983 66.0957 35.4701 65.8878 35.651C65.8245 35.7052 65.707 35.6691 65.7522 35.5967C65.8064 35.5063 65.8335 35.4249 65.8335 35.3345C65.5353 35.4701 65.2912 35.66 65.0833 35.8951C65.02 35.9674 64.9206 35.9041 64.9477 35.8318C64.9839 35.7595 64.9929 35.6871 64.9839 35.6239C64.7398 35.7595 64.5591 35.9313 64.4325 36.1573C64.4054 36.2116 64.2698 36.1754 64.306 36.094Z" fill="#8E39A1"/>
<path d="M59.5789 38.6643C59.5879 38.6553 59.5879 38.6553 59.5969 38.6462C59.6873 38.5649 59.7868 38.4835 59.8771 38.4021C59.9314 38.3569 59.9946 38.2755 60.067 38.2394C60.1212 38.2122 60.1754 38.2213 60.2025 38.2303C60.4466 37.9681 60.6816 37.7059 60.9257 37.4346C60.9618 37.3985 61.0251 37.4165 61.0341 37.4527C61.0432 37.4979 61.0522 37.5431 61.0522 37.5793C61.2872 37.3261 61.5765 37.1182 61.8838 36.9283C61.929 36.9012 62.0013 36.9192 62.0013 36.9645C62.0013 36.9735 62.0013 36.9916 62.0013 37.0006C62.1821 36.7836 62.399 36.6118 62.6792 36.4672C62.7244 36.44 62.7877 36.4762 62.7877 36.5124C62.7877 36.5576 62.7877 36.6118 62.7877 36.657C63.0136 36.4672 63.2396 36.2773 63.4837 36.1055C63.5289 36.0784 63.5921 36.0874 63.6102 36.1236C63.6373 36.1778 63.6464 36.2321 63.6554 36.2863C63.7458 36.214 63.8362 36.1416 63.9175 36.0693C63.8271 36.0422 63.7368 36.006 63.6554 35.9789C63.556 35.9427 63.5831 35.8252 63.6644 35.789C64.0441 35.6172 64.4147 35.4183 64.7762 35.2103C64.7039 35.1742 64.6226 35.1561 64.5231 35.147C64.4237 35.138 64.4056 35.0114 64.4779 34.9662C64.8485 34.7221 65.2462 34.5322 65.6711 34.3875C65.5626 34.3423 65.4541 34.3333 65.3276 34.3333C65.192 34.3423 65.1649 34.1524 65.3095 34.1344C65.6801 34.0982 66.0146 33.9626 66.2948 33.7275C66.1953 33.6913 66.0869 33.6732 65.9603 33.6732C65.8428 33.6732 65.7886 33.5195 65.9151 33.4833C66.3309 33.3568 66.6925 33.1397 66.9998 32.8504C66.8642 32.8052 66.7286 32.7962 66.5659 32.8142C66.4394 32.8323 66.4213 32.6696 66.5207 32.6244C66.8642 32.4526 67.1986 32.2627 67.506 32.0457C67.3975 32.0095 67.28 31.9824 67.1625 31.9733C67.0721 31.9643 67.045 31.8468 67.1173 31.8016C67.506 31.5755 67.8404 31.2952 68.1116 30.9516C67.9941 30.9426 67.8766 30.9245 67.7591 30.9155C67.6416 30.9064 67.6506 30.7437 67.7681 30.7256C68.1116 30.6804 68.3737 30.4724 68.4822 30.174C68.4099 30.1559 68.3285 30.1559 68.2562 30.174C68.1568 30.1921 68.0935 30.0474 68.1839 29.9932C68.5364 29.8123 68.8076 29.5682 68.9884 29.2427L68.8347 29.2246C68.7443 29.2156 68.7172 29.089 68.7895 29.0438C69.0064 28.9082 69.1511 28.7454 69.2414 28.5284C69.2234 28.5284 69.2053 28.5284 69.1962 28.5194C69.133 28.5103 69.0787 28.438 69.1149 28.3837C69.4313 27.8683 69.6843 27.3168 70.0097 26.8014C69.3228 27.588 68.6268 28.3656 67.9398 29.1523C65.1559 32.335 62.3719 35.4997 59.5789 38.6643Z" fill="#8E39A1"/>
<path d="M59.8039 37.179L59.7948 37.1881C59.7587 37.2514 59.6502 37.2242 59.6593 37.1519C59.6593 37.0886 59.6864 37.0524 59.7225 37.0253C59.9937 36.5551 60.2468 36.085 60.5089 35.6057C60.4276 35.6238 60.3462 35.6509 60.2558 35.669C60.1745 35.6871 60.1022 35.5967 60.1474 35.5244C60.4366 35.0542 60.6535 34.5298 60.753 33.9782C60.6716 34.0053 60.5903 34.0325 60.518 34.0596C60.4005 34.1048 60.3372 33.942 60.4005 33.8607C60.6987 33.499 60.8886 33.0831 60.9789 32.6219C60.8705 32.6581 60.762 32.7033 60.6535 32.7395C60.5451 32.7756 60.4728 32.64 60.518 32.5496C60.7168 32.0975 60.8886 31.6454 61.0422 31.1752C60.9518 31.1933 60.8614 31.2385 60.771 31.2928C60.6807 31.3561 60.5632 31.2566 60.5903 31.1481C60.7349 30.6418 60.9337 30.1625 61.1868 29.7195C61.0603 29.7557 60.9518 29.8189 60.8434 29.9184C60.7259 30.0269 60.5632 29.8551 60.6716 29.7466C60.9699 29.4301 61.1507 29.0594 61.214 28.6345C61.0964 28.6706 60.988 28.7339 60.8795 28.8243C60.7801 28.9148 60.6174 28.7972 60.6897 28.6706C60.9518 28.2366 61.1055 27.7755 61.1507 27.2691C60.997 27.3324 60.8705 27.4229 60.753 27.5585C60.6535 27.667 60.518 27.5314 60.5632 27.4138C60.7349 26.9979 60.8795 26.5729 60.988 26.1389C60.8614 26.1841 60.7439 26.2474 60.6355 26.3197C60.5541 26.374 60.4366 26.2836 60.4637 26.1841C60.6355 25.6778 60.7078 25.1714 60.6807 24.647C60.5722 24.7193 60.4637 24.7917 60.3462 24.864C60.2287 24.9363 60.1202 24.7736 60.2016 24.6741C60.4637 24.3758 60.527 23.987 60.3914 23.6253C60.3191 23.6614 60.2468 23.7247 60.2016 23.7971C60.1293 23.8784 59.9575 23.7971 60.0027 23.6795C60.1745 23.2455 60.2197 22.8115 60.1202 22.3685C60.0751 22.3956 60.0208 22.4318 59.9756 22.4589C59.8852 22.5131 59.7677 22.4227 59.8039 22.3232C59.8852 22.043 59.8943 21.7717 59.8039 21.4914C59.7858 21.5004 59.7768 21.5095 59.7587 21.5185C59.6954 21.5547 59.596 21.5276 59.5779 21.4462C59.4604 20.7048 59.2525 19.9724 59.144 19.2309C59.144 20.5058 59.144 21.7717 59.144 23.0466C59.144 28.2999 59.144 33.5532 59.135 38.8066C59.1983 38.6438 59.2706 38.472 59.3339 38.3092C59.4875 37.9837 59.7587 37.5497 59.8039 37.179Z" fill="#8E39A1"/>
<path d="M71.9704 34.1793C71.9975 34.1613 71.9794 34.1251 71.9433 34.1341C71.7986 34.1793 71.654 34.2336 71.5004 34.2607C71.428 34.2788 71.3467 34.2788 71.2744 34.2969C70.7953 34.333 70.3072 34.4596 69.8462 34.5681V34.5591C69.8553 34.5229 69.8191 34.4868 69.783 34.4868C69.5841 34.4958 69.4033 34.541 69.2316 34.6224L69.2406 34.5953C69.2497 34.5501 69.2045 34.5139 69.1593 34.5229C68.8791 34.5681 68.6169 34.6586 68.391 34.8032C68.391 34.7851 68.391 34.7761 68.391 34.758C68.391 34.7309 68.3548 34.7038 68.3277 34.7038C68.0927 34.7038 67.8848 34.7761 67.7131 34.9027C67.7221 34.8846 67.7221 34.8575 67.7311 34.8394C67.7492 34.7851 67.6769 34.758 67.6227 34.7761C67.2882 34.8756 66.9899 35.0112 66.7188 35.2011C66.7278 35.1378 66.7278 35.0654 66.7188 34.9931C66.7097 34.9479 66.6465 34.9298 66.5922 34.9569C66.3843 35.0926 66.1764 35.2282 65.9866 35.3819C65.9957 35.3186 65.9957 35.2644 65.9866 35.2011C65.9776 35.1649 65.9324 35.1287 65.8782 35.1559C65.598 35.2734 65.3629 35.4271 65.1551 35.608C65.1551 35.5718 65.146 35.5266 65.137 35.4904C65.1279 35.4542 65.0827 35.4181 65.0285 35.4452C64.8206 35.5447 64.6398 35.6712 64.4952 35.825C64.4862 35.7797 64.4771 35.7345 64.4591 35.6984C64.45 35.6803 64.441 35.6712 64.4229 35.6712C64.6308 35.5627 64.8387 35.4452 65.0375 35.3277C65.1008 35.2915 65.1008 35.2101 65.0466 35.1649C64.9652 35.1016 64.8929 35.0654 64.8116 35.0293C65.1731 34.8213 65.5618 34.6495 65.9686 34.532C66.0409 34.5139 66.0589 34.4054 65.9957 34.3602C65.9324 34.315 65.8691 34.2788 65.8059 34.2517C66.0861 34.1522 66.3391 33.9985 66.5561 33.7905C66.6103 33.7363 66.5742 33.664 66.5199 33.6368C66.4567 33.6007 66.4024 33.5826 66.3391 33.5554C66.6917 33.4017 66.999 33.1757 67.2611 32.9044C67.3063 32.8502 67.2792 32.7779 67.225 32.7507C67.1346 32.7055 67.0351 32.6784 66.9448 32.6603C67.234 32.5066 67.5142 32.3258 67.7763 32.1359C67.8396 32.0907 67.8306 32.0002 67.7583 31.9731C67.6588 31.9279 67.5504 31.8917 67.4509 31.8646C67.8125 31.6205 68.1288 31.3312 68.3729 30.9785C68.4181 30.9243 68.391 30.8338 68.3096 30.8248C68.2735 30.8248 68.2464 30.8158 68.2102 30.8158C68.4542 30.6711 68.626 30.4451 68.7073 30.1648C68.7164 30.1286 68.6893 30.0743 68.6441 30.0653C68.6169 30.0563 68.5898 30.0472 68.5718 30.0472C68.87 29.8483 69.087 29.577 69.2406 29.2515C69.2677 29.1973 69.2316 29.1249 69.1593 29.1159C69.1412 29.1159 69.1231 29.1159 69.1141 29.1069C69.2949 28.9441 69.4214 28.7452 69.4937 28.5101C69.5118 28.4558 69.4576 28.4016 69.4033 28.3925C69.3943 28.3925 69.3943 28.3925 69.3853 28.3925C69.7107 27.8862 70.0541 27.3437 70.253 26.7831C70.2982 26.7017 70.3253 26.6113 70.3705 26.5299C70.4609 26.3581 70.5874 26.2135 70.6959 26.0597C70.723 26.0236 70.6778 25.9874 70.6417 26.0145C70.6597 25.9784 70.6145 25.9422 70.5784 25.9693C70.4338 26.105 70.3072 26.2406 70.1445 26.3581C70.0632 26.4124 69.9818 26.4666 69.9005 26.5209C69.3491 26.8102 68.852 27.2352 68.3819 27.633C68.3819 27.624 68.3819 27.624 68.3729 27.6149C68.3548 27.5697 68.2825 27.5336 68.2373 27.5517C68.0023 27.6692 67.8125 27.8139 67.6769 28.0128C67.6679 27.9947 67.6679 27.9857 67.6588 27.9676C67.6317 27.9043 67.5504 27.8862 67.4961 27.9224C67.1888 28.1213 66.9448 28.3835 66.7911 28.6909C66.7821 28.6728 66.764 28.6457 66.7549 28.6276C66.7369 28.5915 66.6736 28.5734 66.6374 28.5915C66.3572 28.709 66.1584 28.917 66.0499 29.1701C66.0409 29.143 66.0318 29.1069 66.0228 29.0797C65.9957 29.0074 65.8962 29.0074 65.842 29.0526C65.5166 29.351 65.2726 29.6946 65.0918 30.0743C65.0466 29.9839 64.9924 29.8935 64.92 29.8121C64.8748 29.7488 64.7754 29.7669 64.7393 29.8302C64.5856 30.1105 64.4591 30.3998 64.3506 30.6982C64.3144 30.6168 64.2602 30.5355 64.1969 30.4541C64.1608 30.4089 64.0704 30.3908 64.0252 30.4451C63.7811 30.7434 63.6094 31.0689 63.519 31.4125C63.4829 31.3583 63.4467 31.3131 63.4015 31.2679C63.3563 31.2226 63.275 31.2046 63.2298 31.2588C63.049 31.5029 62.9405 31.7561 62.8953 32.0364C62.8501 31.9822 62.8049 31.9279 62.7417 31.8827C62.6784 31.8375 62.579 31.8737 62.5699 31.946C62.5247 32.3438 62.4253 32.7326 62.2716 33.1034C62.2264 33.031 62.1632 32.9768 62.0818 32.9135C62.0276 32.8683 61.9372 32.8864 61.9101 32.9496C61.7564 33.3023 61.6299 33.664 61.5124 34.0347C61.4672 33.9714 61.431 33.9081 61.3858 33.8448C61.3497 33.7905 61.2502 33.7815 61.2141 33.8357C60.9972 34.1613 60.8706 34.5139 60.8254 34.8846C60.7712 34.8575 60.726 34.8394 60.6718 34.8123C60.7893 34.5048 60.8797 34.1884 60.952 33.8629C60.97 33.7815 60.8977 33.7001 60.8164 33.7272C60.7983 33.7363 60.7712 33.7453 60.7531 33.7453C61.0062 33.3565 61.1599 32.9316 61.2141 32.4614C61.2231 32.38 61.1237 32.3167 61.0604 32.3348C60.9791 32.3619 60.8887 32.3981 60.8073 32.4252C60.9881 31.9912 61.1508 31.5482 61.2954 31.0961C61.3226 31.0147 61.2502 30.9333 61.1779 30.9333C61.0695 30.9333 60.961 30.9514 60.8706 30.9785C61.0243 30.5083 61.2322 30.0653 61.4943 29.6494C61.5395 29.568 61.4762 29.4595 61.3858 29.4595C61.2954 29.4595 61.2141 29.4776 61.1418 29.4957C61.3135 29.1973 61.4129 28.8627 61.4401 28.5101C61.4491 28.4197 61.3587 28.3835 61.2864 28.3925C61.2051 28.4016 61.1418 28.4197 61.0695 28.4468C61.2502 28.0399 61.3497 27.6059 61.3678 27.1448C61.3678 27.0634 61.2864 27.0091 61.2141 27.0272C61.0966 27.0544 60.9972 27.0905 60.8977 27.1448C61.0243 26.7831 61.1418 26.4124 61.2231 26.0326C61.2412 25.9422 61.1689 25.8608 61.0785 25.888C60.952 25.9241 60.8435 25.9603 60.726 26.0145C60.8616 25.5172 60.9068 25.0019 60.8525 24.4774C60.8435 24.396 60.7621 24.3237 60.6808 24.378C60.6446 24.396 60.6175 24.4232 60.5814 24.4413C60.6808 24.1248 60.6627 23.7812 60.5181 23.4557C60.5 23.4105 60.4277 23.3834 60.3916 23.4014C60.3644 23.4105 60.3373 23.4286 60.3102 23.4376C60.4096 23.0217 60.4006 22.6058 60.2831 22.1808C60.265 22.1085 60.1746 22.0632 60.1113 22.1085C60.0933 22.1175 60.0842 22.1265 60.0662 22.1356C60.1023 21.8462 60.0571 21.5659 59.9396 21.2856C59.9125 21.2224 59.8221 21.2133 59.7769 21.2404C59.7679 21.2404 59.7679 21.2495 59.7588 21.2495C59.6504 20.5261 59.5419 19.7576 59.2888 19.0794C59.2617 18.9709 59.2255 18.8534 59.1984 18.7449C59.1532 18.5188 59.1442 18.2838 59.1261 18.0487C59.1261 17.9944 59.0538 17.9944 59.0357 18.0396C59.0267 17.9854 58.9544 17.9854 58.9453 18.0487C58.9273 18.2838 58.9182 18.5098 58.873 18.7449C58.8459 18.8624 58.8097 18.9709 58.7826 19.0794C58.5295 19.7666 58.4211 20.5261 58.3126 21.2495C58.3036 21.2495 58.3036 21.2404 58.2945 21.2404C58.2403 21.2043 58.1589 21.2224 58.1318 21.2856C58.0143 21.5659 57.9691 21.8462 58.0053 22.1356C57.9872 22.1265 57.9782 22.1175 57.9601 22.1085C57.8968 22.0632 57.8064 22.1085 57.7884 22.1808C57.6708 22.6058 57.6618 23.0217 57.7612 23.4376C57.7341 23.4286 57.707 23.4105 57.6799 23.4014C57.6347 23.3834 57.5714 23.4105 57.5533 23.4557C57.3997 23.7812 57.3816 24.1248 57.4901 24.4413C57.4539 24.4232 57.4268 24.396 57.3906 24.378C57.3093 24.3237 57.2189 24.396 57.2189 24.4774C57.1647 25.0019 57.2099 25.5082 57.3454 26.0145C57.237 25.9603 57.1195 25.9241 56.9929 25.888C56.9025 25.8608 56.8302 25.9422 56.8483 26.0326C56.9297 26.4124 57.0381 26.7831 57.1737 27.1448C57.0743 27.0905 56.9748 27.0544 56.8573 27.0272C56.785 27.0091 56.7037 27.0634 56.7037 27.1448C56.7218 27.6059 56.8212 28.0399 57.002 28.4468C56.9387 28.4197 56.8664 28.4016 56.785 28.3925C56.7127 28.3835 56.6223 28.4197 56.6314 28.5101C56.6585 28.8718 56.7579 29.1973 56.9297 29.4957C56.8483 29.4776 56.767 29.4595 56.6856 29.4595C56.5952 29.4595 56.5319 29.568 56.5771 29.6494C56.8393 30.0653 57.0472 30.5083 57.2008 30.9785C57.1014 30.9514 57.002 30.9333 56.8935 30.9333C56.8122 30.9333 56.7489 31.0147 56.776 31.0961C56.9116 31.5482 57.0743 31.9912 57.2641 32.4252C57.1827 32.3981 57.0924 32.3619 57.011 32.3348C56.9387 32.3077 56.8393 32.38 56.8573 32.4614C56.9116 32.9316 57.0743 33.3656 57.3183 33.7453C57.3003 33.7363 57.2731 33.7272 57.2551 33.7272C57.1737 33.7001 57.1014 33.7815 57.1195 33.8629C57.237 34.4144 57.4087 34.9298 57.6708 35.4181C57.6618 35.4 57.6528 35.3819 57.6347 35.3548C57.481 35.0654 57.463 34.9841 57.3906 34.8484C57.3545 34.7851 57.2641 34.7761 57.2189 34.8304C57.2099 34.8484 57.1918 34.8665 57.1827 34.8756C57.1466 34.5048 57.011 34.1522 56.7941 33.8267C56.7579 33.7725 56.6495 33.7815 56.6223 33.8357C56.5771 33.899 56.541 33.9623 56.4958 34.0256C56.3783 33.6549 56.2517 33.2932 56.0981 32.9406C56.071 32.8773 55.9806 32.8592 55.9263 32.9044C55.845 32.9677 55.7908 33.022 55.7365 33.0943C55.5829 32.7236 55.4834 32.3348 55.4382 31.937C55.4292 31.8646 55.3207 31.8285 55.2665 31.8737C55.2123 31.9189 55.158 31.9731 55.1128 32.0274C55.0676 31.7561 54.9501 31.4939 54.7784 31.2498C54.7332 31.1865 54.6519 31.2136 54.6067 31.2588C54.5615 31.304 54.5253 31.3583 54.4892 31.4035C54.3897 31.0509 54.218 30.7253 53.983 30.436C53.9378 30.3818 53.8564 30.3908 53.8112 30.4451C53.748 30.5174 53.7028 30.5988 53.6576 30.6892C53.5491 30.3908 53.4226 30.1015 53.2689 29.8212C53.2327 29.7579 53.1424 29.7398 53.0881 29.8031C53.0249 29.8845 52.9616 29.9749 52.9164 30.0653C52.7356 29.6855 52.4825 29.3419 52.1662 29.0436C52.1119 28.9984 52.0125 28.9984 51.9854 29.0707C51.9763 29.0978 51.9673 29.134 51.9583 29.1611C51.8588 28.9079 51.6509 28.709 51.3707 28.5824C51.3346 28.5643 51.2713 28.5824 51.2532 28.6186C51.2442 28.6367 51.2261 28.6638 51.2171 28.6819C51.0634 28.3745 50.8194 28.1123 50.512 27.9133C50.4578 27.8772 50.3765 27.8952 50.3493 27.9585C50.3403 27.9766 50.3403 27.9857 50.3313 28.0037C50.1957 27.8048 50.0149 27.6511 49.7708 27.5426C49.7166 27.5155 49.6533 27.5517 49.6353 27.6059C49.6353 27.6149 49.6353 27.6149 49.6262 27.624C49.1562 27.2352 48.6591 26.8102 48.1077 26.5118C48.0263 26.4576 47.945 26.4124 47.8636 26.3491C47.7009 26.2315 47.5744 26.0959 47.4298 25.9603C47.3936 25.9241 47.3484 25.9693 47.3665 26.0055C47.3303 25.9784 47.2852 26.0145 47.3123 26.0507C47.4298 26.2044 47.5473 26.3491 47.6377 26.5209C47.6829 26.6023 47.719 26.6927 47.7552 26.7741C47.954 27.3347 48.3065 27.8681 48.6229 28.3835C48.6139 28.3835 48.6139 28.3835 48.6048 28.3835C48.5506 28.3925 48.4964 28.4468 48.5144 28.5011C48.5868 28.7452 48.7133 28.9351 48.8941 29.0978C48.876 29.0978 48.8579 29.0978 48.8489 29.1069C48.7766 29.1159 48.7404 29.1882 48.7675 29.2425C48.9212 29.568 49.1472 29.8302 49.4364 30.0382C49.4093 30.0472 49.3912 30.0472 49.3641 30.0563C49.3279 30.0653 49.2918 30.1195 49.3008 30.1557C49.3731 30.436 49.5539 30.6621 49.798 30.8067C49.7618 30.8067 49.7347 30.8158 49.6985 30.8158C49.6172 30.8248 49.5901 30.9152 49.6353 30.9695C49.8884 31.3221 50.1957 31.6205 50.5572 31.8556C50.4488 31.8827 50.3493 31.9189 50.2499 31.9641C50.1776 32.0003 50.1686 32.0816 50.2318 32.1268C50.503 32.3167 50.7742 32.4976 51.0634 32.6513C50.964 32.6693 50.8736 32.6965 50.7832 32.7417C50.7199 32.7688 50.6928 32.8411 50.7471 32.8954C51.0092 33.1757 51.3165 33.3927 51.669 33.5464C51.6057 33.5645 51.5515 33.5916 51.4882 33.6278C51.434 33.6549 51.3979 33.7272 51.4521 33.7815C51.669 33.9895 51.9221 34.1432 52.2023 34.2426C52.139 34.2698 52.0758 34.3059 52.0125 34.3511C51.9492 34.3963 51.9673 34.4958 52.0396 34.5229C52.4464 34.6405 52.835 34.8123 53.1966 35.0202C53.1152 35.0564 53.0339 35.0926 52.9616 35.1559C52.9073 35.192 52.9073 35.2824 52.9706 35.3186C53.1695 35.4362 53.3774 35.5537 53.5853 35.6622C53.5672 35.6712 53.5581 35.6803 53.5491 35.6893C53.531 35.7345 53.522 35.7797 53.513 35.8159C53.3683 35.6622 53.1876 35.5356 52.9797 35.4362C52.9254 35.409 52.8802 35.4452 52.8712 35.4814C52.8622 35.5266 52.8531 35.5627 52.8531 35.5989C52.6452 35.409 52.4012 35.2553 52.13 35.1468C52.0848 35.1287 52.0306 35.1559 52.0215 35.192C52.0125 35.2553 52.0125 35.3186 52.0215 35.3729C51.8317 35.2192 51.6329 35.0835 51.4159 34.9479C51.3707 34.9208 51.2984 34.9389 51.2894 34.9841C51.2803 35.0564 51.2803 35.1197 51.2894 35.192C51.0182 35.0112 50.7199 34.8665 50.3855 34.7671C50.3313 34.749 50.268 34.7761 50.277 34.8304C50.2861 34.8484 50.2861 34.8756 50.2951 34.8936C50.1234 34.7671 49.9155 34.6947 49.6805 34.6947C49.6533 34.6947 49.6172 34.7218 49.6172 34.749C49.6172 34.7671 49.6172 34.7851 49.6172 34.7942C49.3912 34.6495 49.1291 34.5501 48.8489 34.5139C48.7946 34.5048 48.7495 34.541 48.7675 34.5862L48.7766 34.6133C48.6048 34.532 48.4241 34.4868 48.2252 34.4777C48.18 34.4777 48.1529 34.5139 48.1619 34.5501V34.5591C47.7009 34.4416 47.2038 34.315 46.7338 34.2878C46.6615 34.2788 46.5801 34.2698 46.5078 34.2517C46.3541 34.2245 46.2186 34.1703 46.0649 34.1251C46.0287 34.116 46.0107 34.1522 46.0378 34.1703C46.0016 34.1613 45.9836 34.1974 46.0197 34.2155C46.1553 34.2788 46.2999 34.333 46.4265 34.4144C46.4897 34.4506 46.553 34.4958 46.6163 34.541C46.9688 34.8304 47.4117 35.0564 47.8275 35.2824C47.8275 35.2824 47.8184 35.2824 47.8184 35.2915C47.7913 35.3096 47.7733 35.3548 47.8094 35.3819C47.954 35.5085 48.1167 35.5989 48.2975 35.6441C48.2885 35.6532 48.2794 35.6532 48.2704 35.6622C48.2252 35.6893 48.2342 35.7345 48.2704 35.7707C48.4964 35.9244 48.7585 36.0329 49.0297 36.0781C49.0206 36.0872 49.0025 36.0962 48.9935 36.1143C48.9754 36.1324 48.9754 36.1685 48.9935 36.1957C49.1562 36.3494 49.3641 36.4398 49.572 36.4579C49.5539 36.4669 49.5268 36.476 49.5087 36.4941C49.4545 36.5212 49.4816 36.5845 49.5268 36.6026C49.8341 36.7472 50.1505 36.8467 50.4849 36.9009C50.4307 36.9461 50.3765 36.9914 50.3222 37.0456C50.2861 37.0818 50.3222 37.136 50.3765 37.1541C50.6295 37.1993 50.8826 37.2355 51.1357 37.2536C51.0815 37.2897 51.0363 37.3349 50.9911 37.3802C50.964 37.4163 50.973 37.4615 51.0273 37.4796C51.3075 37.5791 51.5967 37.6333 51.895 37.6333C51.8679 37.6605 51.8408 37.6966 51.8136 37.7237C51.7865 37.7599 51.7956 37.8142 51.8498 37.8232C52.0758 37.8955 52.3017 37.9227 52.5187 37.9046C52.4916 37.9408 52.4644 37.9769 52.4373 38.0221C52.4102 38.0673 52.4644 38.1216 52.5277 38.1216C52.8441 38.0854 53.1604 38.0854 53.4858 38.1216C53.4406 38.1578 53.4135 38.212 53.3864 38.2663C53.3683 38.3024 53.4045 38.3567 53.4587 38.3657C53.766 38.4019 54.0734 38.429 54.3807 38.4381C54.3445 38.4742 54.3084 38.5104 54.2632 38.5466C54.227 38.5737 54.2541 38.637 54.2993 38.6551C54.5976 38.7364 54.8959 38.7636 55.1942 38.7274C55.1851 38.7364 55.1761 38.7455 55.1671 38.7545C55.1309 38.7907 55.1671 38.8449 55.2213 38.854C55.2303 38.854 55.2484 38.854 55.2575 38.863C55.2665 38.8811 55.2755 38.8992 55.2846 38.9173C55.0676 38.8811 54.8688 38.8269 54.6609 38.7364C54.6247 38.7183 54.5795 38.7545 54.5886 38.7907C54.5976 38.8269 54.6067 38.854 54.6247 38.8901C54.4801 38.8359 54.3355 38.8178 54.1728 38.8269C54.1366 38.8269 54.1186 38.8721 54.1276 38.8992C54.1366 38.9263 54.1547 38.9534 54.1638 38.9806C53.9739 38.9263 53.7751 38.9173 53.5762 38.9354C53.5401 38.9354 53.522 38.9715 53.5401 39.0077C53.5581 39.0529 53.5853 39.0891 53.6124 39.1252C53.4497 39.0891 53.2779 39.071 53.1062 39.0619C53.07 39.0619 53.0339 39.0981 53.052 39.1252C53.0791 39.1704 53.0972 39.2157 53.1333 39.2609C52.9073 39.2337 52.6814 39.2518 52.4644 39.297C52.4283 39.3061 52.4012 39.3422 52.4283 39.3784C52.4373 39.3874 52.4554 39.4055 52.4644 39.4146C52.3198 39.3874 52.1752 39.4236 52.0396 39.4959C52.0215 39.505 52.0125 39.5321 52.0215 39.5502C52.0306 39.5592 52.0396 39.5683 52.0396 39.5773C51.8498 39.5592 51.669 39.5864 51.4973 39.6587C51.4702 39.6677 51.4521 39.713 51.4792 39.731C51.4882 39.7401 51.4882 39.7401 51.4973 39.7491C51.3707 39.7491 51.2532 39.7853 51.1357 39.8486C51.1086 39.8667 51.1086 39.9028 51.1267 39.9209C51.1267 39.9209 51.1267 39.9209 51.1357 39.93C50.8284 40.0204 50.503 40.1108 50.2318 40.2555C50.1957 40.2645 50.1686 40.2826 50.1324 40.2916C50.1143 40.2916 50.1053 40.3007 50.0963 40.3097C50.0963 40.3097 50.0963 40.3097 50.0872 40.3097C49.9878 40.3459 49.8884 40.364 49.7889 40.382C49.7618 40.3911 49.7708 40.4182 49.798 40.4182C49.7708 40.4273 49.7799 40.4544 49.807 40.4544C49.9064 40.4453 50.0059 40.4363 50.1143 40.4453C50.1686 40.4453 50.2138 40.4544 50.268 40.4634C50.5844 40.5267 50.9188 40.5267 51.2442 40.5267V40.5358C51.2352 40.5538 51.2442 40.59 51.2713 40.5991C51.3979 40.6352 51.5244 40.6352 51.6509 40.5991C51.6509 40.6081 51.6419 40.6171 51.6419 40.6171C51.6329 40.6443 51.6509 40.6804 51.6871 40.6804C51.8769 40.6985 52.0577 40.6804 52.2294 40.6171C52.2294 40.6262 52.2204 40.6443 52.2204 40.6533C52.2204 40.6714 52.2294 40.6985 52.2565 40.7076C52.4102 40.7528 52.5548 40.7347 52.6904 40.6714C52.6814 40.6895 52.6723 40.6985 52.6723 40.7166C52.6543 40.7528 52.6904 40.7799 52.7266 40.7799C52.9525 40.7709 53.1785 40.7256 53.3864 40.6352C53.3683 40.6804 53.3593 40.7347 53.3593 40.7889C53.3593 40.8251 53.3954 40.8522 53.4316 40.8341C53.5943 40.7799 53.748 40.7076 53.8926 40.6352C53.8745 40.6804 53.8655 40.7256 53.8655 40.7709C53.8655 40.798 53.8926 40.8341 53.9287 40.8251C54.1276 40.7889 54.3084 40.7256 54.4711 40.6262C54.462 40.6533 54.462 40.6895 54.462 40.7166C54.462 40.7437 54.4892 40.7799 54.5253 40.7709C54.679 40.7347 54.8146 40.6804 54.9321 40.59C54.9321 40.6262 54.9321 40.6533 54.9321 40.6895C54.9321 40.7256 54.9863 40.7437 55.0224 40.7166C55.1851 40.581 55.3659 40.4725 55.5557 40.382C55.5467 40.4273 55.5467 40.4634 55.5557 40.5086C55.5648 40.5358 55.6009 40.5629 55.6371 40.5448C55.8269 40.4634 56.0077 40.364 56.1794 40.2645C56.1704 40.3007 56.1613 40.3368 56.1613 40.373C56.1523 40.4001 56.1885 40.4363 56.2246 40.4273C56.4235 40.373 56.6043 40.2826 56.7489 40.165C56.7489 40.1741 56.7489 40.1831 56.7398 40.1922C56.7308 40.2283 56.776 40.2555 56.8122 40.2374C57.0472 40.156 57.2641 40.0475 57.463 39.9119C57.463 39.948 57.4539 39.9752 57.4539 40.0113C57.4539 40.0385 57.4901 40.0656 57.5172 40.0475C57.716 39.8938 57.9149 39.7491 58.1138 39.5954C58.1318 39.6135 58.168 39.6225 58.2041 39.6135C58.2584 39.6045 58.3126 39.5592 58.3578 39.5321L58.5838 39.4055C58.647 39.3694 58.7194 39.3242 58.7826 39.2789C58.5205 40.2826 58.4753 41.2953 58.5205 42.308C58.5657 43.3659 58.6832 44.4328 58.873 45.4907C58.873 45.5088 58.8911 45.5178 58.9182 45.5178C59.0086 45.5359 59.108 45.554 59.1984 45.5811C59.2255 45.5992 59.2617 45.5811 59.2617 45.554C58.7374 43.4744 58.7465 41.3405 59.0448 39.2337C59.0628 39.2337 59.0809 39.2428 59.099 39.2428C59.1894 39.297 59.2798 39.3513 59.3702 39.4055L59.5961 39.5321C59.6413 39.5592 59.6956 39.6045 59.7498 39.6135C59.7859 39.6225 59.8221 39.6135 59.8402 39.5954C60.039 39.7401 60.2379 39.8938 60.4367 40.0475C60.4639 40.0656 60.5 40.0475 60.5 40.0113C60.5 39.9752 60.491 39.948 60.491 39.9119C60.6898 40.0565 60.9068 40.156 61.1418 40.2374C61.1779 40.2464 61.2141 40.2283 61.2141 40.1922C61.2141 40.1831 61.2141 40.1741 61.2051 40.165C61.3587 40.2916 61.5305 40.382 61.7293 40.4273C61.7655 40.4363 61.8016 40.4001 61.7926 40.373C61.7835 40.3368 61.7745 40.3007 61.7745 40.2645C61.9462 40.364 62.127 40.4544 62.3168 40.5448C62.353 40.5629 62.3891 40.5358 62.3982 40.5086C62.4072 40.4634 62.4072 40.4182 62.3982 40.382C62.588 40.4725 62.7688 40.581 62.9315 40.7166C62.9586 40.7437 63.0128 40.7256 63.0219 40.6895C63.0219 40.6533 63.0309 40.6171 63.0219 40.59C63.1394 40.6804 63.275 40.7347 63.4286 40.7709C63.4648 40.7799 63.4919 40.7437 63.4919 40.7166C63.4919 40.6804 63.4919 40.6533 63.4829 40.6262C63.6456 40.7256 63.8263 40.7889 64.0252 40.8251C64.0613 40.8341 64.0885 40.798 64.0885 40.7709C64.0885 40.7256 64.0704 40.6804 64.0613 40.6352C64.206 40.7076 64.3596 40.7799 64.5223 40.8341C64.5585 40.8432 64.6037 40.8251 64.5946 40.7889C64.5856 40.7347 64.5766 40.6895 64.5675 40.6352C64.7754 40.7166 64.9924 40.7709 65.2274 40.7799C65.2635 40.7799 65.2997 40.7528 65.2816 40.7166C65.2726 40.6985 65.2635 40.6895 65.2635 40.6714C65.3901 40.7347 65.5437 40.7437 65.6974 40.7076C65.7155 40.6985 65.7335 40.6804 65.7335 40.6533C65.7335 40.6443 65.7245 40.6262 65.7245 40.6171C65.8962 40.6804 66.077 40.7076 66.2668 40.6804C66.303 40.6804 66.3211 40.6443 66.312 40.6171C66.312 40.6081 66.303 40.5991 66.303 40.5991C66.4295 40.6352 66.547 40.6262 66.6826 40.5991C66.7097 40.59 66.7278 40.5538 66.7097 40.5358V40.5267C67.0261 40.5267 67.3696 40.5267 67.6859 40.4634C67.7402 40.4544 67.7854 40.4544 67.8396 40.4453C67.939 40.4363 68.0385 40.4453 68.1469 40.4544C68.174 40.4544 68.174 40.4273 68.156 40.4182C68.1831 40.4182 68.1831 40.3911 68.165 40.382C68.0656 40.364 67.9661 40.3459 67.8667 40.3097C67.8215 40.2916 67.7763 40.2735 67.7221 40.2555C67.4419 40.1108 67.1165 40.0204 66.8182 39.93C66.8182 39.93 66.8182 39.93 66.8272 39.9209C66.8453 39.9028 66.8453 39.8667 66.8182 39.8486C66.7007 39.7853 66.5832 39.7491 66.4567 39.7491C66.4657 39.7401 66.4657 39.7401 66.4747 39.731C66.5018 39.7039 66.4838 39.6677 66.4567 39.6587C66.2849 39.5864 66.1041 39.5592 65.9143 39.5773C65.9234 39.5683 65.9324 39.5592 65.9324 39.5502C65.9414 39.5321 65.9324 39.505 65.9143 39.4959C65.7878 39.4146 65.6341 39.3874 65.4895 39.4146C65.4985 39.4055 65.5166 39.3874 65.5256 39.3784C65.5528 39.3513 65.5256 39.3061 65.4895 39.297C65.2635 39.2428 65.0466 39.2337 64.8206 39.2609C64.8477 39.2157 64.8748 39.1704 64.902 39.1252C64.92 39.0891 64.8839 39.0529 64.8477 39.0619C64.676 39.071 64.5042 39.0981 64.3416 39.1252C64.3687 39.0891 64.3958 39.0529 64.4139 39.0077C64.4229 38.9806 64.4048 38.9444 64.3777 38.9354C64.1789 38.9173 63.98 38.9263 63.7902 38.9806C63.8083 38.9534 63.8173 38.9263 63.8263 38.8992C63.8354 38.8721 63.8263 38.8359 63.7811 38.8269C63.6275 38.8178 63.4738 38.8359 63.3292 38.8901C63.3473 38.863 63.3563 38.8269 63.3654 38.7907C63.3744 38.7545 63.3292 38.7183 63.293 38.7364C63.0942 38.8178 62.8863 38.8811 62.6694 38.9173C62.6784 38.8992 62.6874 38.8811 62.6965 38.863C62.7055 38.863 62.7236 38.863 62.7326 38.854C62.7869 38.8449 62.823 38.7907 62.7869 38.7545C62.7778 38.7455 62.7688 38.7364 62.7597 38.7274C63.049 38.7636 63.3473 38.7364 63.6546 38.6551C63.7088 38.637 63.7269 38.5737 63.6908 38.5466C63.6546 38.5104 63.6184 38.4742 63.5732 38.4381C63.8806 38.429 64.1879 38.4019 64.4952 38.3657C64.5494 38.3567 64.5856 38.3115 64.5675 38.2663C64.5404 38.212 64.5133 38.1668 64.4681 38.1216C64.7935 38.0854 65.1099 38.0854 65.4262 38.1216C65.4805 38.1306 65.5347 38.0673 65.5166 38.0221C65.4895 37.9769 65.4714 37.9408 65.4353 37.9046C65.6522 37.9227 65.8782 37.8865 66.1041 37.8232C66.1584 37.8051 66.1674 37.7509 66.1403 37.7237C66.1132 37.6876 66.0861 37.6605 66.0589 37.6333C66.3482 37.6243 66.6374 37.5791 66.9267 37.4796C66.9809 37.4615 66.9899 37.4073 66.9628 37.3802C66.9176 37.3259 66.8724 37.2897 66.8182 37.2536C67.0713 37.2355 67.3244 37.1993 67.5775 37.1541C67.6407 37.1451 67.6679 37.0908 67.6317 37.0456C67.5865 36.9914 67.5323 36.9461 67.469 36.9009C67.8034 36.8467 68.1288 36.7563 68.4271 36.6026C68.4723 36.5754 68.4994 36.5212 68.4452 36.4941C68.4271 36.485 68.4 36.476 68.3819 36.4579C68.5989 36.4398 68.8068 36.3494 68.9604 36.1957C68.9785 36.1776 68.9875 36.1324 68.9604 36.1143C68.9514 36.1053 68.9333 36.0962 68.9243 36.0781C69.1954 36.0329 69.4576 35.9244 69.6835 35.7707C69.7287 35.7436 69.7287 35.6893 69.6835 35.6622C69.6745 35.6532 69.6655 35.6532 69.6564 35.6441C69.8372 35.5899 69.9999 35.5085 70.1445 35.3819C70.1716 35.3548 70.1626 35.3096 70.1355 35.2915C70.1355 35.2915 70.1264 35.2915 70.1264 35.2824C70.5422 35.0564 70.9851 34.8304 71.3377 34.541C71.4009 34.5048 71.4552 34.4596 71.5275 34.4144C71.654 34.333 71.7986 34.2788 71.9342 34.2155C72.0246 34.2065 72.0065 34.1703 71.9704 34.1793ZM47.7461 26.3491C47.7371 26.331 47.7281 26.322 47.719 26.3039C47.7371 26.3129 47.7461 26.331 47.7642 26.34C47.7552 26.34 47.7552 26.34 47.7461 26.3491ZM50.1143 40.3911C50.1324 40.3911 50.1414 40.382 50.1595 40.382V40.3911C50.1414 40.3911 50.1324 40.3911 50.1143 40.3911ZM57.8968 35.6803C57.9782 35.6984 58.0505 35.608 58.0053 35.5356C57.716 35.0654 57.4991 34.541 57.3997 33.9895C57.481 34.0166 57.5624 34.0437 57.6347 34.0708C57.7522 34.116 57.8155 33.9533 57.7522 33.8719C57.4539 33.5102 57.2641 33.0943 57.1737 32.6332C57.2822 32.6693 57.3906 32.7146 57.4991 32.7507C57.6076 32.7869 57.6799 32.6513 57.6347 32.5608C57.4358 32.1088 57.2641 31.6567 57.1104 31.1865C57.2008 31.2046 57.2912 31.2498 57.3816 31.304C57.472 31.3673 57.5895 31.2679 57.5624 31.1594C57.4178 30.653 57.2189 30.1738 56.9658 29.7307C57.0924 29.7669 57.2008 29.8302 57.3093 29.9297C57.4268 30.0382 57.5895 29.8664 57.481 29.7579C57.1827 29.4414 57.002 29.0707 56.9387 28.6457C57.0562 28.6819 57.1647 28.7452 57.2731 28.8356C57.3726 28.926 57.5353 28.8085 57.463 28.6819C57.2008 28.2479 57.0472 27.7867 57.002 27.2804C57.1556 27.3437 57.2822 27.4341 57.3997 27.5697C57.4991 27.6782 57.6347 27.5426 57.5895 27.4251C57.4178 27.0091 57.2731 26.5842 57.1647 26.1502C57.2912 26.1954 57.4087 26.2587 57.5172 26.331C57.5985 26.3853 57.716 26.2948 57.6889 26.1954C57.5172 25.689 57.4449 25.1827 57.472 24.6583C57.5805 24.7306 57.6889 24.8029 57.8064 24.8753C57.9239 24.9476 58.0324 24.7848 57.9511 24.6854C57.6889 24.387 57.6257 23.9982 57.7612 23.6365C57.8335 23.6727 57.9059 23.736 57.9511 23.8083C58.0234 23.8897 58.1951 23.8083 58.1499 23.6908C57.9782 23.2568 57.933 22.8228 58.0324 22.3797C58.0776 22.4068 58.1318 22.443 58.177 22.4701C58.2674 22.5244 58.3849 22.434 58.3488 22.3345C58.2674 22.0542 58.2584 21.783 58.3488 21.5027C58.3668 21.5117 58.3759 21.5207 58.394 21.5298C58.4572 21.5659 58.5567 21.5388 58.5747 21.4574C58.6922 20.6979 58.9182 19.9475 59.0176 19.1879C59.0176 24.2875 59.0176 29.3962 59.0086 34.4958C59.0086 35.9244 59.0086 37.3621 59.0086 38.7907C58.9453 38.6279 58.8821 38.4742 58.8188 38.3115C58.6742 37.9679 58.403 37.5339 58.3578 37.1632L58.3668 37.1722C58.403 37.2355 58.5115 37.2084 58.5024 37.136C58.5024 37.0727 58.4753 37.0366 58.4392 37.0094C58.168 36.5393 57.9149 36.0691 57.6528 35.5899C57.7251 35.6351 57.8155 35.6622 57.8968 35.6803ZM49.6805 27.8591C49.7347 27.9043 49.8251 27.8681 49.8432 27.8139C49.8522 27.7958 49.8522 27.7867 49.8612 27.7687C50.0691 27.8952 50.2228 28.067 50.3132 28.284C50.3493 28.3654 50.4759 28.3564 50.512 28.275C50.5301 28.2298 50.5482 28.1846 50.5663 28.1394C50.8736 28.3654 51.0815 28.6638 51.199 29.0255C51.2261 29.1159 51.3888 29.0888 51.3979 28.9984C51.3979 28.926 51.4069 28.8537 51.443 28.7904C51.7323 28.9441 51.904 29.2244 51.886 29.5499C51.8769 29.6584 52.0487 29.7036 52.0848 29.5951C52.121 29.4866 52.1571 29.3872 52.1933 29.2787C52.5006 29.5951 52.7266 29.9477 52.8893 30.3546C52.9164 30.436 53.052 30.427 53.0791 30.3456C53.1152 30.2371 53.1604 30.1376 53.2237 30.0382C53.3864 30.3637 53.522 30.7073 53.6395 31.0599C53.6666 31.1594 53.8384 31.1774 53.8474 31.0509C53.8564 30.9062 53.8926 30.7796 53.9649 30.6621C54.2089 30.9966 54.3626 31.3673 54.4168 31.7832C54.4349 31.9008 54.6067 31.8827 54.6247 31.7742C54.6428 31.6567 54.688 31.5662 54.7513 31.4849C54.9411 31.7832 55.0134 32.1178 54.9863 32.4614C54.9773 32.588 55.1761 32.6061 55.2032 32.4795C55.2213 32.3619 55.2665 32.2625 55.3298 32.172C55.4021 32.588 55.5196 32.9949 55.7004 33.3837C55.7365 33.465 55.8721 33.465 55.8992 33.3746C55.9263 33.2842 55.9625 33.2209 56.0167 33.1576C56.1704 33.5283 56.2969 33.9081 56.4144 34.2878C56.4325 34.3692 56.5591 34.4144 56.6133 34.333C56.6675 34.2517 56.7218 34.1703 56.776 34.0889C56.9658 34.4235 57.0652 34.7851 57.0562 35.1649C57.0562 35.2553 57.1827 35.3186 57.246 35.2282C57.2822 35.1649 57.3274 35.1106 57.3635 35.0474C57.3635 35.0926 57.3816 35.2553 57.4539 35.3909C57.4087 35.409 57.3906 35.4633 57.4178 35.5175C57.716 36.0239 58.0053 36.5302 58.2945 37.0366C58.2403 37.0727 58.2041 37.1451 58.2132 37.2355C58.2222 37.3621 58.3126 37.4977 58.3578 37.6062C58.4392 37.787 58.5205 37.9769 58.5928 38.1578C58.7013 38.4019 58.8097 38.637 58.9182 38.8811C58.1228 37.986 57.3364 37.0818 56.541 36.1866C53.748 33.022 50.9549 29.8483 48.1619 26.6836C48.6229 27.0996 49.1833 27.4522 49.6805 27.8591ZM53.3141 35.2282C53.3864 35.192 53.4678 35.1739 53.5672 35.1649C53.6666 35.1559 53.6847 35.0293 53.6124 34.9841C53.2418 34.7399 52.8441 34.5501 52.4192 34.4054C52.5277 34.3602 52.6362 34.3511 52.7627 34.3511C52.8983 34.3602 52.9254 34.1703 52.7808 34.1522C52.4102 34.116 52.0758 33.9804 51.7956 33.7453C51.895 33.7092 52.0035 33.6911 52.13 33.6911C52.2475 33.6911 52.3017 33.5374 52.1752 33.5012C51.7594 33.3746 51.3979 33.1576 51.0905 32.8683C51.2261 32.8231 51.3617 32.814 51.5244 32.8321C51.6509 32.8502 51.669 32.6874 51.5696 32.6422C51.2261 32.4704 50.8917 32.2805 50.5844 32.0635C50.6928 32.0274 50.8103 32.0002 50.9278 31.9912C51.0182 31.9822 51.0453 31.8646 50.973 31.8194C50.5844 31.5934 50.2499 31.3131 49.9787 30.9695C50.0963 30.9604 50.2138 30.9424 50.3313 30.9333C50.4488 30.9243 50.4397 30.7615 50.3222 30.7434C49.9787 30.6982 49.7166 30.4903 49.6082 30.1919C49.6805 30.1738 49.7618 30.1738 49.8341 30.1919C49.9336 30.21 49.9968 30.0653 49.9064 30.011C49.5539 29.8302 49.2827 29.5861 49.102 29.2606L49.2556 29.2425C49.346 29.2334 49.3731 29.1069 49.3008 29.0616C49.0839 28.926 48.9393 28.7633 48.8489 28.5463C48.867 28.5463 48.885 28.5463 48.8941 28.5372C48.9573 28.5282 49.0116 28.4558 48.9754 28.4016C48.65 27.8772 48.3879 27.3075 48.0535 26.7831C48.7675 27.5878 49.4816 28.4016 50.1957 29.2063C52.9887 32.371 55.7727 35.5356 58.5657 38.7003C58.5476 38.6822 58.5205 38.6641 58.5024 38.646C58.412 38.5646 58.3126 38.4833 58.2222 38.4019C58.168 38.3567 58.1047 38.2753 58.0324 38.2391C57.9782 38.212 57.9239 38.221 57.8968 38.2301C57.6528 37.9679 57.4178 37.7057 57.1737 37.4344C57.1376 37.3982 57.0743 37.4163 57.0652 37.4525C57.0562 37.4977 57.0472 37.5429 57.0472 37.5791C56.8122 37.3259 56.5229 37.1179 56.2156 36.9281C56.1704 36.9009 56.0981 36.919 56.0981 36.9642C56.0981 36.9733 56.0981 36.9914 56.0981 37.0004C55.9173 36.7834 55.7004 36.6116 55.4202 36.4669C55.375 36.4398 55.3117 36.476 55.3117 36.5121C55.3117 36.5573 55.3117 36.6116 55.3117 36.6568C55.0857 36.4669 54.8597 36.277 54.6157 36.1053C54.5705 36.0781 54.5072 36.0872 54.4892 36.1233C54.462 36.1776 54.453 36.2318 54.444 36.2861C54.3536 36.2138 54.2632 36.1414 54.1818 36.0691C54.2722 36.042 54.3626 36.0058 54.444 35.9787C54.5434 35.9425 54.5163 35.825 54.4349 35.7888C54.0462 35.626 53.6757 35.4362 53.3141 35.2282ZM54.1095 35.8882C54.0734 35.8973 54.0282 35.9154 53.992 35.9244C53.9287 35.8611 53.8745 35.8069 53.8203 35.7436C53.9197 35.7888 54.0191 35.843 54.1095 35.8882ZM48.3427 34.7309C48.3969 34.7399 48.4421 34.7038 48.4331 34.6586C48.4331 34.6495 48.4241 34.6405 48.4241 34.6314C48.6139 34.6495 48.7766 34.7128 48.9302 34.8213C48.9845 34.8575 49.0658 34.8213 49.0568 34.7671C49.0477 34.7399 49.0387 34.7038 49.0387 34.6766C49.3279 34.7399 49.5901 34.8575 49.807 35.0474C49.8612 35.0926 49.9607 35.0383 49.9245 34.975C49.8974 34.9298 49.8703 34.8846 49.8703 34.8394C50.1234 34.8575 50.3493 34.9841 50.4668 35.183C50.503 35.2463 50.6295 35.2282 50.6115 35.1559C50.5934 35.0835 50.5753 35.0112 50.5572 34.9389C50.8826 35.0474 51.1809 35.2011 51.443 35.409C51.4973 35.4452 51.5786 35.409 51.5606 35.3548C51.5425 35.2824 51.5334 35.2101 51.5334 35.1378C51.7775 35.2915 52.0035 35.4633 52.2114 35.6441C52.2746 35.6984 52.3921 35.6622 52.3469 35.5899C52.2927 35.4994 52.2656 35.4181 52.2656 35.3277C52.5639 35.4633 52.8079 35.6532 53.0158 35.8882C53.0791 35.9606 53.1785 35.8973 53.1514 35.825C53.1152 35.7526 53.1062 35.6803 53.1152 35.617C53.3593 35.7526 53.5401 35.9244 53.6666 36.1505C53.7118 36.2318 53.8474 36.1866 53.8112 36.1053C53.7751 36.0239 53.757 35.9606 53.766 35.8882C53.983 36.1233 54.227 36.3313 54.4982 36.5212C54.5524 36.5573 54.6428 36.5212 54.6247 36.4669C54.6067 36.4036 54.6067 36.3584 54.6157 36.3042C54.8688 36.485 55.1038 36.6839 55.3298 36.8829C55.375 36.9281 55.4744 36.919 55.4744 36.8557C55.4744 36.7924 55.4744 36.7291 55.4744 36.6658C55.7365 36.8196 55.9444 37.0094 56.089 37.2445C56.1252 37.2988 56.2337 37.3078 56.2427 37.2355C56.2427 37.1903 56.2427 37.1451 56.2427 37.0999C56.5591 37.2717 56.8212 37.5067 57.0472 37.7599C57.0833 37.7961 57.1556 37.787 57.1647 37.7418C57.1737 37.6966 57.1737 37.6514 57.1827 37.6062C57.4087 37.8503 57.6347 38.0854 57.8607 38.3295C57.8697 38.3476 57.8878 38.3748 57.9239 38.3928C57.9691 38.4109 58.0053 38.3657 57.9782 38.3386C57.9782 38.3386 57.9782 38.3386 57.9691 38.3295C58.1861 38.4381 58.3849 38.6731 58.5567 38.8178C56.5862 38.0402 54.6157 37.2626 52.6452 36.4941C52.6452 36.4941 49.3551 35.1739 47.6015 34.5953C47.8456 34.6224 48.0987 34.6676 48.3427 34.7309ZM51.3527 40.0113C51.3888 40.0023 51.3979 39.9571 51.3707 39.939C51.3617 39.93 51.3617 39.93 51.3527 39.9209C51.4611 39.8667 51.5877 39.8576 51.7142 39.8757C51.7594 39.8847 51.7956 39.8305 51.7594 39.7943C51.7413 39.7762 51.7233 39.7582 51.7052 39.7401C51.895 39.6768 52.0848 39.6677 52.2837 39.713C52.3379 39.722 52.365 39.6497 52.3198 39.6225C52.2837 39.6045 52.2565 39.5864 52.2294 39.5502C52.3741 39.4779 52.5548 39.4779 52.6995 39.5683C52.7446 39.5954 52.8079 39.5412 52.7718 39.4959C52.7356 39.4507 52.6904 39.4146 52.6543 39.3694C52.8802 39.3242 53.1062 39.3242 53.3322 39.3694C53.3774 39.3784 53.4045 39.3242 53.3774 39.288C53.3322 39.2428 53.3051 39.1976 53.2689 39.1524C53.4678 39.1704 53.6576 39.1976 53.8474 39.2518C53.9016 39.2609 53.9559 39.1976 53.9016 39.1704C53.8384 39.1252 53.7841 39.08 53.748 39.0258C53.9649 39.0167 54.1818 39.0529 54.3897 39.1343C54.453 39.1614 54.4892 39.08 54.444 39.0439C54.3988 39.0077 54.3626 38.9625 54.3355 38.9173C54.5253 38.9173 54.697 38.9715 54.8507 39.071C54.9049 39.1071 54.9682 39.0348 54.914 38.9896C54.8597 38.9534 54.8236 38.9082 54.8055 38.863C55.0224 38.9444 55.2394 38.9986 55.4654 39.0258C55.5105 39.0348 55.5467 38.9806 55.5105 38.9444C55.4834 38.9173 55.4744 38.8992 55.4563 38.8721C55.5919 38.8992 55.7365 38.9082 55.8721 38.9263H55.8811C56.0529 38.9354 56.2156 38.9444 56.3873 38.9354C56.3602 38.9715 56.3331 39.0077 56.2969 39.0439C56.2698 39.08 56.306 39.1252 56.3512 39.1252C56.7308 39.0981 57.1014 39.071 57.481 39.0439C57.4901 39.08 57.5262 39.1162 57.5805 39.1343C57.6618 39.1614 57.7612 39.1433 57.8426 39.1524C57.9691 39.1524 58.1047 39.1614 58.2313 39.1614C58.3668 39.1614 58.5024 39.1704 58.638 39.1704C55.9715 39.5954 53.287 39.9571 50.6024 40.2645C50.8736 40.1741 51.1086 40.0746 51.3527 40.0113ZM58.7103 39.3242C58.5747 39.4055 58.403 39.5412 58.2403 39.5773C58.2403 39.5773 58.2403 39.5773 58.2493 39.5773C58.2765 39.5592 58.2584 39.514 58.2222 39.5231C58.1951 39.5321 58.177 39.5412 58.168 39.5592C57.9872 39.6949 57.7974 39.8305 57.6076 39.9661C57.6076 39.93 57.6166 39.8938 57.6166 39.8576C57.6166 39.8215 57.5714 39.8034 57.5443 39.8215C57.3545 39.9661 57.1466 40.0927 56.9206 40.156C56.9297 40.1198 56.9387 40.0837 56.9387 40.0565C56.9477 40.0023 56.8754 39.9842 56.8393 40.0204C56.7037 40.165 56.5319 40.2645 56.3421 40.3278C56.3512 40.2826 56.3602 40.2374 56.3692 40.1922C56.3783 40.147 56.315 40.1198 56.2789 40.147C56.0981 40.2555 55.9083 40.3549 55.7184 40.4453C55.7184 40.4092 55.7275 40.373 55.7546 40.3278C55.7727 40.2916 55.7275 40.2464 55.6823 40.2645C55.4744 40.3549 55.2846 40.4634 55.1038 40.5991C55.1128 40.5448 55.1309 40.4996 55.1671 40.4453C55.2032 40.3911 55.1219 40.3368 55.0767 40.382C54.9592 40.5177 54.8146 40.6171 54.6338 40.6714C54.6428 40.6171 54.6609 40.5719 54.697 40.5267C54.7242 40.4815 54.6699 40.4182 54.6157 40.4544C54.444 40.59 54.2541 40.6804 54.0372 40.7256C54.0553 40.6623 54.0824 40.5991 54.1366 40.5448C54.1818 40.4996 54.1095 40.4544 54.0643 40.4815C53.8926 40.581 53.7208 40.6623 53.5401 40.7256C53.5491 40.6714 53.5672 40.6171 53.5943 40.5719C53.6124 40.5358 53.5672 40.4906 53.522 40.5086C53.3141 40.6081 53.0972 40.6714 52.8712 40.6895C52.8983 40.6443 52.9164 40.59 52.9435 40.5448C52.9706 40.4906 52.8893 40.4544 52.8531 40.4996C52.7446 40.6262 52.5729 40.6714 52.4102 40.6443C52.4192 40.6081 52.4464 40.581 52.4735 40.5538C52.5096 40.5177 52.4554 40.4544 52.4102 40.4815C52.2385 40.581 52.0487 40.6171 51.8498 40.6081C51.8588 40.59 51.8679 40.5629 51.8769 40.5448C51.895 40.5086 51.8498 40.4634 51.8046 40.4815C51.6871 40.5358 51.5696 40.5538 51.443 40.5267C51.443 40.5177 51.4521 40.5086 51.4521 40.5086C51.4611 40.4815 51.443 40.4453 51.4069 40.4453C51.1628 40.4453 50.9098 40.4182 50.6567 40.4092C53.3683 40.0927 56.08 39.722 58.7736 39.297C58.7646 39.297 58.7374 39.3061 58.7103 39.3242ZM58.4301 39.071C58.1861 39.0619 57.8607 39.0981 57.6256 39.0258H57.6347C57.6799 39.0258 57.6889 38.9625 57.6437 38.9534C57.6076 38.9444 57.5714 38.9444 57.5533 38.9534C57.2099 38.9806 56.8573 38.9896 56.5048 39.0077C56.541 38.9715 56.5681 38.9354 56.6043 38.8992C56.6314 38.863 56.5952 38.8088 56.541 38.8088C56.3331 38.8269 56.1162 38.8269 55.9083 38.8178C55.7636 38.7816 55.619 38.7545 55.4744 38.7364C55.5015 38.7093 55.5377 38.6822 55.5648 38.6551C55.619 38.6008 55.5377 38.5375 55.4654 38.5466C55.1761 38.6098 54.8778 38.6098 54.5795 38.5466C54.6247 38.5013 54.679 38.4561 54.7242 38.4109C54.7784 38.3657 54.7061 38.3024 54.6428 38.2934C54.3265 38.2843 54.0011 38.2663 53.6847 38.2301C53.7208 38.1849 53.766 38.1578 53.8203 38.1216C53.8745 38.0945 53.8474 38.0131 53.7751 37.995C53.4316 37.9498 53.0972 37.9317 52.7627 37.9588C52.817 37.9046 52.8802 37.8684 52.9706 37.8322C53.061 37.7961 52.9977 37.6785 52.9073 37.7057C52.6452 37.778 52.3741 37.787 52.1029 37.7147C52.1571 37.6605 52.2114 37.6243 52.2927 37.5972C52.365 37.57 52.3379 37.4615 52.2475 37.4706C51.9221 37.4977 51.6057 37.4706 51.2894 37.3711C51.3617 37.3078 51.443 37.2717 51.5606 37.2355C51.6509 37.2084 51.5967 37.1089 51.5154 37.1089C51.2261 37.0999 50.9278 37.0637 50.6386 37.0185C50.6928 36.9642 50.7561 36.9281 50.8374 36.8829C50.8917 36.8557 50.8646 36.7743 50.7922 36.7653C50.4488 36.7291 50.1234 36.6478 49.807 36.5121C49.8793 36.476 49.9516 36.4398 50.0149 36.3946C50.0872 36.3584 50.0149 36.259 49.9336 36.277C49.6895 36.3403 49.4364 36.277 49.2466 36.1233C49.2918 36.0962 49.337 36.0781 49.3912 36.0691C49.4635 36.051 49.4454 35.9515 49.3641 35.9425C49.0658 35.9244 48.7856 35.843 48.5325 35.6984C48.5596 35.6803 48.5958 35.6622 48.6229 35.6441C48.6771 35.617 48.65 35.5356 48.5777 35.5266C48.3879 35.4994 48.2162 35.4362 48.0715 35.3367C48.0806 35.3277 48.0896 35.3277 48.0987 35.3186C48.1348 35.3005 48.1438 35.2372 48.0987 35.2101C47.6919 34.9841 47.3032 34.7218 46.8965 34.4958C48.885 35.0474 50.7832 35.8611 52.6904 36.6116C54.7513 37.4254 56.8121 38.2301 58.873 39.0439C58.873 39.0439 58.873 39.0439 58.8821 39.0439C58.8911 39.0529 58.8911 39.0529 58.9001 39.0619C58.7465 39.0891 58.5838 39.08 58.4301 39.071ZM59.2436 45.5359C59.1803 45.5178 59.108 45.5088 59.0628 45.4817C58.9363 45.4184 58.9634 45.1833 58.9544 45.0929C58.9092 44.8216 58.864 44.5413 58.8278 44.261C58.7465 43.7095 58.7013 43.1579 58.6742 42.5973C58.6199 41.4761 58.7194 40.364 58.9724 39.2428H58.9815C59.0176 39.2337 59.0357 39.2157 59.0357 39.1885C59.0357 39.2066 59.0448 39.2157 59.0628 39.2247C58.6651 41.3405 58.8097 43.4472 59.2436 45.5359ZM67.93 40.382C67.9481 40.3911 67.9661 40.3911 67.9842 40.4001C67.9661 40.4001 67.9481 40.4001 67.93 40.4001C67.93 40.3911 67.93 40.382 67.93 40.382ZM64.45 36.1324C64.5675 35.9154 64.7573 35.7345 65.0014 35.5989C65.0014 35.6712 64.9924 35.7345 64.9652 35.8069C64.9381 35.8792 65.0375 35.9335 65.1008 35.8702C65.2997 35.6351 65.5528 35.4542 65.851 35.3096C65.851 35.4 65.8239 35.4814 65.7697 35.5718C65.7245 35.6441 65.842 35.6803 65.9053 35.626C66.1222 35.4452 66.3482 35.2734 66.5832 35.1197C66.5832 35.192 66.5742 35.2644 66.5561 35.3367C66.538 35.3909 66.6284 35.4271 66.6736 35.3909C66.9357 35.192 67.234 35.0293 67.5594 34.9208C67.5413 34.9931 67.5232 35.0654 67.5052 35.1378C67.4871 35.2101 67.6136 35.2282 67.6498 35.1649C67.7673 34.966 67.9933 34.8394 68.2464 34.8213C68.2373 34.8665 68.2192 34.9117 68.1921 34.9569C68.156 35.0112 68.2464 35.0745 68.3096 35.0293C68.5356 34.8394 68.7887 34.7218 69.0779 34.6586C69.0689 34.6857 69.0599 34.7218 69.0599 34.749C69.0508 34.8032 69.1322 34.8394 69.1864 34.8032C69.3401 34.6947 69.5028 34.6314 69.6926 34.6133C69.6926 34.6224 69.6835 34.6314 69.6835 34.6405C69.6745 34.6766 69.7197 34.7218 69.7739 34.7128C70.0451 34.6495 70.3163 34.5953 70.5874 34.5501C68.8429 35.0835 67.1617 35.7978 65.4805 36.4579C63.51 37.2355 61.5485 38.004 59.5781 38.7816C59.7498 38.6279 59.9486 38.4019 60.1656 38.2934C60.1656 38.2934 60.1656 38.2934 60.1565 38.3024C60.1294 38.3295 60.1656 38.3838 60.2108 38.3567C60.2469 38.3386 60.265 38.3205 60.274 38.2934C60.5 38.0493 60.726 37.8142 60.952 37.57C60.961 37.6152 60.961 37.6605 60.97 37.7057C60.9791 37.7509 61.0514 37.769 61.0875 37.7237C61.3045 37.4706 61.5756 37.2355 61.892 37.0637C61.892 37.1089 61.892 37.1541 61.892 37.1993C61.892 37.2717 62.0095 37.2626 62.0457 37.2084C62.1993 36.9733 62.4072 36.7834 62.6603 36.6297C62.6603 36.693 62.6603 36.7563 62.6603 36.8196C62.6603 36.8829 62.7597 36.8829 62.8049 36.8467C63.0309 36.6387 63.2659 36.4488 63.519 36.268C63.528 36.3223 63.528 36.3675 63.51 36.4308C63.4919 36.4941 63.5823 36.5212 63.6365 36.485C63.9077 36.2951 64.1517 36.0872 64.3687 35.8521C64.3777 35.9244 64.3596 35.9967 64.3235 36.0691C64.2692 36.1776 64.4048 36.2138 64.45 36.1324ZM63.98 35.8882C64.0794 35.843 64.1698 35.7888 64.2692 35.7436C64.215 35.8069 64.1608 35.8702 64.0975 35.9244C64.0613 35.9154 64.0252 35.8973 63.98 35.8882ZM69.1231 28.4016C69.087 28.4558 69.1412 28.5372 69.2045 28.5372C69.2226 28.5372 69.2406 28.5372 69.2497 28.5463C69.1593 28.7633 69.0056 28.9351 68.7977 29.0616C68.7164 29.1069 68.7525 29.2244 68.8429 29.2425L68.9966 29.2606C68.8158 29.5861 68.5446 29.8392 68.1921 30.011C68.1017 30.0563 68.165 30.2009 68.2644 30.1919C68.3367 30.1738 68.4181 30.1738 68.4904 30.1919C68.3819 30.4903 68.1198 30.6982 67.7763 30.7434C67.6679 30.7615 67.6498 30.9243 67.7673 30.9333C67.8848 30.9424 68.0023 30.9604 68.1198 30.9695C67.8486 31.3131 67.5232 31.5934 67.1255 31.8194C67.0532 31.8646 67.0803 31.9822 67.1707 31.9912C67.2882 32.0002 67.4057 32.0274 67.5142 32.0635C67.1978 32.2805 66.8724 32.4704 66.529 32.6422C66.4295 32.6874 66.4476 32.8502 66.5742 32.8321C66.7278 32.814 66.8634 32.8231 67.008 32.8683C66.7007 33.1576 66.3391 33.3656 65.9234 33.5012C65.8059 33.5374 65.8601 33.7001 65.9686 33.6911C66.0951 33.6911 66.1945 33.7092 66.303 33.7453C66.0228 33.9714 65.6974 34.107 65.3178 34.1522C65.1822 34.1703 65.2002 34.3602 65.3358 34.3511C65.4624 34.3421 65.5799 34.3602 65.6793 34.4054C65.2545 34.5501 64.8568 34.7399 64.4862 34.9841C64.4139 35.0293 64.441 35.1559 64.5314 35.1649C64.6308 35.1739 64.7031 35.192 64.7845 35.2282C64.4229 35.4362 64.0523 35.6351 63.6727 35.8069C63.5913 35.843 63.5642 35.9606 63.6636 35.9967C63.754 36.0239 63.8444 36.06 63.9258 36.0872C63.8444 36.1595 63.754 36.2318 63.6636 36.3042C63.6636 36.2499 63.6456 36.1957 63.6184 36.1414C63.6004 36.1053 63.5371 36.0872 63.4919 36.1233C63.2478 36.2951 63.0128 36.485 62.7959 36.6749C62.7959 36.6297 62.7959 36.5754 62.7959 36.5302C62.7959 36.4941 62.7326 36.4579 62.6874 36.485C62.4163 36.6206 62.1903 36.8015 62.0095 37.0185C62.0095 37.0094 62.0095 36.9914 62.0095 36.9823C62.0095 36.9371 61.9372 36.919 61.892 36.9461C61.5756 37.136 61.2954 37.353 61.0604 37.5972C61.0514 37.5519 61.0424 37.5067 61.0424 37.4706C61.0333 37.4344 60.97 37.4163 60.9339 37.4525C60.6989 37.7147 60.4548 37.986 60.2108 38.2482C60.1746 38.2301 60.1294 38.2301 60.0752 38.2572C60.0029 38.2934 59.9396 38.3657 59.8854 38.42C59.795 38.5013 59.6956 38.5827 59.6052 38.6641C59.5961 38.6731 59.5961 38.6731 59.5871 38.6822C62.3801 35.5175 65.1731 32.3529 67.9571 29.1882C68.6441 28.4016 69.3401 27.624 70.027 26.8373C69.6926 27.3347 69.4395 27.8952 69.1231 28.4016ZM60.8706 35.2282C60.8887 35.2463 60.8977 35.2553 60.9158 35.2644C60.9791 35.2824 61.0604 35.2282 61.0604 35.1649C61.0514 34.7851 61.1508 34.4235 61.3406 34.0889C61.3949 34.1703 61.4491 34.2517 61.5033 34.333C61.5576 34.4144 61.6841 34.3692 61.7022 34.2878C61.8107 33.899 61.9462 33.5283 62.0999 33.1576C62.1541 33.2209 62.1903 33.2932 62.2174 33.3746C62.2445 33.456 62.3801 33.456 62.4163 33.3837C62.597 32.9949 62.7236 32.588 62.7869 32.172C62.8501 32.2625 62.8863 32.3619 62.9134 32.4795C62.9315 32.6061 63.1394 32.588 63.1303 32.4614C63.1032 32.1088 63.1755 31.7832 63.3654 31.4849C63.4286 31.5753 63.4648 31.6657 63.4919 31.7742C63.51 31.8827 63.6908 31.9008 63.6998 31.7832C63.754 31.3764 63.9077 31.0056 64.1517 30.6621C64.224 30.7796 64.2602 30.9062 64.2692 31.0509C64.2783 31.1684 64.45 31.1594 64.4771 31.0599C64.5856 30.7073 64.7212 30.3727 64.8929 30.0382C64.9562 30.1376 65.0014 30.2371 65.0375 30.3456C65.0647 30.427 65.2002 30.427 65.2274 30.3546C65.3901 29.9477 65.616 29.5951 65.9234 29.2787C65.9595 29.3872 65.9957 29.4866 66.0318 29.5951C66.068 29.7036 66.2397 29.6584 66.2307 29.5499C66.2126 29.2334 66.3843 28.9441 66.6736 28.7904C66.7007 28.8537 66.7188 28.926 66.7188 28.9984C66.7278 29.0888 66.8905 29.1249 66.9176 29.0255C67.0351 28.6638 67.243 28.3745 67.5504 28.1394C67.5684 28.1846 67.5865 28.2298 67.6046 28.275C67.6317 28.3564 67.7673 28.3654 67.8034 28.284C67.9029 28.067 68.0475 27.8952 68.2554 27.7687C68.2644 27.7867 68.2644 27.7958 68.2735 27.8139C68.2915 27.8681 68.3819 27.9043 68.4362 27.8591C68.9514 27.4432 69.5299 27.0815 70.027 26.6475C67.234 29.8121 64.441 32.9768 61.648 36.1505C60.8706 37.0275 60.1023 37.9046 59.325 38.7816C59.4154 38.5737 59.5148 38.3748 59.5961 38.1668C59.6775 37.986 59.7588 37.7961 59.8311 37.6152C59.8763 37.5067 59.9667 37.3621 59.9758 37.2445C59.9848 37.1541 59.9486 37.0818 59.8944 37.0456C60.1837 36.5393 60.4729 36.0329 60.7712 35.5266C60.8164 35.4542 60.7441 35.3729 60.6718 35.3909C60.5904 35.409 60.5181 35.4271 60.4367 35.4452C60.5091 35.3186 60.5723 35.183 60.6356 35.0474C60.6808 35.1287 60.7802 35.1197 60.8706 35.2282ZM59.1442 38.8269C59.1442 33.5735 59.1442 28.3202 59.1532 23.0669C59.1532 21.792 59.1532 20.5261 59.1532 19.2512C59.2617 19.9927 59.4696 20.7251 59.5871 21.4665C59.5961 21.5479 59.7046 21.584 59.7679 21.5388C59.7859 21.5298 59.795 21.5207 59.8131 21.5117C59.9035 21.783 59.8944 22.0542 59.8131 22.3435C59.7859 22.443 59.9035 22.5334 59.9848 22.4792C60.03 22.452 60.0842 22.4159 60.1294 22.3888C60.2198 22.8318 60.1746 23.2749 60.0119 23.6998C59.9667 23.8174 60.1294 23.8987 60.2108 23.8174C60.265 23.745 60.3283 23.6908 60.4006 23.6456C60.5362 24.0072 60.4639 24.4051 60.2108 24.6944C60.1294 24.7939 60.2379 24.9566 60.3554 24.8843C60.4639 24.812 60.5814 24.7396 60.6898 24.6673C60.717 25.1917 60.6446 25.7071 60.4729 26.2044C60.4367 26.3039 60.5633 26.3943 60.6446 26.34C60.7621 26.2587 60.8797 26.2044 60.9972 26.1592C60.8887 26.5932 60.7531 27.0182 60.5723 27.4341C60.5271 27.5517 60.6627 27.6963 60.7621 27.5788C60.8797 27.4432 61.0062 27.3527 61.1599 27.2894C61.1147 27.7958 60.961 28.2569 60.6989 28.6909C60.6175 28.8175 60.7893 28.926 60.8887 28.8446C60.9972 28.7542 61.0966 28.6909 61.2231 28.6548C61.1599 29.0797 60.97 29.4504 60.6808 29.7669C60.5723 29.8845 60.735 30.0472 60.8525 29.9387C60.961 29.8392 61.0695 29.776 61.196 29.7398C60.9339 30.1919 60.735 30.6621 60.5994 31.1684C60.5723 31.2679 60.6898 31.3673 60.7802 31.3131C60.8706 31.2498 60.961 31.2136 61.0514 31.1955C60.8977 31.6657 60.726 32.1178 60.5271 32.5699C60.4819 32.6603 60.5543 32.7959 60.6627 32.7598C60.7712 32.7236 60.8797 32.6784 60.9881 32.6422C60.8977 33.1034 60.7079 33.5193 60.4096 33.881C60.3373 33.9623 60.4006 34.1251 60.5271 34.0799C60.6085 34.0528 60.6898 34.0256 60.7621 33.9985C60.6718 34.5501 60.4458 35.0654 60.1565 35.5447C60.1113 35.617 60.1837 35.7074 60.265 35.6893C60.3464 35.6712 60.4277 35.6441 60.5181 35.626C60.256 36.0962 60.0029 36.5754 59.7317 37.0456C59.6956 37.0727 59.6775 37.1089 59.6684 37.1722C59.6594 37.2445 59.7679 37.2717 59.804 37.2084L59.8131 37.1993C59.7679 37.57 59.4967 38.004 59.3521 38.3476C59.2798 38.4923 59.2165 38.6641 59.1442 38.8269ZM66.6736 40.4273C66.6374 40.4273 66.6194 40.4634 66.6284 40.4906L66.6374 40.5086C66.5109 40.5267 66.3934 40.5086 66.2759 40.4634C66.2307 40.4453 66.1855 40.4906 66.2036 40.5267C66.2126 40.5448 66.2216 40.5719 66.2307 40.59C66.0318 40.5991 65.842 40.5538 65.6703 40.4634C65.6251 40.4363 65.5708 40.4996 65.607 40.5358C65.6341 40.5629 65.6522 40.59 65.6703 40.6262C65.5076 40.6623 65.3358 40.6081 65.2274 40.4815C65.1912 40.4453 65.1099 40.4725 65.137 40.5267C65.1641 40.5719 65.1822 40.6262 65.2093 40.6714C64.9833 40.6533 64.7664 40.59 64.5585 40.4906C64.5223 40.4725 64.4681 40.5177 64.4862 40.5538C64.5133 40.6081 64.5314 40.6533 64.5404 40.7076C64.3596 40.6352 64.1879 40.5538 64.0162 40.4634C63.971 40.4363 63.8986 40.4815 63.9438 40.5267C63.9981 40.581 64.0252 40.6443 64.0433 40.7076C63.8263 40.6623 63.6365 40.5719 63.4648 40.4363C63.4196 40.4001 63.3563 40.4634 63.3834 40.5086C63.4196 40.5538 63.4377 40.6081 63.4467 40.6533C63.2659 40.5991 63.1213 40.4996 63.0038 40.364C62.9586 40.3097 62.8773 40.373 62.9134 40.4273C62.9496 40.4815 62.9676 40.5267 62.9767 40.581C62.7959 40.4453 62.6061 40.3368 62.3982 40.2464C62.353 40.2283 62.3078 40.2735 62.3259 40.3097C62.344 40.3549 62.353 40.3911 62.362 40.4273C62.1722 40.3368 61.9824 40.2374 61.8016 40.1289C61.7655 40.1108 61.7022 40.1289 61.7112 40.1741C61.7203 40.2193 61.7293 40.2645 61.7383 40.3097C61.5485 40.2464 61.3768 40.1379 61.2412 40.0023C61.2051 39.9661 61.1327 39.9842 61.1418 40.0385C61.1508 40.0746 61.1508 40.1108 61.1599 40.1379C60.9248 40.0656 60.717 39.948 60.5362 39.8034C60.5091 39.7762 60.4639 39.8034 60.4639 39.8395C60.4639 39.8757 60.4729 39.9119 60.4729 39.948C60.2831 39.8124 60.1023 39.6768 59.9125 39.5412C59.9035 39.5231 59.8854 39.514 59.8583 39.505C59.8221 39.4959 59.804 39.5412 59.8311 39.5592C59.8311 39.5592 59.8311 39.5592 59.8402 39.5592C59.6775 39.5231 59.5148 39.3784 59.3702 39.3061C59.343 39.288 59.325 39.2789 59.2978 39.2699C61.9914 39.6949 64.6941 40.0656 67.4057 40.373C67.1707 40.4001 66.9176 40.4273 66.6736 40.4273ZM63.275 38.863C63.2478 38.9082 63.2117 38.9534 63.1665 38.9896C63.1123 39.0258 63.1755 39.1071 63.2298 39.071C63.3834 38.9715 63.5642 38.9173 63.745 38.9173C63.7179 38.9625 63.6908 39.0077 63.6365 39.0439C63.5913 39.08 63.6275 39.1524 63.6908 39.1343C63.8986 39.0529 64.1065 39.0167 64.3325 39.0258C64.2964 39.0891 64.2512 39.1343 64.1789 39.1704C64.1246 39.2066 64.1789 39.2699 64.2331 39.2518C64.4229 39.2066 64.6218 39.1704 64.8116 39.1524C64.7845 39.1976 64.7483 39.2428 64.7031 39.288C64.676 39.3151 64.7031 39.3694 64.7483 39.3694C64.9743 39.3332 65.2002 39.3332 65.4262 39.3694C65.3901 39.4146 65.3449 39.4507 65.3087 39.4959C65.2635 39.5412 65.3358 39.5954 65.381 39.5683C65.5256 39.4779 65.7064 39.4779 65.851 39.5502C65.8239 39.5773 65.7968 39.6045 65.7607 39.6225C65.7155 39.6497 65.7426 39.722 65.7968 39.713C65.9957 39.6677 66.1855 39.6768 66.3753 39.7401C66.3572 39.7582 66.3391 39.7762 66.3211 39.7943C66.294 39.8305 66.3211 39.8847 66.3663 39.8757C66.4928 39.8576 66.6103 39.8757 66.7278 39.9209C66.7188 39.93 66.7188 39.93 66.7097 39.939C66.6917 39.9571 66.7007 40.0023 66.7278 40.0113C66.9719 40.0837 67.2069 40.1741 67.4509 40.2555C64.7573 39.948 62.0818 39.5773 59.4063 39.1614C59.5419 39.1614 59.6775 39.1614 59.8131 39.1524C59.9396 39.1524 60.0752 39.1433 60.2017 39.1433C60.2831 39.1433 60.3825 39.1524 60.4639 39.1252C60.5181 39.1071 60.5543 39.071 60.5633 39.0348C60.9429 39.0619 61.3135 39.0891 61.6932 39.1162C61.7474 39.1162 61.7745 39.071 61.7474 39.0348C61.7203 38.9986 61.6932 38.9625 61.657 38.9263C61.9643 38.9444 62.2807 38.9173 62.588 38.863C62.5699 38.8901 62.5609 38.9082 62.5338 38.9354C62.4976 38.9715 62.5338 39.0258 62.579 39.0167C62.8411 38.9986 63.058 38.9444 63.275 38.863ZM69.9909 35.2372C69.9457 35.2644 69.9457 35.3186 69.9909 35.3457C69.9999 35.3548 70.0089 35.3548 70.018 35.3638C69.8734 35.4723 69.7016 35.5356 69.5118 35.5537C69.4395 35.5627 69.4124 35.6441 69.4666 35.6712C69.4937 35.6893 69.5299 35.7074 69.557 35.7255C69.3039 35.8792 69.0327 35.9606 68.7254 35.9696C68.6441 35.9696 68.626 36.0781 68.6983 36.0962C68.7525 36.1053 68.8068 36.1233 68.8429 36.1505C68.6531 36.3042 68.4 36.3584 68.156 36.3042C68.0746 36.2861 68.0023 36.3765 68.0746 36.4217C68.1469 36.4579 68.2192 36.4941 68.2825 36.5393C67.9661 36.6749 67.6407 36.7563 67.2973 36.7924C67.234 36.8015 67.1978 36.8829 67.2521 36.91C67.3244 36.9461 67.3877 36.9914 67.4509 37.0456C67.1617 37.0908 66.8724 37.127 66.5742 37.136C66.4928 37.136 66.4386 37.2445 66.529 37.2626C66.6374 37.2897 66.7278 37.3349 66.8001 37.3982C66.4838 37.4977 66.1674 37.5248 65.842 37.4977C65.7516 37.4887 65.7155 37.5972 65.7968 37.6243C65.8782 37.6514 65.9414 37.6966 65.9866 37.7418C65.7155 37.8051 65.4443 37.8051 65.1822 37.7328C65.0827 37.7057 65.0285 37.8232 65.1189 37.8594C65.2093 37.8865 65.2726 37.9317 65.3268 37.986C64.9924 37.9588 64.6579 37.9769 64.3144 38.0221C64.2421 38.0312 64.215 38.1125 64.2692 38.1487C64.3235 38.1758 64.3687 38.212 64.4048 38.2572C64.0885 38.2934 63.7631 38.3115 63.4467 38.3205C63.3834 38.3205 63.3111 38.3838 63.3654 38.4381C63.4105 38.4833 63.4648 38.5285 63.51 38.5737C63.2117 38.637 62.9134 38.637 62.6242 38.5737C62.5518 38.5556 62.4705 38.6279 62.5247 38.6822C62.5609 38.7183 62.597 38.7455 62.6332 38.7816C62.2716 38.863 61.9101 38.8811 61.5485 38.8449C61.4943 38.8359 61.4581 38.8992 61.4853 38.9354C61.5214 38.9715 61.5485 39.0077 61.5847 39.0439C61.2322 39.0258 60.8887 39.0077 60.5362 38.9896C60.5181 38.9806 60.4819 38.9806 60.4458 38.9896C60.4006 39.0077 60.4096 39.0619 60.4548 39.0619H60.4639C60.2289 39.1252 59.9035 39.0981 59.6594 39.1071C59.4967 39.1162 59.343 39.1252 59.1803 39.1343C59.1894 39.1252 59.1894 39.1252 59.1984 39.1162C61.2593 38.3024 63.3202 37.4977 65.381 36.6839C67.2882 35.9335 69.1954 35.1106 71.184 34.5681C70.7863 34.749 70.3976 35.0202 69.9909 35.2372ZM71.5546 34.3511C71.5546 34.3421 71.5456 34.333 71.5365 34.324C71.5817 34.315 71.6179 34.3059 71.6631 34.2969C71.6269 34.315 71.5907 34.333 71.5546 34.3511Z" fill="#8E39A1"/>
</svg>
