<svg width="1920" height="177" viewBox="0 0 1920 177" fill="none" xmlns="http://www.w3.org/2000/svg">
<rect x="-3" width="1923" height="177" fill="#E8E1F2"/>
<mask id="mask0" mask-type="alpha" maskUnits="userSpaceOnUse" x="-3" y="0" width="1923" height="177">
<rect x="-3" width="1923" height="177" fill="#E8E1F2"/>
</mask>
<g mask="url(#mask0)">
<path opacity="0.2" d="M1502 163.763C1593.98 67.7279 1808.63 -148.764 1931.39 -246.447L2295.86 -337.933L2295.86 512L1901.88 512L1502 163.763Z" fill="white" fill-opacity="0.3"/>
<path opacity="0.5" d="M1546.27 159.337C1638.25 63.3012 1852.89 -153.191 1975.66 -250.874L2340.13 -342.36L2340.13 507.573L1946.15 507.573L1546.27 159.337Z" fill="white" fill-opacity="0.3"/>
<path d="M1602.71 152.697C1694.69 56.6611 1909.33 -159.831 2032.1 -257.514L2396.57 -349L2396.57 500.933L2002.59 500.933L1602.71 152.697Z" fill="white" fill-opacity="0.3"/>
<path opacity="0.2" d="M398.811 210.206C220.366 235.549 -189.687 286.564 -402.329 287.882L-867.395 80.2136L-155.727 -825.674L264.19 -495.787L398.811 210.206Z" fill="white" fill-opacity="0.3"/>
<path opacity="0.5" d="M347.923 177.858C169.477 203.201 -240.575 254.216 -453.218 255.534L-918.283 47.8657L-206.615 -858.022L213.301 -528.134L347.923 177.858Z" fill="white" fill-opacity="0.3"/>
<path d="M282.206 137.676C103.761 163.019 -306.292 214.034 -518.934 215.352L-984 7.68378L-272.332 -898.204L147.585 -568.316L282.206 137.676Z" fill="white" fill-opacity="0.3"/>
</g>
</svg>
