<svg width="10" height="11" viewBox="0 0 10 11" fill="none" xmlns="http://www.w3.org/2000/svg">
<g clip-path="url(#clip0)">
<path d="M9.1976 7.10682C8.58536 7.10682 7.98422 7.01107 7.41456 6.82281C7.13542 6.7276 6.79227 6.81495 6.6219 6.98992L5.4975 7.83872C4.19352 7.14266 3.39029 6.33969 2.70372 5.04549L3.52755 3.95039C3.74159 3.73664 3.81836 3.4244 3.72638 3.13143C3.53732 2.55878 3.44128 1.95792 3.44128 1.34542C3.4413 0.902943 3.08133 0.542969 2.63888 0.542969H0.802422C0.359974 0.542969 0 0.902943 0 1.34539C0 6.41701 4.12599 10.543 9.1976 10.543C9.64005 10.543 10 10.183 10 9.74055V7.90922C10 7.4668 9.64003 7.10682 9.1976 7.10682Z" fill="#E8E1F2"/>
</g>
<defs>
<clipPath id="clip0">
<rect width="10" height="10" fill="white" transform="translate(0 0.542969)"/>
</clipPath>
</defs>
</svg>
