<svg width="27" height="27" viewBox="0 0 27 27" fill="none" xmlns="http://www.w3.org/2000/svg">
<g clip-path="url(#clip0)">
<path d="M26.1665 5.37098L26.1665 5.37098C26.4054 5.38119 26.6254 5.50227 26.7622 5.69827C26.8989 5.89438 26.9365 6.14289 26.8632 6.37004L26.8632 6.37021L23.2536 17.6322L23.2536 17.6322C23.1521 17.9492 22.8572 18.1645 22.524 18.1645H9.45934H9.38906L9.36525 18.2307L8.58568 20.3964L8.5375 20.5302H8.67977H22.524C22.8675 20.5302 23.146 20.8086 23.146 21.1522C23.146 21.4956 22.8676 21.774 22.524 21.774H21.7124H21.4882L21.638 21.9409C22.0359 22.3837 22.2796 22.9663 22.2796 23.6067C22.2796 24.9845 21.1587 26.1056 19.7807 26.1056C18.4029 26.1056 17.2818 24.9845 17.2818 23.6067C17.2818 22.9662 17.5256 22.3838 17.9237 21.9409L18.0737 21.774H17.8493H12.1831H11.9588L12.1087 21.9409C12.5066 22.3838 12.7504 22.9663 12.7504 23.6067C12.7504 24.9845 11.6291 26.1056 10.2515 26.1056C8.8739 26.1056 7.75259 24.9845 7.75259 23.6067C7.75259 22.9662 7.99641 22.3838 8.39434 21.9409L8.54424 21.774H8.31996H7.65259C7.45022 21.774 7.26058 21.6755 7.14393 21.5097L7.14388 21.5096C7.02721 21.3441 6.99889 21.1324 7.06753 20.9415C7.06753 20.9415 7.06753 20.9415 7.06754 20.9415L8.019 18.2986L8.0672 18.1648H7.92491H7.50824C7.13835 18.1648 6.82139 17.9007 6.75439 17.537C6.75439 17.537 6.75439 17.5369 6.75439 17.5369L4.24251 3.86124L4.23246 3.80655L4.18072 3.78623L0.586126 2.37409C0.192319 2.21935 -0.00131153 1.77439 0.153195 1.38044C0.307941 0.9869 0.752684 0.79317 1.14699 0.947545L5.18957 2.53571L5.18962 2.53573C5.43628 2.6325 5.61519 2.84984 5.6632 3.11047L8.13151 16.5503L8.14656 16.6322H8.22987H21.8923H21.9653L21.9875 16.5627L25.0577 6.9837L25.0977 6.85891L24.9668 6.85327L9.35229 6.18016L9.35228 6.18016C8.92926 6.16199 8.60163 5.80471 8.61968 5.38171C8.63787 4.95834 8.99299 4.63045 9.41805 4.64905L9.41812 4.64905L26.1665 5.37098ZM8.99645 23.607C8.99645 24.2992 9.55929 24.862 10.2515 24.862C10.9438 24.862 11.5066 24.2992 11.5066 23.607C11.5066 22.9147 10.9438 22.3519 10.2515 22.3519C9.55928 22.3519 8.99645 22.9147 8.99645 23.607ZM18.5257 23.607C18.5257 24.2992 19.0885 24.862 19.7807 24.862C20.473 24.862 21.0358 24.2992 21.0358 23.607C21.0358 22.9147 20.473 22.3519 19.7807 22.3519C19.0885 22.3519 18.5257 22.9147 18.5257 23.607Z" fill="#B8B8B8" stroke="white" stroke-width="0.2"/>
</g>
<defs>
</defs>
</svg>
