<svg width="29" height="25" viewBox="0 0 29 25" fill="none" xmlns="http://www.w3.org/2000/svg">
<path d="M24.9663 21.3231L19.2427 15.7909C20.4315 14.515 21.1622 12.8329 21.1622 10.9848C21.1621 7.01643 17.8219 3.78784 13.7162 3.78784C9.61054 3.78784 6.27026 7.01643 6.27026 10.9848C6.27026 14.9532 9.61054 18.1818 13.7162 18.1818C15.6283 18.1818 17.3686 17.4756 18.6886 16.3265L24.4121 21.8587C24.4886 21.9327 24.5889 21.9697 24.6892 21.9697C24.7895 21.9697 24.8897 21.9327 24.9663 21.8587C25.1194 21.7107 25.1194 21.471 24.9663 21.3231ZM13.7162 17.4242C10.043 17.4242 7.05407 14.5356 7.05407 10.9848C7.05407 7.43408 10.043 4.54541 13.7162 4.54541C17.3894 4.54541 20.3784 7.43404 20.3784 10.9848C20.3784 14.5356 17.3894 17.4242 13.7162 17.4242Z" fill="#B8B8B8" stroke="#B8B8B8"/>
</svg>
