<svg width="27" height="27" viewBox="0 0 27 27" fill="none" xmlns="http://www.w3.org/2000/svg">
<g clip-path="url(#clip0)">
<path d="M2.77677 24.1835L2.76434 24.345H2.92633H24.074H24.236L24.2236 24.1835C24.0268 21.6288 23.0243 19.6876 21.2167 18.39C19.4152 17.0968 16.8329 16.4563 13.5 16.4563C10.1671 16.4563 7.58478 17.0968 5.78339 18.39C3.97576 19.6876 2.97336 21.6288 2.77677 24.1835ZM1.06968 25.1475C1.06968 21.8146 2.17331 19.2492 4.26347 17.5136C6.35805 15.7743 9.46399 14.8512 13.5 14.8512C17.536 14.8512 20.6419 15.7744 22.7365 17.5137C24.8267 19.2494 25.9303 21.8148 25.9302 25.1475C25.9302 25.5861 25.5611 25.9501 25.0949 25.9501H1.90507C1.43881 25.9501 1.06968 25.5861 1.06968 25.1475Z" fill="#B8B8B8" stroke="white" stroke-width="0.3"/>
<path d="M7.11362 6.44532C7.11362 2.8558 9.85448 0.15 13.5001 0.15C17.1457 0.15 19.8866 2.8558 19.8866 6.44563C19.8866 10.1513 17.0148 13.1537 13.5001 13.1537C9.98542 13.1537 7.11362 10.1513 7.11362 6.44532ZM8.78441 6.44563C8.78441 9.248 10.8883 11.5489 13.5001 11.5489C16.1119 11.5489 18.2158 9.248 18.2158 6.44563C18.2158 3.77326 16.1853 1.7551 13.5001 1.7551C10.7726 1.7551 8.78441 3.73105 8.78441 6.44563Z" fill="#B8B8B8" stroke="white" stroke-width="0.3"/>
</g>
<defs>
</defs>
</svg>
