<svg width="11" height="12" viewBox="0 0 11 12" fill="none" xmlns="http://www.w3.org/2000/svg">
<g clip-path="url(#clip0)">
<path d="M5.4999 0.542969C3.41497 0.542969 1.71875 2.23919 1.71875 4.32411V4.33847C1.71875 5.08584 1.91919 5.8213 2.29838 6.46529L5.19445 11.3839C5.2523 11.4821 5.3576 11.5426 5.47159 11.543H5.47271C5.58624 11.543 5.69151 11.4833 5.74982 11.3858L8.68665 6.47582C9.0755 5.82571 9.28104 5.08166 9.28104 4.32411C9.28104 2.23919 7.58482 0.542969 5.4999 0.542969V0.542969ZM5.47273 6.01915C4.57504 6.01915 3.84733 5.29144 3.84733 4.39375C3.84733 3.49607 4.57504 2.76836 5.47273 2.76836C6.37042 2.76836 7.09813 3.49607 7.09813 4.39375C7.09813 5.29142 6.37042 6.01915 5.47273 6.01915Z" fill="#E8E1F2"/>
</g>
<defs>
<clipPath id="clip0">
<rect width="11" height="11" fill="white" transform="translate(0 0.542969)"/>
</clipPath>
</defs>
</svg>
