<svg width="28" height="28" viewBox="0 0 28 28" fill="none" xmlns="http://www.w3.org/2000/svg">
<path d="M27.5172 23.1725H0.48278C0.216179 23.1725 0 22.9563 0 22.6897V5.31042C0 5.04382 0.216179 4.82764 0.48278 4.82764H27.5172C27.7838 4.82764 28 5.04382 28 5.31042V22.6897C27.9999 22.9563 27.7838 23.1725 27.5172 23.1725Z" fill="#F5F5F5"/>
<path d="M27.9999 6.23884H0V5.31042C0 5.04382 0.216179 4.82764 0.48278 4.82764H27.5172C27.7838 4.82764 28 5.04382 28 5.31042L27.9999 6.23884Z" fill="#FF4B55"/>
<path d="M28 10.4722H0V11.8833H28V10.4722Z" fill="#FF4B55"/>
<path d="M28 7.6499H0V9.06106H28V7.6499Z" fill="#FF4B55"/>
<path d="M28 14.7056H0.48278C0.216179 14.7056 0 14.4895 0 14.2229V13.2944H28V14.7056Z" fill="#FF4B55"/>
<path d="M28 18.9395H0V20.3506H28V18.9395Z" fill="#FF4B55"/>
<path d="M27.5172 23.1724H0.48278C0.216179 23.1724 0 22.9562 0 22.6896V21.7612H28V22.6897C28 22.9563 27.7838 23.1724 27.5172 23.1724Z" fill="#FF4B55"/>
<path d="M28 16.1169H0V17.5281H28V16.1169Z" fill="#FF4B55"/>
<path d="M12.5517 4.82764H0.48278C0.216179 4.82764 0 5.04376 0 5.31036V14.2228C0 14.4894 0.216179 14.7055 0.48278 14.7055H12.5517C12.8183 14.7055 13.0345 14.4894 13.0345 14.2228V5.31036C13.0345 5.04376 12.8183 4.82764 12.5517 4.82764Z" fill="#41479B"/>
<path d="M1.35562 5.93591L1.46248 6.25638L1.80029 6.25895C1.84404 6.25933 1.86214 6.31511 1.82698 6.34109L1.55523 6.54179L1.65717 6.86384C1.67041 6.90552 1.62288 6.94008 1.58728 6.91459L1.31248 6.71821L1.03767 6.91465C1.00207 6.94008 0.954657 6.90557 0.967782 6.8639L1.06972 6.54185L0.797978 6.34114C0.762814 6.31511 0.780915 6.25939 0.824665 6.259L1.16247 6.25643L1.26933 5.93596C1.28311 5.8944 1.34173 5.8944 1.35562 5.93591Z" fill="#F5F5F5"/>
<path d="M1.35562 7.61214L1.46248 7.93261L1.80029 7.93518C1.84404 7.93556 1.86214 7.99134 1.82698 8.01732L1.55523 8.21802L1.65717 8.54007C1.67041 8.58174 1.62288 8.61631 1.58728 8.59082L1.31248 8.39444L1.03767 8.59088C1.00207 8.61631 0.954657 8.5818 0.967782 8.54013L1.06972 8.21807L0.797978 8.01737C0.762814 7.99134 0.780915 7.93561 0.824665 7.93523L1.16247 7.93266L1.26933 7.61219C1.28311 7.57068 1.34173 7.57068 1.35562 7.61214Z" fill="#F5F5F5"/>
<path d="M1.35562 9.28841L1.46248 9.60888L1.80029 9.61145C1.84404 9.61183 1.86214 9.66761 1.82698 9.69359L1.55523 9.89429L1.65717 10.2163C1.67041 10.258 1.62288 10.2926 1.58728 10.2671L1.31248 10.0707L1.03767 10.2672C1.00207 10.2926 0.954657 10.2581 0.967782 10.2164L1.06972 9.89435L0.797978 9.69364C0.762814 9.66761 0.780915 9.61188 0.824665 9.6115L1.16247 9.60893L1.26933 9.28846C1.28311 9.24695 1.34173 9.24695 1.35562 9.28841Z" fill="#F5F5F5"/>
<path d="M1.35562 10.965L1.46248 11.2854L1.80029 11.288C1.84404 11.2884 1.86214 11.3442 1.82698 11.3701L1.55523 11.5708L1.65717 11.8929C1.67041 11.9346 1.62288 11.9691 1.58728 11.9436L1.31248 11.7473L1.03767 11.9437C1.00207 11.9691 0.954657 11.9346 0.967782 11.893L1.06972 11.5709L0.797978 11.3702C0.762814 11.3442 0.780915 11.2884 0.824665 11.2881L1.16247 11.2855L1.26933 10.965C1.28311 10.9235 1.34173 10.9235 1.35562 10.965Z" fill="#F5F5F5"/>
<path d="M1.35562 12.6413L1.46248 12.9617L1.80029 12.9643C1.84404 12.9647 1.86214 13.0205 1.82698 13.0465L1.55523 13.2472L1.65717 13.5692C1.67041 13.6109 1.62288 13.6454 1.58728 13.62L1.31248 13.4236L1.03767 13.62C1.00207 13.6454 0.954657 13.6109 0.967782 13.5693L1.06972 13.2472L0.797978 13.0465C0.762814 13.0205 0.780915 12.9647 0.824665 12.9644L1.16247 12.9618L1.26933 12.6413C1.28311 12.5997 1.34173 12.5997 1.35562 12.6413Z" fill="#F5F5F5"/>
<path d="M2.65677 6.75765L2.76363 7.07812L3.10143 7.08069C3.14518 7.08107 3.16329 7.13685 3.12812 7.16283L2.85638 7.36353L2.95832 7.68559C2.97155 7.72726 2.92403 7.76182 2.88843 7.73634L2.61362 7.5399L2.33882 7.73634C2.30322 7.76177 2.2558 7.72726 2.26893 7.68559L2.37087 7.36353L2.09912 7.16283C2.06396 7.1368 2.08206 7.08107 2.12581 7.08069L2.46362 7.07812L2.57048 6.75765C2.5842 6.7162 2.64294 6.7162 2.65677 6.75765Z" fill="#F5F5F5"/>
<path d="M2.65677 8.43396L2.76363 8.75443L3.10143 8.757C3.14518 8.75738 3.16329 8.81316 3.12812 8.83914L2.85638 9.03984L2.95832 9.3619C2.97155 9.40357 2.92403 9.43813 2.88843 9.41264L2.61362 9.21621L2.33882 9.41264C2.30322 9.43807 2.2558 9.40362 2.26893 9.3619L2.37087 9.03984L2.09912 8.83914C2.06396 8.81311 2.08206 8.75738 2.12581 8.757L2.46362 8.75443L2.57048 8.43396C2.5842 8.39246 2.64294 8.39246 2.65677 8.43396Z" fill="#F5F5F5"/>
<path d="M2.65677 10.1105L2.76363 10.4309L3.10143 10.4335C3.14518 10.4339 3.16329 10.4897 3.12812 10.5157L2.85638 10.7164L2.95832 11.0384C2.97155 11.0801 2.92403 11.1146 2.88843 11.0892L2.61362 10.8927L2.33882 11.0892C2.30322 11.1146 2.2558 11.0801 2.26893 11.0384L2.37087 10.7164L2.09912 10.5157C2.06396 10.4896 2.08206 10.4339 2.12581 10.4335L2.46362 10.4309L2.57048 10.1105C2.5842 10.069 2.64294 10.069 2.65677 10.1105Z" fill="#F5F5F5"/>
<path d="M2.65677 11.7869L2.76363 12.1074L3.10143 12.11C3.14518 12.1104 3.16329 12.1662 3.12812 12.1921L2.85638 12.3928L2.95832 12.7149C2.97155 12.7566 2.92403 12.7911 2.88843 12.7656L2.61362 12.5692L2.33882 12.7656C2.30322 12.7911 2.2558 12.7566 2.26893 12.7149L2.37087 12.3928L2.09912 12.1921C2.06396 12.1661 2.08206 12.1104 2.12581 12.11L2.46362 12.1074L2.57048 11.7869C2.5842 11.7455 2.64294 11.7455 2.65677 11.7869Z" fill="#F5F5F5"/>
<path d="M3.95804 5.93567L4.0649 6.25614L4.40271 6.25871C4.44646 6.25909 4.46456 6.31487 4.42939 6.34085L4.15765 6.54155L4.25959 6.86361C4.27282 6.90528 4.2253 6.93984 4.1897 6.91436L3.91489 6.71792L3.64009 6.91436C3.60449 6.93979 3.55707 6.90528 3.5702 6.86361L3.67214 6.54155L3.40039 6.34085C3.36523 6.31482 3.38333 6.25909 3.42708 6.25871L3.76489 6.25614L3.87175 5.93567C3.88553 5.89416 3.94421 5.89416 3.95804 5.93567Z" fill="#F5F5F5"/>
<path d="M3.95804 7.61214L4.0649 7.93261L4.40271 7.93518C4.44646 7.93557 4.46456 7.99135 4.42939 8.01732L4.15765 8.21803L4.25959 8.54008C4.27282 8.58175 4.2253 8.61631 4.1897 8.59083L3.91489 8.39439L3.64009 8.59083C3.60449 8.61626 3.55707 8.58175 3.5702 8.54008L3.67214 8.21803L3.40039 8.01732C3.36523 7.99129 3.38333 7.93557 3.42708 7.93518L3.76489 7.93261L3.87175 7.61214C3.88553 7.57069 3.94421 7.57069 3.95804 7.61214Z" fill="#F5F5F5"/>
<path d="M3.95804 9.28841L4.0649 9.60888L4.40271 9.61145C4.44646 9.61184 4.46456 9.66762 4.42939 9.69359L4.15765 9.8943L4.25959 10.2164C4.27282 10.258 4.2253 10.2926 4.1897 10.2671L3.91489 10.0707L3.64009 10.2671C3.60449 10.2925 3.55707 10.258 3.5702 10.2164L3.67214 9.8943L3.40039 9.69359C3.36523 9.66756 3.38333 9.61184 3.42708 9.61145L3.76489 9.60888L3.87175 9.28841C3.88553 9.24696 3.94421 9.24696 3.95804 9.28841Z" fill="#F5F5F5"/>
<path d="M3.95804 10.965L4.0649 11.2854L4.40271 11.288C4.44646 11.2884 4.46456 11.3442 4.42939 11.3701L4.15765 11.5709L4.25959 11.8929C4.27282 11.9346 4.2253 11.9691 4.1897 11.9437L3.91489 11.7472L3.64009 11.9437C3.60449 11.9691 3.55707 11.9346 3.5702 11.8929L3.67214 11.5709L3.40039 11.3701C3.36523 11.3441 3.38333 11.2884 3.42708 11.288L3.76489 11.2854L3.87175 10.965C3.88553 10.9235 3.94421 10.9235 3.95804 10.965Z" fill="#F5F5F5"/>
<path d="M3.95804 12.6413L4.0649 12.9617L4.40271 12.9643C4.44646 12.9647 4.46456 13.0205 4.42939 13.0465L4.15765 13.2472L4.25959 13.5692C4.27282 13.6109 4.2253 13.6455 4.1897 13.62L3.91489 13.4235L3.64009 13.62C3.60449 13.6454 3.55707 13.6109 3.5702 13.5692L3.67214 13.2472L3.40039 13.0465C3.36523 13.0204 3.38333 12.9647 3.42708 12.9643L3.76489 12.9617L3.87175 12.6413C3.88553 12.5997 3.94421 12.5997 3.95804 12.6413Z" fill="#F5F5F5"/>
<path d="M5.25919 6.75765L5.36605 7.07812L5.70385 7.08069C5.7476 7.08107 5.7657 7.13685 5.73054 7.16283L5.4588 7.36353L5.56074 7.68559C5.57397 7.72726 5.52645 7.76182 5.49085 7.73634L5.21604 7.5399L4.94124 7.73634C4.90564 7.76177 4.85822 7.72726 4.87135 7.68559L4.97328 7.36353L4.70154 7.16283C4.66638 7.1368 4.68448 7.08107 4.72823 7.08069L5.06603 7.07812L5.17289 6.75765C5.18662 6.7162 5.24535 6.7162 5.25919 6.75765Z" fill="#F5F5F5"/>
<path d="M5.25919 8.43396L5.36605 8.75443L5.70385 8.757C5.7476 8.75738 5.7657 8.81316 5.73054 8.83914L5.4588 9.03984L5.56074 9.3619C5.57397 9.40357 5.52645 9.43813 5.49085 9.41264L5.21604 9.21621L4.94124 9.41264C4.90564 9.43807 4.85822 9.40362 4.87135 9.3619L4.97328 9.03984L4.70154 8.83914C4.66638 8.81311 4.68448 8.75738 4.72823 8.757L5.06603 8.75443L5.17289 8.43396C5.18662 8.39246 5.24535 8.39246 5.25919 8.43396Z" fill="#F5F5F5"/>
<path d="M5.25919 10.1105L5.36605 10.4309L5.70385 10.4335C5.7476 10.4339 5.7657 10.4897 5.73054 10.5157L5.4588 10.7164L5.56074 11.0384C5.57397 11.0801 5.52645 11.1146 5.49085 11.0892L5.21604 10.8927L4.94124 11.0892C4.90564 11.1146 4.85822 11.0801 4.87135 11.0384L4.97328 10.7164L4.70154 10.5157C4.66638 10.4896 4.68448 10.4339 4.72823 10.4335L5.06603 10.4309L5.17289 10.1105C5.18662 10.069 5.24535 10.069 5.25919 10.1105Z" fill="#F5F5F5"/>
<path d="M5.25919 11.7869L5.36605 12.1074L5.70385 12.11C5.7476 12.1104 5.7657 12.1662 5.73054 12.1921L5.4588 12.3928L5.56074 12.7149C5.57397 12.7566 5.52645 12.7911 5.49085 12.7656L5.21604 12.5692L4.94124 12.7656C4.90564 12.7911 4.85822 12.7566 4.87135 12.7149L4.97328 12.3928L4.70154 12.1921C4.66638 12.1661 4.68448 12.1104 4.72823 12.11L5.06603 12.1074L5.17289 11.7869C5.18662 11.7455 5.24535 11.7455 5.25919 11.7869Z" fill="#F5F5F5"/>
<path d="M6.56039 5.93567L6.66725 6.25614L7.00506 6.25871C7.04881 6.25909 7.06691 6.31487 7.03175 6.34085L6.76 6.54155L6.86194 6.86361C6.87517 6.90528 6.82765 6.93984 6.79205 6.91436L6.51719 6.71792L6.24239 6.91436C6.20678 6.93979 6.15937 6.90528 6.17249 6.86361L6.27443 6.54155L6.00269 6.34085C5.96753 6.31482 5.98563 6.25909 6.02938 6.25871L6.36718 6.25614L6.47404 5.93567C6.48788 5.89416 6.54656 5.89416 6.56039 5.93567Z" fill="#F5F5F5"/>
<path d="M6.56039 7.61214L6.66725 7.93261L7.00506 7.93518C7.04881 7.93557 7.06691 7.99135 7.03175 8.01732L6.76 8.21803L6.86194 8.54008C6.87517 8.58175 6.82765 8.61631 6.79205 8.59083L6.51719 8.39439L6.24239 8.59083C6.20678 8.61626 6.15937 8.58175 6.17249 8.54008L6.27443 8.21803L6.00269 8.01732C5.96753 7.99129 5.98563 7.93557 6.02938 7.93518L6.36718 7.93261L6.47404 7.61214C6.48788 7.57069 6.54656 7.57069 6.56039 7.61214Z" fill="#F5F5F5"/>
<path d="M6.56039 9.28841L6.66725 9.60888L7.00506 9.61145C7.04881 9.61184 7.06691 9.66762 7.03175 9.69359L6.76 9.8943L6.86194 10.2164C6.87517 10.258 6.82765 10.2926 6.79205 10.2671L6.51719 10.0707L6.24239 10.2671C6.20678 10.2925 6.15937 10.258 6.17249 10.2164L6.27443 9.8943L6.00269 9.69359C5.96753 9.66756 5.98563 9.61184 6.02938 9.61145L6.36718 9.60888L6.47404 9.28841C6.48788 9.24696 6.54656 9.24696 6.56039 9.28841Z" fill="#F5F5F5"/>
<path d="M6.56039 10.965L6.66725 11.2854L7.00506 11.288C7.04881 11.2884 7.06691 11.3442 7.03175 11.3701L6.76 11.5709L6.86194 11.8929C6.87517 11.9346 6.82765 11.9691 6.79205 11.9437L6.51719 11.7472L6.24239 11.9437C6.20678 11.9691 6.15937 11.9346 6.17249 11.8929L6.27443 11.5709L6.00269 11.3701C5.96753 11.3441 5.98563 11.2884 6.02938 11.288L6.36718 11.2854L6.47404 10.965C6.48788 10.9235 6.54656 10.9235 6.56039 10.965Z" fill="#F5F5F5"/>
<path d="M6.56039 12.6413L6.66725 12.9617L7.00506 12.9643C7.04881 12.9647 7.06691 13.0205 7.03175 13.0465L6.76 13.2472L6.86194 13.5692C6.87517 13.6109 6.82765 13.6455 6.79205 13.62L6.51719 13.4235L6.24239 13.62C6.20678 13.6454 6.15937 13.6109 6.17249 13.5692L6.27443 13.2472L6.00269 13.0465C5.96753 13.0204 5.98563 12.9647 6.02938 12.9643L6.36718 12.9617L6.47404 12.6413C6.48788 12.5997 6.54656 12.5997 6.56039 12.6413Z" fill="#F5F5F5"/>
<path d="M7.86161 6.75765L7.96847 7.07812L8.30627 7.08069C8.35002 7.08107 8.36812 7.13685 8.33296 7.16283L8.06122 7.36353L8.16315 7.68559C8.17639 7.72726 8.12887 7.76182 8.09326 7.73634L7.81846 7.5399L7.54365 7.73634C7.50805 7.76177 7.46064 7.72726 7.47376 7.68559L7.5757 7.36353L7.30396 7.16283C7.26879 7.1368 7.2869 7.08107 7.33065 7.08069L7.66845 7.07812L7.77531 6.75765C7.78915 6.7162 7.84777 6.7162 7.86161 6.75765Z" fill="#F5F5F5"/>
<path d="M7.86161 8.43396L7.96847 8.75443L8.30627 8.757C8.35002 8.75738 8.36812 8.81316 8.33296 8.83914L8.06122 9.03984L8.16315 9.3619C8.17639 9.40357 8.12887 9.43813 8.09326 9.41264L7.81846 9.21621L7.54365 9.41264C7.50805 9.43807 7.46064 9.40362 7.47376 9.3619L7.5757 9.03984L7.30396 8.83914C7.26879 8.81311 7.2869 8.75738 7.33065 8.757L7.66845 8.75443L7.77531 8.43396C7.78915 8.39246 7.84777 8.39246 7.86161 8.43396Z" fill="#F5F5F5"/>
<path d="M7.86161 10.1105L7.96847 10.4309L8.30627 10.4335C8.35002 10.4339 8.36812 10.4897 8.33296 10.5157L8.06122 10.7164L8.16315 11.0384C8.17639 11.0801 8.12887 11.1146 8.09326 11.0892L7.81846 10.8927L7.54365 11.0892C7.50805 11.1146 7.46064 11.0801 7.47376 11.0384L7.5757 10.7164L7.30396 10.5157C7.26879 10.4896 7.2869 10.4339 7.33065 10.4335L7.66845 10.4309L7.77531 10.1105C7.78915 10.069 7.84777 10.069 7.86161 10.1105Z" fill="#F5F5F5"/>
<path d="M7.86161 11.7869L7.96847 12.1074L8.30627 12.11C8.35002 12.1104 8.36812 12.1662 8.33296 12.1921L8.06122 12.3928L8.16315 12.7149C8.17639 12.7566 8.12887 12.7911 8.09326 12.7656L7.81846 12.5692L7.54365 12.7656C7.50805 12.7911 7.46064 12.7566 7.47376 12.7149L7.5757 12.3928L7.30396 12.1921C7.26879 12.1661 7.2869 12.1104 7.33065 12.11L7.66845 12.1074L7.77531 11.7869C7.78915 11.7455 7.84777 11.7455 7.86161 11.7869Z" fill="#F5F5F5"/>
<path d="M9.16275 5.93567L9.26961 6.25614L9.60742 6.25871C9.65117 6.25909 9.66927 6.31487 9.63411 6.34085L9.36236 6.54155L9.4643 6.86361C9.47754 6.90528 9.43001 6.93984 9.39441 6.91436L9.11961 6.71792L8.8448 6.91436C8.8092 6.93979 8.76179 6.90528 8.77491 6.86361L8.87685 6.54155L8.60511 6.34085C8.56994 6.31482 8.58804 6.25909 8.63179 6.25871L8.9696 6.25614L9.07646 5.93567C9.09018 5.89416 9.14892 5.89416 9.16275 5.93567Z" fill="#F5F5F5"/>
<path d="M9.16275 7.61214L9.26961 7.93261L9.60742 7.93518C9.65117 7.93557 9.66927 7.99135 9.63411 8.01732L9.36236 8.21803L9.4643 8.54008C9.47754 8.58175 9.43001 8.61631 9.39441 8.59083L9.11961 8.39439L8.8448 8.59083C8.8092 8.61626 8.76179 8.58175 8.77491 8.54008L8.87685 8.21803L8.60511 8.01732C8.56994 7.99129 8.58804 7.93557 8.63179 7.93518L8.9696 7.93261L9.07646 7.61214C9.09018 7.57069 9.14892 7.57069 9.16275 7.61214Z" fill="#F5F5F5"/>
<path d="M9.16275 9.28841L9.26961 9.60888L9.60742 9.61145C9.65117 9.61184 9.66927 9.66762 9.63411 9.69359L9.36236 9.8943L9.4643 10.2164C9.47754 10.258 9.43001 10.2926 9.39441 10.2671L9.11961 10.0707L8.8448 10.2671C8.8092 10.2925 8.76179 10.258 8.77491 10.2164L8.87685 9.8943L8.60511 9.69359C8.56994 9.66756 8.58804 9.61184 8.63179 9.61145L8.9696 9.60888L9.07646 9.28841C9.09018 9.24696 9.14892 9.24696 9.16275 9.28841Z" fill="#F5F5F5"/>
<path d="M9.16275 10.965L9.26961 11.2854L9.60742 11.288C9.65117 11.2884 9.66927 11.3442 9.63411 11.3701L9.36236 11.5709L9.4643 11.8929C9.47754 11.9346 9.43001 11.9691 9.39441 11.9437L9.11961 11.7472L8.8448 11.9437C8.8092 11.9691 8.76179 11.9346 8.77491 11.8929L8.87685 11.5709L8.60511 11.3701C8.56994 11.3441 8.58804 11.2884 8.63179 11.288L8.9696 11.2854L9.07646 10.965C9.09018 10.9235 9.14892 10.9235 9.16275 10.965Z" fill="#F5F5F5"/>
<path d="M9.16275 12.6413L9.26961 12.9617L9.60742 12.9643C9.65117 12.9647 9.66927 13.0205 9.63411 13.0465L9.36236 13.2472L9.4643 13.5692C9.47754 13.6109 9.43001 13.6455 9.39441 13.62L9.11961 13.4235L8.8448 13.62C8.8092 13.6454 8.76179 13.6109 8.77491 13.5692L8.87685 13.2472L8.60511 13.0465C8.56994 13.0204 8.58804 12.9647 8.63179 12.9643L8.9696 12.9617L9.07646 12.6413C9.09018 12.5997 9.14892 12.5997 9.16275 12.6413Z" fill="#F5F5F5"/>
<path d="M10.464 6.75765L10.5709 7.07812L10.9087 7.08069C10.9524 7.08107 10.9705 7.13685 10.9354 7.16283L10.6636 7.36353L10.7656 7.68559C10.7788 7.72726 10.7313 7.76182 10.6957 7.73634L10.4209 7.5399L10.1461 7.73634C10.1105 7.76177 10.0631 7.72726 10.0762 7.68559L10.1781 7.36353L9.90638 7.16283C9.87121 7.1368 9.88931 7.08107 9.93306 7.08069L10.2709 7.07812L10.3777 6.75765C10.3915 6.7162 10.4502 6.7162 10.464 6.75765Z" fill="#F5F5F5"/>
<path d="M10.464 8.43396L10.5709 8.75443L10.9087 8.757C10.9524 8.75738 10.9705 8.81316 10.9354 8.83914L10.6636 9.03984L10.7656 9.3619C10.7788 9.40357 10.7313 9.43813 10.6957 9.41264L10.4209 9.21621L10.1461 9.41264C10.1105 9.43807 10.0631 9.40362 10.0762 9.3619L10.1781 9.03984L9.90638 8.83914C9.87121 8.81311 9.88931 8.75738 9.93306 8.757L10.2709 8.75443L10.3777 8.43396C10.3915 8.39246 10.4502 8.39246 10.464 8.43396Z" fill="#F5F5F5"/>
<path d="M10.464 10.1105L10.5709 10.4309L10.9087 10.4335C10.9524 10.4339 10.9705 10.4897 10.9354 10.5157L10.6636 10.7164L10.7656 11.0384C10.7788 11.0801 10.7313 11.1146 10.6957 11.0892L10.4209 10.8927L10.1461 11.0892C10.1105 11.1146 10.0631 11.0801 10.0762 11.0384L10.1781 10.7164L9.90638 10.5157C9.87121 10.4896 9.88931 10.4339 9.93306 10.4335L10.2709 10.4309L10.3777 10.1105C10.3915 10.069 10.4502 10.069 10.464 10.1105Z" fill="#F5F5F5"/>
<path d="M10.464 11.7869L10.5709 12.1074L10.9087 12.11C10.9524 12.1104 10.9705 12.1662 10.9354 12.1921L10.6636 12.3928L10.7656 12.7149C10.7788 12.7566 10.7313 12.7911 10.6957 12.7656L10.4209 12.5692L10.1461 12.7656C10.1105 12.7911 10.0631 12.7566 10.0762 12.7149L10.1781 12.3928L9.90638 12.1921C9.87121 12.1661 9.88931 12.1104 9.93306 12.11L10.2709 12.1074L10.3777 11.7869C10.3915 11.7455 10.4502 11.7455 10.464 11.7869Z" fill="#F5F5F5"/>
<path d="M11.7652 5.93567L11.872 6.25614L12.2098 6.25871C12.2536 6.25909 12.2717 6.31487 12.2365 6.34085L11.9648 6.54155L12.0667 6.86361C12.08 6.90528 12.0324 6.93984 11.9968 6.91436L11.722 6.71792L11.4472 6.91436C11.4116 6.93979 11.3642 6.90528 11.3773 6.86361L11.4793 6.54155L11.2075 6.34085C11.1724 6.31482 11.1905 6.25909 11.2342 6.25871L11.572 6.25614L11.6789 5.93567C11.6927 5.89416 11.7513 5.89416 11.7652 5.93567Z" fill="#F5F5F5"/>
<path d="M11.7652 7.61214L11.872 7.93261L12.2098 7.93518C12.2536 7.93557 12.2717 7.99135 12.2365 8.01732L11.9648 8.21803L12.0667 8.54008C12.08 8.58175 12.0324 8.61631 11.9968 8.59083L11.722 8.39439L11.4472 8.59083C11.4116 8.61626 11.3642 8.58175 11.3773 8.54008L11.4793 8.21803L11.2075 8.01732C11.1724 7.99129 11.1905 7.93557 11.2342 7.93518L11.572 7.93261L11.6789 7.61214C11.6927 7.57069 11.7513 7.57069 11.7652 7.61214Z" fill="#F5F5F5"/>
<path d="M11.7652 9.28841L11.872 9.60888L12.2098 9.61145C12.2536 9.61184 12.2717 9.66762 12.2365 9.69359L11.9648 9.8943L12.0667 10.2164C12.08 10.258 12.0324 10.2926 11.9968 10.2671L11.722 10.0707L11.4472 10.2671C11.4116 10.2925 11.3642 10.258 11.3773 10.2164L11.4793 9.8943L11.2075 9.69359C11.1724 9.66756 11.1905 9.61184 11.2342 9.61145L11.572 9.60888L11.6789 9.28841C11.6927 9.24696 11.7513 9.24696 11.7652 9.28841Z" fill="#F5F5F5"/>
<path d="M11.7652 10.965L11.872 11.2854L12.2098 11.288C12.2536 11.2884 12.2717 11.3442 12.2365 11.3701L11.9648 11.5709L12.0667 11.8929C12.08 11.9346 12.0324 11.9691 11.9968 11.9437L11.722 11.7472L11.4472 11.9437C11.4116 11.9691 11.3642 11.9346 11.3773 11.8929L11.4793 11.5709L11.2075 11.3701C11.1724 11.3441 11.1905 11.2884 11.2342 11.288L11.572 11.2854L11.6789 10.965C11.6927 10.9235 11.7513 10.9235 11.7652 10.965Z" fill="#F5F5F5"/>
<path d="M11.7652 12.6413L11.872 12.9617L12.2098 12.9643C12.2536 12.9647 12.2717 13.0205 12.2365 13.0465L11.9648 13.2472L12.0667 13.5692C12.08 13.6109 12.0324 13.6455 11.9968 13.62L11.722 13.4235L11.4472 13.62C11.4116 13.6454 11.3642 13.6109 11.3773 13.5692L11.4793 13.2472L11.2075 13.0465C11.1724 13.0204 11.1905 12.9647 11.2342 12.9643L11.572 12.9617L11.6789 12.6413C11.6927 12.5997 11.7513 12.5997 11.7652 12.6413Z" fill="#F5F5F5"/>
</svg>
