<svg width="11" height="11" viewBox="0 0 11 11" fill="none" xmlns="http://www.w3.org/2000/svg">
<g clip-path="url(#clip0)">
<path d="M10.9892 3.23403C10.9634 2.64956 10.8689 2.24774 10.7335 1.89956C10.5939 1.52997 10.379 1.19908 10.0974 0.924009C9.82236 0.644657 9.48929 0.427589 9.12398 0.290096C8.77379 0.154701 8.37406 0.0601848 7.78959 0.0344153C7.20075 0.00646335 7.01382 0 5.52036 0C4.02691 0 3.83997 0.00646335 3.25332 0.0322329C2.66885 0.0580024 2.26703 0.152602 1.91893 0.287913C1.54926 0.427589 1.21837 0.642475 0.943296 0.924009C0.663945 1.19908 0.44696 1.53215 0.309383 1.89746C0.173988 2.24774 0.0794719 2.64738 0.0537024 3.23185C0.0257505 3.82069 0.0192871 4.00762 0.0192871 5.50107C0.0192871 6.99453 0.0257505 7.18146 0.05152 7.76812C0.0772895 8.35259 0.17189 8.75441 0.307284 9.10259C0.44696 9.47218 0.663945 9.80307 0.943296 10.0781C1.21837 10.3575 1.55144 10.5746 1.91675 10.7121C2.26703 10.8474 2.66666 10.942 3.25122 10.9677C3.83779 10.9936 4.02481 11 5.51827 11C7.01172 11 7.19866 10.9936 7.78531 10.9677C8.36978 10.942 8.7716 10.8474 9.1197 10.7121C9.85896 10.4262 10.4434 9.84177 10.7292 9.10259C10.8646 8.75231 10.9592 8.35259 10.9849 7.76812C11.0107 7.18146 11.0172 6.99453 11.0172 5.50107C11.0172 4.00762 11.015 3.82069 10.9892 3.23403ZM9.99863 7.72514C9.97496 8.26236 9.88473 8.55245 9.80952 8.74585C9.62468 9.22506 9.24435 9.60539 8.76514 9.79023C8.57174 9.86544 8.27955 9.95567 7.74443 9.97926C7.16424 10.0051 6.99023 10.0115 5.52255 10.0115C4.05486 10.0115 3.87867 10.0051 3.30058 9.97926C2.76336 9.95567 2.47327 9.86544 2.27987 9.79023C2.0414 9.70209 1.82433 9.56242 1.64814 9.37976C1.46549 9.20139 1.32581 8.9865 1.23767 8.74803C1.16246 8.55464 1.07223 8.26236 1.04864 7.72732C1.02279 7.14713 1.01641 6.97304 1.01641 5.50536C1.01641 4.03767 1.02279 3.86148 1.04864 3.28347C1.07223 2.74626 1.16246 2.45616 1.23767 2.26276C1.32581 2.02421 1.46549 1.80722 1.65032 1.63095C1.82861 1.4483 2.04349 1.30862 2.28205 1.22057C2.47545 1.14536 2.76773 1.05512 3.30276 1.03145C3.88295 1.00568 4.05704 0.999219 5.52464 0.999219C6.99451 0.999219 7.16852 1.00568 7.74661 1.03145C8.28383 1.05512 8.57393 1.14536 8.76732 1.22057C9.00579 1.30862 9.22286 1.4483 9.39905 1.63095C9.58171 1.80932 9.72138 2.02421 9.80952 2.26276C9.88473 2.45616 9.97496 2.74835 9.99863 3.28347C10.0244 3.86366 10.0309 4.03767 10.0309 5.50536C10.0309 6.97304 10.0244 7.14495 9.99863 7.72514Z" fill="#8E39A1"/>
<path d="M5.52033 2.67529C3.96031 2.67529 2.69458 3.94094 2.69458 5.50104C2.69458 7.06114 3.96031 8.32679 5.52033 8.32679C7.08043 8.32679 8.34608 7.06114 8.34608 5.50104C8.34608 3.94094 7.08043 2.67529 5.52033 2.67529ZM5.52033 7.33403C4.50827 7.33403 3.68734 6.51318 3.68734 5.50104C3.68734 4.48889 4.50827 3.66805 5.52033 3.66805C6.53247 3.66805 7.35332 4.48889 7.35332 5.50104C7.35332 6.51318 6.53247 7.33403 5.52033 7.33403Z" fill="#8E39A1"/>
<path d="M9.11754 2.56349C9.11754 2.92779 8.82216 3.22317 8.45778 3.22317C8.09348 3.22317 7.7981 2.92779 7.7981 2.56349C7.7981 2.19911 8.09348 1.90381 8.45778 1.90381C8.82216 1.90381 9.11754 2.19911 9.11754 2.56349Z" fill="#8E39A1"/>
</g>
<defs>
<clipPath id="clip0">
<rect width="11" height="11" fill="white"/>
</clipPath>
</defs>
</svg>
