<svg width="1920" height="163" viewBox="0 0 1920 163" fill="none" xmlns="http://www.w3.org/2000/svg">
<rect width="1920" height="163" fill="#B6D5D7"/>
<mask id="mask0" mask-type="alpha" maskUnits="userSpaceOnUse" x="0" y="0" width="1920" height="163">
<rect width="1920" height="163" fill="#78AE6E"/>
</mask>
<g mask="url(#mask0)">
<path d="M1609 102.267C1606.12 99.6253 1603.77 98.1723 1601.48 97.1662C1599.08 96.0791 1596.5 95.5306 1593.86 95.5612C1591.24 95.5409 1588.64 96.0894 1586.26 97.1666C1583.97 98.1822 1581.63 99.6253 1578.75 102.267C1575.83 104.919 1574.92 105.772 1567.85 112.834C1560.79 119.895 1559.94 120.809 1557.29 123.705C1554.65 126.59 1553.19 128.938 1552.19 131.223C1551.1 133.631 1550.55 136.212 1550.58 138.844C1550.56 141.465 1551.11 144.066 1552.19 146.444C1553.2 148.74 1554.65 151.076 1557.29 153.962C1559.94 156.878 1560.79 157.793 1567.85 164.854C1574.92 171.915 1575.83 172.769 1578.73 175.421C1581.61 178.062 1583.96 179.515 1586.24 180.521C1588.65 181.608 1591.24 182.147 1593.86 182.126C1596.49 182.147 1599.09 181.598 1601.46 180.521C1603.76 179.505 1606.1 178.062 1608.98 175.42C1611.88 172.769 1612.79 171.915 1619.85 164.854C1626.92 157.792 1627.77 156.878 1630.42 153.982C1633.06 151.097 1634.52 148.75 1635.52 146.464C1637.66 141.617 1637.66 136.09 1635.52 131.244C1634.5 128.948 1633.06 126.611 1630.42 123.725C1627.77 120.83 1626.92 119.915 1619.85 112.854C1612.79 105.792 1611.9 104.919 1609 102.267ZM1625.55 128.185C1627.98 130.837 1628.93 132.636 1629.49 133.906C1630.88 137.045 1630.88 140.642 1629.49 143.782C1628.93 145.052 1627.97 146.86 1625.55 149.502C1622.93 152.367 1622.14 153.22 1615.2 160.16C1608.26 167.099 1607.4 167.902 1604.54 170.513C1601.89 172.942 1600.09 173.887 1598.82 174.445C1597.28 175.156 1595.59 175.522 1593.89 175.492C1592.19 175.512 1590.51 175.156 1588.97 174.445C1587.7 173.887 1585.89 172.931 1583.25 170.513C1580.38 167.892 1579.53 167.099 1572.59 160.16C1565.65 153.22 1564.85 152.357 1562.24 149.502C1559.81 146.85 1558.86 145.052 1558.3 143.782C1557.59 142.237 1557.23 140.551 1557.27 138.843C1557.25 137.137 1557.6 135.46 1558.31 133.916C1558.87 132.646 1559.83 130.837 1562.25 128.196C1564.87 125.331 1565.66 124.477 1572.6 117.538C1579.55 110.588 1580.4 109.796 1583.26 107.184C1585.91 104.756 1587.71 103.811 1588.98 103.252C1590.52 102.541 1592.21 102.175 1593.9 102.206C1595.61 102.186 1597.29 102.541 1598.83 103.252C1600.1 103.811 1601.91 104.766 1604.55 107.184C1607.42 109.806 1608.27 110.598 1615.21 117.537C1622.15 124.477 1622.93 125.32 1625.55 128.185Z" fill="white" fill-opacity="0.1"/>
<path d="M1580.5 125.484C1573.13 132.86 1573.13 144.829 1580.5 152.205C1587.88 159.582 1599.85 159.581 1607.23 152.205C1614.6 144.829 1614.6 132.86 1607.23 125.484C1599.85 118.107 1587.88 118.107 1580.5 125.484ZM1602.53 147.511C1597.75 152.296 1589.98 152.297 1585.2 147.511C1580.41 142.726 1580.41 134.963 1585.2 130.178C1589.98 125.392 1597.75 125.392 1602.53 130.178C1607.32 134.963 1607.32 142.726 1602.53 147.511Z" fill="white" fill-opacity="0.1"/>
<path d="M1596.98 107.948C1598.71 109.671 1598.71 112.464 1596.98 114.187C1595.26 115.909 1592.47 115.909 1590.74 114.187C1589.02 112.464 1589.02 109.671 1590.74 107.949C1592.47 106.226 1595.26 106.225 1596.98 107.948Z" fill="white" fill-opacity="0.1"/>
<path d="M1891.78 -23.7888C1887.06 -28.1069 1883.23 -30.482 1879.49 -32.1266C1875.55 -33.9035 1871.33 -34.8001 1867.03 -34.7501C1862.75 -34.7832 1858.5 -33.8866 1854.61 -32.1259C1850.86 -30.4657 1847.04 -28.1069 1842.32 -23.7888C1837.55 -19.4539 1836.06 -18.059 1824.52 -6.51649C1812.97 5.02607 1811.58 6.52079 1807.24 11.2541C1802.93 15.9705 1800.55 19.8072 1798.91 23.5433C1797.13 27.48 1796.23 31.6981 1796.28 36C1796.25 40.285 1797.15 44.5363 1798.91 48.4229C1800.57 52.1766 1802.93 55.9958 1807.24 60.7122C1811.58 65.4792 1812.97 66.9739 1824.52 78.5165C1836.06 90.059 1837.55 91.4538 1842.29 95.7888C1847 100.107 1850.84 102.481 1854.58 104.126C1858.51 105.903 1862.75 106.783 1867.03 106.75C1871.32 106.783 1875.57 105.887 1879.46 104.126C1883.21 102.465 1887.03 100.107 1891.75 95.7881C1896.48 91.4545 1897.97 90.0584 1909.52 78.5158C1921.06 66.9732 1922.45 65.4792 1926.79 60.7453C1931.11 56.0288 1933.48 52.1928 1935.13 48.456C1938.63 40.5334 1938.63 31.4989 1935.13 23.5771C1933.46 19.824 1931.11 16.0036 1926.79 11.2871C1922.45 6.55386 1921.06 5.05914 1909.52 -6.48342C1897.97 -18.026 1896.51 -19.4539 1891.78 -23.7888ZM1918.83 18.5778C1922.8 22.9127 1924.35 25.8522 1925.26 27.9282C1927.54 33.0605 1927.54 38.9395 1925.26 44.0717C1924.35 46.1477 1922.79 49.1034 1918.83 53.4215C1914.55 58.1055 1913.25 59.4996 1901.91 70.843C1890.57 82.1864 1889.16 83.4989 1884.49 87.767C1880.15 91.7367 1877.21 93.2814 1875.14 94.1948C1872.61 95.3567 1869.86 95.9549 1867.08 95.9049C1864.29 95.938 1861.55 95.3567 1859.03 94.1948C1856.95 93.2814 1854 91.7198 1849.68 87.767C1844.99 83.4827 1843.6 82.1865 1832.26 70.8431C1820.91 59.4997 1819.6 58.0886 1815.33 53.4215C1811.36 49.0872 1809.82 46.1477 1808.9 44.0717C1807.74 41.5468 1807.14 38.7903 1807.21 35.9993C1807.18 33.2097 1807.76 30.4694 1808.92 27.9451C1809.84 25.8691 1811.4 22.9128 1815.35 18.5947C1819.63 13.9114 1820.93 12.5159 1832.27 1.17314C1843.63 -10.1871 1845.03 -11.482 1849.69 -15.7508C1854.03 -19.7199 1856.97 -21.2645 1859.04 -22.178C1861.57 -23.3405 1864.33 -23.9387 1867.1 -23.8887C1869.89 -23.9218 1872.63 -23.3405 1875.15 -22.178C1877.23 -21.2645 1880.19 -19.7036 1884.51 -15.7508C1889.19 -11.4658 1890.58 -10.1709 1901.93 1.17249C1913.27 12.5159 1914.55 13.8945 1918.83 18.5778Z" fill="white" fill-opacity="0.2"/>
<path d="M1845.19 14.1605C1833.14 26.2175 1833.14 45.7818 1845.19 57.8395C1857.25 69.8972 1876.82 69.8965 1888.87 57.8395C1900.93 45.7818 1900.93 26.2181 1888.87 14.1605C1876.82 2.10281 1857.25 2.10281 1845.19 14.1605ZM1881.2 50.1667C1873.38 57.9887 1860.69 57.9894 1852.87 50.1667C1845.04 42.3441 1845.05 29.6552 1852.87 21.8332C1860.69 14.0106 1873.38 14.0106 1881.2 21.8332C1889.02 29.6559 1889.02 42.3441 1881.2 50.1667Z" fill="white" fill-opacity="0.2"/>
<path d="M1872.13 -14.5003C1874.95 -11.6847 1874.95 -7.11882 1872.13 -4.3026C1869.32 -1.48702 1864.75 -1.48702 1861.93 -4.30259C1859.12 -7.11882 1859.12 -11.6841 1861.93 -14.4997C1864.75 -17.3159 1869.32 -17.3165 1872.13 -14.5003Z" fill="white" fill-opacity="0.2"/>
<path d="M1434.63 -4.57278C1433.62 -5.50233 1432.79 -6.01361 1431.99 -6.36764C1431.14 -6.75016 1430.23 -6.94317 1429.31 -6.93241C1428.38 -6.93953 1427.47 -6.74653 1426.63 -6.3675C1425.82 -6.01012 1425 -5.50233 1423.99 -4.57277C1422.96 -3.63959 1422.64 -3.33933 1420.15 -0.854558C1417.67 1.63021 1417.37 1.95198 1416.43 2.97091C1415.5 3.98622 1414.99 4.81215 1414.64 5.61643C1414.26 6.46386 1414.06 7.37191 1414.07 8.29797C1414.07 9.2204 1414.26 10.1356 1414.64 10.9723C1415 11.7803 1415.5 12.6025 1416.43 13.6178C1417.37 14.644 1417.67 14.9657 1420.15 17.4505C1422.64 19.9353 1422.96 20.2355 1423.98 21.1687C1424.99 22.0983 1425.82 22.6094 1426.62 22.9634C1427.47 23.346 1428.38 23.5355 1429.31 23.5284C1430.23 23.5355 1431.14 23.3425 1431.98 22.9634C1432.79 22.6059 1433.61 22.0983 1434.62 21.1686C1435.64 20.2357 1435.97 19.9351 1438.45 17.4504C1440.94 14.9656 1441.24 14.644 1442.17 13.6249C1443.1 12.6096 1443.61 11.7838 1443.96 10.9794C1444.72 9.27389 1444.72 7.32903 1443.96 5.62368C1443.61 4.81577 1443.1 3.99333 1442.17 2.97803C1441.24 1.9591 1440.94 1.63733 1438.45 -0.847439C1435.97 -3.33221 1435.65 -3.63959 1434.63 -4.57278ZM1440.46 4.54749C1441.31 5.48068 1441.64 6.11346 1441.84 6.56036C1442.33 7.66518 1442.33 8.93075 1441.84 10.0356C1441.64 10.4825 1441.31 11.1188 1440.46 12.0483C1439.53 13.0566 1439.25 13.3567 1436.81 15.7986C1434.37 18.2405 1434.07 18.5231 1433.06 19.4419C1432.13 20.2964 1431.5 20.6289 1431.05 20.8256C1430.51 21.0757 1429.91 21.2045 1429.32 21.1937C1428.72 21.2008 1428.13 21.0757 1427.58 20.8256C1427.13 20.6289 1426.5 20.2928 1425.57 19.4419C1424.56 18.5196 1424.26 18.2405 1421.82 15.7986C1419.38 13.3568 1419.09 13.053 1418.18 12.0483C1417.32 11.1153 1416.99 10.4825 1416.79 10.0356C1416.54 9.49204 1416.41 8.89864 1416.43 8.29783C1416.42 7.69731 1416.55 7.1074 1416.8 6.564C1416.99 6.1171 1417.33 5.48068 1418.18 4.55113C1419.1 3.54295 1419.38 3.24255 1421.82 0.80079C1424.27 -1.64474 1424.57 -1.92349 1425.57 -2.84243C1426.51 -3.69685 1427.14 -4.02937 1427.59 -4.22601C1428.13 -4.47627 1428.72 -4.60504 1429.32 -4.59428C1429.92 -4.6014 1430.51 -4.47627 1431.05 -4.22601C1431.5 -4.02937 1432.14 -3.69336 1433.07 -2.84243C1434.07 -1.92 1434.37 -1.64125 1436.82 0.800648C1439.26 3.24254 1439.53 3.53931 1440.46 4.54749Z" fill="white" fill-opacity="0.1"/>
<path d="M1424.6 3.59658C1422.01 6.19209 1422.01 10.4037 1424.6 12.9994C1427.2 15.595 1431.41 15.5949 1434.01 12.9994C1436.6 10.4037 1436.6 6.19223 1434.01 3.59657C1431.41 1.00092 1427.2 1.00092 1424.6 3.59658ZM1432.35 11.3476C1430.67 13.0315 1427.94 13.0316 1426.26 11.3477C1424.57 9.66367 1424.57 6.93213 1426.26 5.24829C1427.94 3.56432 1430.67 3.56431 1432.35 5.24829C1434.04 6.93227 1434.04 9.66367 1432.35 11.3476Z" fill="white" fill-opacity="0.1"/>
<path d="M1430.4 -2.57426C1431.01 -1.96815 1431.01 -0.985251 1430.4 -0.379002C1429.8 0.227108 1428.81 0.227108 1428.21 -0.379002C1427.6 -0.985251 1427.6 -1.96801 1428.21 -2.57412C1428.81 -3.18037 1429.8 -3.18051 1430.4 -2.57426Z" fill="white" fill-opacity="0.1"/>
<path d="M242.878 133.174C242.206 130.272 241.36 128.348 240.359 126.731C239.317 125.011 237.934 123.554 236.269 122.438C234.633 121.295 232.764 120.518 230.808 120.169C228.929 119.816 226.841 119.714 223.891 120.128C220.917 120.535 219.976 120.676 212.5 122.063C205.024 123.449 204.094 123.655 201.182 124.329C198.28 125 196.356 125.847 194.739 126.847C193.019 127.89 191.562 129.273 190.446 130.937C189.303 132.574 188.526 134.442 188.177 136.399C187.824 138.278 187.722 140.366 188.136 143.316C188.543 146.289 188.684 147.231 190.07 154.707C191.457 162.183 191.663 163.112 192.336 166.025C193.008 168.927 193.855 170.85 194.856 172.468C195.898 174.188 197.291 175.643 198.945 176.761C200.581 177.903 202.45 178.681 204.407 179.03C206.286 179.382 208.374 179.485 211.324 179.071C214.284 178.656 215.226 178.514 222.702 177.127C230.178 175.741 231.108 175.535 234.02 174.861C236.922 174.19 238.846 173.343 240.463 172.342C243.898 170.225 246.281 166.757 247.025 162.792C247.377 160.912 247.48 158.824 247.066 155.874C246.651 152.914 246.509 151.972 245.123 144.496C243.736 137.02 243.552 136.086 242.878 133.174ZM242.089 156.575C242.469 159.286 242.287 160.822 242.09 161.86C241.61 164.43 240.059 166.687 237.832 168.057C236.934 168.613 235.555 169.336 232.898 169.951C230.018 170.619 229.153 170.813 221.806 172.175C214.459 173.538 213.571 173.67 210.653 174.077C207.942 174.458 206.406 174.275 205.368 174.078C204.093 173.859 202.877 173.361 201.825 172.61C200.745 171.887 199.846 170.941 199.184 169.829C198.628 168.931 197.905 167.551 197.29 164.895C196.622 162.015 196.428 161.149 195.066 153.802C193.703 146.456 193.571 145.568 193.164 142.65C192.783 139.939 192.966 138.403 193.163 137.366C193.382 136.09 193.88 134.874 194.642 133.82C195.365 132.74 196.311 131.841 197.423 131.179C198.321 130.623 199.7 129.9 202.357 129.285C205.237 128.617 206.103 128.423 213.449 127.06C220.807 125.696 221.684 125.566 224.601 125.159C227.313 124.778 228.849 124.961 229.886 125.158C231.162 125.377 232.378 125.875 233.43 126.625C234.51 127.349 235.408 128.295 236.071 129.407C236.627 130.305 237.35 131.684 237.965 134.341C238.633 137.221 238.827 138.086 240.19 145.433C241.552 152.78 241.679 153.646 242.089 156.575Z" fill="white" fill-opacity="0.1"/>
<path d="M214.984 135.455C207.175 136.903 202.014 144.414 203.462 152.223C204.911 160.033 212.422 165.193 220.231 163.744C228.04 162.296 233.201 154.785 231.752 146.976C230.304 139.167 222.793 134.006 214.984 135.455ZM219.309 158.775C214.243 159.715 209.372 156.368 208.432 151.301C207.492 146.235 210.839 141.364 215.906 140.424C220.972 139.484 225.843 142.831 226.783 147.898C227.723 152.964 224.376 157.835 219.309 158.775Z" fill="white" fill-opacity="0.1"/>
<path d="M232.887 131.556C233.225 133.379 232.021 135.132 230.197 135.47C228.373 135.809 226.62 134.604 226.282 132.781C225.944 130.957 227.148 129.204 228.972 128.866C230.796 128.528 232.548 129.732 232.887 131.556Z" fill="white" fill-opacity="0.1"/>
<path d="M65.8052 69.942C64.6478 64.9414 63.1895 61.6263 61.4645 58.8394C59.6683 55.8747 57.2851 53.3641 54.4164 51.4417C51.5966 49.472 48.3761 48.1324 45.0048 47.5308C41.7672 46.9232 38.1679 46.7474 33.0848 47.4602C27.9605 48.1612 26.3376 48.4046 13.4544 50.7941C0.571302 53.1836 -1.03092 53.5384 -6.05041 54.6994C-11.0511 55.8568 -14.366 57.3158 -17.1523 59.04C-20.1177 60.8363 -22.6283 63.2194 -24.5507 66.0882C-26.5204 68.908 -27.8593 72.1284 -28.4616 75.4998C-29.0691 78.7381 -29.2451 82.3367 -28.5322 87.4198C-27.8312 92.5441 -27.5879 94.167 -25.1984 107.05C-22.8089 119.933 -22.454 121.535 -21.2931 126.555C-20.1356 131.556 -18.6767 134.871 -16.9516 137.657C-15.1554 140.622 -12.7542 143.129 -9.90428 145.055C-7.08446 147.025 -3.86393 148.365 -0.492677 148.966C2.74561 149.574 6.34426 149.75 11.4281 149.037C16.5295 148.321 18.153 148.077 31.0361 145.687C43.9192 143.298 45.5216 142.944 50.541 141.782C55.5416 140.625 58.8566 139.166 61.6428 137.442C67.5627 133.793 71.6694 127.816 72.9523 120.982C73.5591 117.744 73.7356 114.145 73.0228 109.062C72.3064 103.96 72.0631 102.337 69.6736 89.4537C67.2841 76.5706 66.9662 74.9615 65.8052 69.942ZM64.4459 110.269C65.1012 114.941 64.7869 117.588 64.4476 119.377C63.6198 123.806 60.9475 127.696 57.1093 130.057C55.5614 131.015 53.1852 132.261 48.6068 133.321C43.6432 134.472 42.1523 134.805 29.4915 137.154C16.8306 139.502 15.3006 139.729 10.2723 140.431C5.60037 141.087 2.95352 140.773 1.16486 140.433C-1.03331 140.054 -3.12931 139.197 -4.94143 137.903C-6.80246 136.657 -8.35117 135.026 -9.49302 133.11C-10.4512 131.562 -11.6973 129.185 -12.7568 124.608C-13.9081 119.644 -14.2417 118.153 -16.59 105.492C-18.9382 92.8308 -19.1651 91.3008 -19.8669 86.2733C-20.523 81.6013 -20.2087 78.9544 -19.8693 77.1658C-19.4907 74.9669 -18.633 72.8716 -17.3206 71.0553C-16.0748 69.1944 -14.4446 67.6457 -12.5276 66.5044C-10.9796 65.5462 -8.6027 64.3001 -4.02518 63.2399C0.938551 62.0893 2.42999 61.755 15.0901 59.4069C27.7698 57.0551 29.2812 56.8325 34.3093 56.1298C38.9814 55.4745 41.6282 55.7887 43.4169 56.1281C45.6149 56.5061 47.7109 57.3637 49.523 58.6574C51.384 59.9039 52.9328 61.5341 54.0747 63.451C55.033 64.999 56.2789 67.3752 57.3393 71.9534C58.4899 76.9172 58.824 78.4079 61.1723 91.0687C63.5206 103.73 63.7399 105.223 64.4459 110.269Z" fill="white" fill-opacity="0.1"/>
<path d="M17.7354 73.8727C4.27804 76.3687 -4.61562 89.3117 -2.11948 102.77C0.376659 116.228 13.3203 125.121 26.7777 122.625C40.2357 120.128 49.1287 107.186 46.6325 93.7275C44.1364 80.2694 31.1935 71.3765 17.7354 73.8727ZM25.1893 114.061C16.4588 115.68 8.06383 109.913 6.44442 101.181C4.825 92.4502 10.5933 84.0558 19.3238 82.4365C28.0549 80.8171 36.4492 86.5847 38.0686 95.3159C39.688 104.047 33.9204 112.441 25.1893 114.061Z" fill="white" fill-opacity="0.1"/>
<path d="M48.5885 67.1536C49.1713 70.2961 47.0958 73.3169 43.9525 73.8999C40.8099 74.4827 37.7892 72.4072 37.2064 69.2647C36.6234 66.1213 38.699 63.1014 41.8416 62.5185C44.9849 61.9355 48.0054 64.0103 48.5885 67.1536Z" fill="white" fill-opacity="0.1"/>
<path d="M252.255 47.1489C251.545 44.0797 250.65 42.0451 249.591 40.3347C248.489 38.5151 247.026 36.9742 245.265 35.7943C243.535 34.5854 241.558 33.7633 239.489 33.394C237.502 33.0211 235.293 32.9132 232.173 33.3507C229.028 33.7809 228.032 33.9303 220.125 35.3968C212.218 36.8634 211.235 37.0812 208.154 37.7937C205.085 38.5041 203.05 39.3995 201.34 40.4577C199.52 41.5603 197.979 43.0229 196.799 44.7836C195.591 46.5142 194.769 48.4907 194.399 50.5599C194.026 52.5474 193.918 54.7561 194.356 57.8758C194.786 61.0208 194.935 62.0169 196.402 69.9239C197.869 77.8309 198.086 78.8143 198.799 81.8949C199.509 84.9641 200.405 86.9986 201.463 88.7091C202.566 90.5287 204.04 92.0675 205.789 93.2495C207.519 94.4584 209.496 95.2806 211.565 95.6498C213.553 96.0226 215.761 96.1306 218.881 95.693C222.012 95.2539 223.009 95.104 230.916 93.6375C238.823 92.1709 239.806 91.9536 242.887 91.2406C245.956 90.5302 247.991 89.6352 249.701 88.5766C253.334 86.3374 255.854 82.669 256.642 78.4748C257.014 76.4874 257.123 74.2782 256.685 71.1585C256.245 68.0272 256.096 67.0311 254.629 59.1241C253.163 51.2171 252.968 50.2296 252.255 47.1489ZM251.421 71.8995C251.823 74.767 251.63 76.3915 251.422 77.4893C250.914 80.2079 249.274 82.595 246.918 84.0442C245.968 84.6323 244.51 85.397 241.7 86.0473C238.653 86.754 237.738 86.9586 229.968 88.3999C222.197 89.8411 221.258 89.9804 218.172 90.4112C215.305 90.8138 213.68 90.6209 212.582 90.4127C211.233 90.1802 209.947 89.6539 208.835 88.8598C207.692 88.0948 206.742 87.0943 206.041 85.9182C205.453 84.9682 204.688 83.5093 204.038 80.6998C203.331 77.6534 203.127 76.738 201.685 68.9674C200.244 61.1968 200.105 60.2577 199.674 57.1721C199.272 54.3047 199.464 52.6802 199.673 51.5824C199.905 50.2329 200.431 48.9469 201.237 47.8321C202.002 46.69 203.002 45.7395 204.179 45.039C205.129 44.4509 206.588 43.6862 209.397 43.0355C212.443 42.3293 213.359 42.1241 221.129 40.6829C228.911 39.2395 229.839 39.1029 232.925 38.6716C235.792 38.2694 237.417 38.4623 238.514 38.6706C239.863 38.9026 241.15 39.4289 242.262 40.223C243.404 40.988 244.355 41.9885 245.056 43.165C245.644 44.1151 246.408 45.5735 247.059 48.3834C247.765 51.4298 247.971 52.3448 249.412 60.1153C250.853 67.8859 250.988 68.8024 251.421 71.8995Z" fill="white" fill-opacity="0.2"/>
<path d="M222.752 49.5613C214.493 51.0933 209.034 59.037 210.566 67.2969C212.098 75.5568 220.042 81.0147 228.302 79.4828C236.562 77.9508 242.02 70.0071 240.488 61.7472C238.956 53.4873 231.012 48.0293 222.752 49.5613ZM227.327 74.2267C221.969 75.2205 216.816 71.6808 215.822 66.322C214.828 60.9633 218.369 55.8112 223.727 54.8174C229.086 53.8235 234.238 57.3633 235.231 62.7221C236.225 68.0808 232.686 73.2328 227.327 74.2267Z" fill="white" fill-opacity="0.2"/>
<path d="M241.688 45.4373C242.045 47.3661 240.772 49.22 238.842 49.5778C236.914 49.9356 235.06 48.6618 234.702 46.733C234.344 44.8038 235.618 42.9503 237.547 42.5926C239.476 42.2347 241.33 43.5081 241.688 45.4373Z" fill="white" fill-opacity="0.2"/>
<path d="M104.236 13.3048C103.85 11.6395 103.365 10.5356 102.79 9.60753C102.192 8.62026 101.398 7.78422 100.443 7.14405C99.5042 6.48813 98.4317 6.04203 97.3091 5.8417C96.2309 5.63935 95.0323 5.58081 93.3396 5.81819C91.6332 6.05163 91.0928 6.13266 86.8026 6.92838C82.5124 7.7241 81.9789 7.84227 80.3074 8.22886C78.6421 8.6143 77.5382 9.10014 76.6104 9.67431C75.6229 10.2725 74.7868 11.0661 74.1467 12.0214C73.4907 12.9604 73.0449 14.0328 72.8443 15.1555C72.642 16.2339 72.5834 17.4323 72.8208 19.125C73.0542 20.8314 73.1353 21.3718 73.931 25.662C74.7267 29.9521 74.8449 30.4857 75.2315 32.1572C75.6169 33.8224 76.1028 34.9263 76.6772 35.8544C77.2754 36.8417 78.075 37.6766 79.024 38.3179C79.963 38.9738 81.0355 39.4199 82.1581 39.6203C83.2365 39.8226 84.4349 39.8811 86.1278 39.6437C87.8266 39.4055 88.3672 39.3241 92.6574 38.5284C96.9476 37.7327 97.4812 37.6148 99.1526 37.2279C100.818 36.8425 101.922 36.3569 102.85 35.7825C104.821 34.5676 106.189 32.5772 106.616 30.3015C106.818 29.2232 106.877 28.0245 106.639 26.3318C106.401 24.6329 106.32 24.0924 105.524 19.8023C104.728 15.5121 104.622 14.9763 104.236 13.3048ZM103.783 26.7339C104.001 28.2897 103.897 29.1711 103.784 29.7668C103.508 31.2418 102.618 32.537 101.34 33.3233C100.824 33.6424 100.033 34.0573 98.5085 34.4102C96.8556 34.7936 96.3592 34.9046 92.143 35.6866C87.9269 36.4686 87.4174 36.5442 85.7429 36.7779C84.1872 36.9964 83.3057 36.8917 82.7101 36.7787C81.9781 36.6526 81.2801 36.367 80.6767 35.9362C80.0569 35.5211 79.5412 34.9782 79.161 34.3401C78.8419 33.8247 78.4269 33.0331 78.0741 31.5087C77.6907 29.8558 77.5796 29.3591 76.7976 25.143C76.0157 20.9269 75.9401 20.4173 75.7064 18.7432C75.4879 17.1874 75.5926 16.3059 75.7056 15.7103C75.8317 14.9781 76.1173 14.2803 76.5543 13.6755C76.9692 13.0558 77.5121 12.5401 78.1504 12.16C78.6659 11.8409 79.4574 11.426 80.9818 11.0729C82.6347 10.6898 83.1314 10.5784 87.3473 9.79649C91.5697 9.01334 92.073 8.9392 93.7474 8.70521C95.3032 8.48698 96.1846 8.59163 96.7803 8.70464C97.5122 8.83052 98.2102 9.11611 98.8137 9.54693C99.4334 9.96201 99.9491 10.5049 100.329 11.1432C100.648 11.6587 101.063 12.45 101.417 13.9746C101.8 15.6275 101.911 16.1239 102.693 20.3401C103.475 24.5562 103.548 25.0535 103.783 26.7339Z" fill="white" fill-opacity="0.1"/>
<path d="M88.2279 14.6137C83.7466 15.4449 80.7849 19.755 81.6162 24.2366C82.4474 28.7182 86.7577 31.6796 91.2391 30.8484C95.7207 30.0172 98.6821 25.7071 97.8509 21.2255C97.0196 16.7439 92.7096 13.7825 88.2279 14.6137ZM90.7101 27.9966C87.8029 28.5358 85.0073 26.6152 84.468 23.7077C83.9287 20.8001 85.8496 18.0047 88.7569 17.4655C91.6644 16.9262 94.4598 18.8469 94.999 21.7544C95.5383 24.6619 93.6177 27.4573 90.7101 27.9966Z" fill="white" fill-opacity="0.1"/>
<path d="M98.5021 12.3762C98.6962 13.4227 98.0051 14.4286 96.9583 14.6228C95.9118 14.8169 94.9059 14.1257 94.7118 13.0792C94.5177 12.0325 95.2089 11.0268 96.2554 10.8327C97.3021 10.6386 98.308 11.3295 98.5021 12.3762Z" fill="white" fill-opacity="0.1"/>
<path d="M781.866 150.281C781.357 148.083 780.716 146.626 779.958 145.401C779.168 144.098 778.121 142.995 776.86 142.15C775.621 141.284 774.205 140.696 772.724 140.431C771.301 140.164 769.719 140.087 767.485 140.4C765.232 140.708 764.519 140.815 758.857 141.865C753.195 142.916 752.49 143.072 750.284 143.582C748.086 144.091 746.629 144.732 745.405 145.49C744.101 146.279 742.998 147.327 742.153 148.587C741.287 149.827 740.699 151.242 740.434 152.724C740.167 154.147 740.09 155.729 740.403 157.963C740.711 160.215 740.818 160.928 741.868 166.591C742.919 172.253 743.075 172.957 743.585 175.163C744.094 177.361 744.735 178.818 745.493 180.043C746.282 181.346 747.338 182.448 748.59 183.295C749.83 184.16 751.245 184.749 752.727 185.013C754.15 185.28 755.732 185.358 757.966 185.044C760.208 184.73 760.922 184.623 766.584 183.572C772.247 182.522 772.951 182.366 775.157 181.856C777.355 181.347 778.812 180.706 780.036 179.948C782.638 178.345 784.443 175.718 785.007 172.714C785.274 171.291 785.351 169.709 785.038 167.475C784.723 165.232 784.616 164.519 783.566 158.857C782.516 153.195 782.376 152.487 781.866 150.281ZM781.268 168.005C781.556 170.059 781.418 171.222 781.269 172.008C780.905 173.955 779.731 175.665 778.044 176.702C777.363 177.124 776.319 177.671 774.307 178.137C772.125 178.643 771.47 178.79 765.905 179.822C760.341 180.854 759.668 180.953 757.458 181.262C755.405 181.55 754.242 181.412 753.455 181.263C752.489 181.097 751.568 180.72 750.772 180.151C749.954 179.603 749.273 178.887 748.771 178.045C748.35 177.364 747.802 176.319 747.337 174.308C746.831 172.126 746.684 171.47 745.652 165.906C744.62 160.341 744.52 159.669 744.212 157.459C743.923 155.406 744.061 154.242 744.211 153.456C744.377 152.49 744.754 151.569 745.331 150.771C745.878 149.953 746.595 149.272 747.437 148.77C748.118 148.349 749.162 147.802 751.174 147.336C753.356 146.83 754.011 146.683 759.576 145.651C765.149 144.617 765.813 144.519 768.023 144.211C770.076 143.923 771.24 144.061 772.026 144.21C772.992 144.376 773.913 144.753 774.709 145.322C775.527 145.869 776.208 146.586 776.71 147.428C777.131 148.109 777.679 149.153 778.145 151.165C778.651 153.347 778.797 154.002 779.829 159.567C780.862 165.131 780.958 165.788 781.268 168.005Z" fill="white" fill-opacity="0.1"/>
<path d="M760.738 152.009C754.824 153.106 750.915 158.795 752.012 164.71C753.109 170.625 758.798 174.533 764.712 173.436C770.627 172.339 774.536 166.65 773.439 160.735C772.342 154.82 766.653 150.912 760.738 152.009ZM764.014 169.672C760.177 170.384 756.487 167.849 755.776 164.011C755.064 160.174 757.599 156.485 761.436 155.773C765.274 155.061 768.963 157.596 769.675 161.433C770.387 165.271 767.852 168.96 764.014 169.672Z" fill="white" fill-opacity="0.1"/>
<path d="M774.298 149.056C774.554 150.437 773.642 151.765 772.261 152.021C770.88 152.277 769.552 151.365 769.296 149.984C769.039 148.602 769.952 147.275 771.333 147.019C772.714 146.762 774.042 147.674 774.298 149.056Z" fill="white" fill-opacity="0.1"/>
<path d="M651.876 11.6101C653.272 11.1693 654.182 10.6806 654.936 10.1278C655.739 9.55086 656.399 8.81715 656.882 7.9585C657.379 7.11269 657.688 6.16703 657.784 5.19499C657.884 4.26084 657.854 3.23345 657.537 1.80402C657.224 0.362628 657.118 -0.0933984 656.151 -3.70326C655.184 -7.31311 655.047 -7.76077 654.605 -9.16209C654.164 -10.5581 653.675 -11.4681 653.123 -12.2219C652.546 -13.0249 651.812 -13.6856 650.953 -14.1681C650.107 -14.6652 649.162 -14.9739 648.19 -15.0699C647.255 -15.1703 646.228 -15.1399 644.799 -14.8237C643.357 -14.5099 642.901 -14.4044 639.291 -13.4371C635.682 -12.4699 635.234 -12.3332 633.833 -11.891C632.437 -11.4501 631.527 -10.9612 630.773 -10.4085C629.97 -9.83147 629.31 -9.09269 628.827 -8.23931C628.329 -7.39351 628.021 -6.44784 627.925 -5.47581C627.824 -4.54145 627.855 -3.51426 628.171 -2.08463C628.488 -0.650075 628.594 -0.1939 629.561 3.41596C630.529 7.02582 630.665 7.47353 631.108 8.87479C631.548 10.2708 632.037 11.1809 632.59 11.9346C633.76 13.5363 635.551 14.5705 637.523 14.7826C638.457 14.8828 639.484 14.8526 640.914 14.5364C642.348 14.2187 642.804 14.1132 646.414 13.146C650.024 12.1787 650.475 12.0524 651.876 11.6101ZM640.379 12.1245C639.065 12.4153 638.305 12.385 637.789 12.3285C636.511 12.1921 635.346 11.5191 634.588 10.4805C634.281 10.0618 633.874 9.41395 633.47 8.13579C633.032 6.75014 632.904 6.33368 631.953 2.78611C631.003 -0.761463 630.904 -1.19147 630.592 -2.60553C630.301 -3.91932 630.332 -4.67895 630.388 -5.19513C630.447 -5.82863 630.644 -6.44377 630.971 -6.98794C631.284 -7.54496 631.713 -8.02174 632.232 -8.38923C632.651 -8.69628 633.299 -9.10369 634.577 -9.50722C635.963 -9.94548 636.379 -10.0737 639.927 -11.0242C643.474 -11.9748 643.904 -12.0735 645.318 -12.3853C646.632 -12.6763 647.392 -12.646 647.908 -12.5895C648.542 -12.531 649.157 -12.3339 649.702 -12.0013C650.259 -11.6886 650.736 -11.2597 651.103 -10.7401C651.41 -10.3214 651.818 -9.67334 652.222 -8.39543C652.66 -7.00973 652.788 -6.59312 653.739 -3.04575C654.691 0.507095 654.788 0.931876 655.1 2.34588C655.39 3.65972 655.36 4.41936 655.304 4.93554C655.245 5.56898 655.048 6.18412 654.721 6.72829C654.408 7.28531 653.979 7.7621 653.46 8.12964C653.041 8.43669 652.393 8.84404 651.115 9.24783C649.729 9.68589 649.313 9.81421 645.765 10.7648C642.218 11.7153 641.798 11.8111 640.379 12.1245Z" fill="white" fill-opacity="0.1"/>
<path d="M649.684 -1.9705C648.674 -5.74125 644.795 -7.98095 641.024 -6.97052C637.253 -5.9601 635.014 -2.08098 636.024 1.68977C637.034 5.46073 640.913 7.70022 644.684 6.6898C648.455 5.67938 650.695 1.80046 649.684 -1.9705ZM638.424 1.0468C637.768 -1.39947 639.221 -3.91539 641.667 -4.57092C644.114 -5.22645 646.629 -3.7738 647.285 -1.32753C647.94 1.11895 646.488 3.63466 644.041 4.29019C641.595 4.94572 639.079 3.49327 638.424 1.0468Z" fill="white" fill-opacity="0.1"/>
<path d="M652.284 6.65204C651.404 6.88798 650.498 6.36531 650.262 5.48456C650.026 4.60401 650.549 3.69872 651.43 3.46278C652.31 3.22678 653.215 3.7495 653.451 4.63005C653.687 5.51081 653.165 6.41604 652.284 6.65204Z" fill="white" fill-opacity="0.1"/>
</g>
</svg>
