<svg width="102" height="68" viewBox="0 0 102 68" fill="none" xmlns="http://www.w3.org/2000/svg">
<path d="M14.0614 58.1379C12.3781 57.7956 10.7803 57.6814 9.242 57.6814C7.92955 57.6814 6.93095 57.7385 5.93235 57.9097L5.90382 57.9953C5.21907 59.6501 4.90522 60.9626 4.90522 61.5332C4.90522 61.9897 4.99081 62.3321 5.162 62.5603L5.07641 62.7886C4.33459 62.6744 3.90662 62.6174 3.27893 62.6174C2.59417 62.6174 2.1662 62.6744 1.50997 62.7886L1.42676 62.5579C1.94032 62.0158 2.68214 60.2184 3.99459 57.4247L10.3833 42.8213H10.6686L17.5993 59.108C18.5409 60.9055 18.9118 61.7614 19.511 62.5603L19.4254 62.7886C18.6835 62.6459 17.9703 62.6174 17.2855 62.6174C16.5437 62.6174 15.8304 62.6459 15.1171 62.7886L15.0315 62.5603C15.2027 62.3321 15.2883 62.0182 15.2883 61.5903C15.2883 60.9911 14.8889 60.1066 14.4609 59.108L14.0614 58.1379ZM6.67417 56.1122H13.234L9.95291 48.0972L6.67417 56.1122Z" fill="black"/>
<path d="M27.3738 62.5579C27.3738 62.6149 27.3167 62.7291 27.3167 62.7861C26.9458 62.7291 26.2896 62.6149 25.291 62.6149C24.2924 62.6149 23.6077 62.7291 23.2653 62.7861C23.2367 62.7291 23.2082 62.6149 23.2082 62.5579C23.7503 61.4737 24.0071 55.7983 24.0071 52.8025C24.0071 49.8091 23.7218 44.1598 23.2082 43.0471C23.1797 42.99 23.2367 42.9044 23.2653 42.8188C23.6077 42.8759 24.2924 42.99 25.291 42.99C26.2896 42.99 26.9458 42.8759 27.3167 42.8188C27.3167 42.9044 27.3738 42.99 27.3738 43.0471C26.8317 44.1313 26.5749 49.8067 26.5749 52.8025C26.5749 55.7983 26.8317 61.4737 27.3738 62.5579Z" fill="black"/>
<path d="M32.4211 43.0777L32.5067 42.8209C33.7336 43.0206 34.5325 42.9921 35.2743 42.9921C38.7837 42.9921 40.4646 42.935 43.6887 42.6782L44.3734 45.4458L44.1452 45.5599C43.6316 45.2746 42.576 44.761 41.292 44.761H38.4413C36.0161 44.761 35.8449 45.0178 35.8449 52.1483C40.1223 52.1198 40.75 51.7774 42.0053 51.5491L42.2621 51.6918C42.1765 52.1768 42.148 52.5192 42.148 53.0042C42.148 53.4322 42.2051 53.8887 42.3192 54.3167L42.0624 54.4593C40.807 54.2596 40.1508 53.9458 35.8164 53.8887C35.8734 57.1413 36.1873 61.4757 36.6723 62.5314L36.5867 62.7882C36.1873 62.7311 35.5596 62.617 34.561 62.617C33.6195 62.617 32.9347 62.7026 32.5067 62.7882L32.4211 62.5314C32.9347 61.3616 33.2771 56.2568 33.2771 52.8045C33.2771 49.4378 32.9632 44.333 32.4211 43.0777Z" fill="black"/>
<path d="M56.0121 42.5642C61.8016 42.5642 65.2824 46.6133 65.2824 52.8902C65.2824 59.1077 61.773 63.1877 56.0121 63.1877C50.194 63.1877 46.7417 59.1648 46.7417 52.8902C46.7417 46.6418 50.2202 42.5642 56.0121 42.5642ZM56.0121 61.3023C60.0897 61.3023 62.1154 57.7073 62.1154 52.8878C62.1154 48.0399 60.0897 44.4734 56.0121 44.4734C51.9321 44.4734 49.9087 48.0399 49.9087 52.8878C49.9063 57.6241 51.9321 61.3023 56.0121 61.3023Z" fill="black"/>
<path d="M73.4969 53.8295H73.5254L73.6681 53.2019C76.7186 53.2019 79.1438 51.8894 79.1438 48.6392C79.1438 45.7884 77.5175 44.5901 74.467 44.5901C71.6994 44.5901 71.4426 44.7328 71.4426 47.3577V52.8048C71.4426 58.2234 71.785 61.1336 72.2701 62.5602L72.213 62.7884C71.8135 62.7028 70.8435 62.6172 70.1017 62.6172C69.3313 62.6172 68.8177 62.7028 68.133 62.7884L68.0759 62.5602C68.5895 61.1336 68.8463 58.2805 68.8463 52.8048C68.8463 48.4989 68.6466 44.7613 68.0759 43.0494L68.133 42.8212C68.9033 42.9353 69.6452 42.9923 70.2443 42.9923C71.3 42.9923 73.3257 42.707 75.1208 42.707C79.8832 42.707 81.9945 45.0751 81.9945 48.4395C81.9945 51.7777 79.5694 53.5157 76.9183 53.9437L77.7172 54.9137C79.9426 57.6242 82.8505 60.7603 84.9333 62.5578L84.8762 62.7861C84.648 62.729 84.3056 62.729 84.0773 62.729C83.4782 62.7575 82.5652 62.9287 81.9089 62.9287C81.1386 62.9287 80.5965 62.6434 80.1685 61.9872C78.0572 59.3908 77.1442 58.0784 75.1208 55.7412L73.4969 53.8295Z" fill="black"/>
<path d="M93.0242 53.2614L96.9592 45.6744C97.2445 45.1038 97.4442 44.362 97.4442 43.934C97.4442 43.5631 97.3587 43.2778 97.1875 43.0495L97.2731 42.8213C97.7581 42.9639 98.3858 43.021 98.9564 43.021C99.6126 43.021 100.155 42.9639 100.725 42.8213L100.811 43.0495C100.269 43.7914 99.6982 44.6473 98.9279 46.0168L93.8802 55.173C93.9373 57.9977 94.2226 61.6188 94.6791 62.5603C94.6791 62.6459 94.622 62.7315 94.622 62.7886C94.2226 62.7315 93.5949 62.6174 92.5963 62.6174C91.6547 62.6174 90.97 62.703 90.542 62.7886C90.542 62.7315 90.5135 62.6459 90.485 62.5603C90.9129 61.6473 91.2268 58.1974 91.2838 55.3442L86.2647 46.1595C85.3802 44.6188 84.8666 43.7914 84.3816 43.0781L84.4957 42.8213C85.0663 42.9925 85.9223 42.9925 86.607 42.9925C87.2062 42.9925 87.9766 42.9639 88.6613 42.8213L88.7469 43.0495C88.5757 43.2207 88.4331 43.5631 88.4331 43.8199C88.4331 44.3049 88.861 45.0753 89.2605 45.8171L93.0242 53.2614Z" fill="black"/>
<path d="M38.3583 5.17896L19.2969 31.5825C24.8415 28.7983 31.3633 27.1934 38.3464 27.1934H38.4272C45.4103 27.1934 51.9321 28.7983 57.4767 31.5825L38.3583 5.17896ZM24.0783 28.1135L38.4914 8.29602L39.509 9.69882L26.8149 27.1529C25.8615 27.4383 24.9485 27.7592 24.0783 28.1135ZM30.4788 26.1448L39.918 13.1654L40.9214 11.7864L41.939 13.1892L41.8177 13.3556L40.7977 14.7584L39.169 16.9957L38.149 18.3985L32.7756 25.7858C31.9958 25.8857 31.2302 26.0069 30.4788 26.1448ZM38.3131 25.529C37.5047 25.529 36.7058 25.5504 35.9165 25.5932L37.2788 23.7197L38.2822 22.3406L38.3036 22.3715L38.306 22.3668L40.6455 25.5885C39.8776 25.5504 39.1001 25.529 38.3131 25.529ZM43.7436 25.6812L39.8443 20.3078L40.8643 18.905L46.0332 26.0259C45.2867 25.8928 44.5211 25.7763 43.7436 25.6812ZM42.3265 16.8341L43.3465 15.4313L52.5194 28.0683C51.6539 27.7212 50.7433 27.405 49.7946 27.1244L42.3265 16.8341Z" fill="black"/>
<path d="M63.8797 31.5825L82.9411 5.17896C77.3965 7.96315 70.8747 9.56805 63.8916 9.56805H63.8107C56.8277 9.56805 50.3058 7.96315 44.7612 5.17896L63.8797 31.5825ZM78.1597 8.65028L63.7465 28.4678L62.7289 27.065L75.4231 9.61084C76.3765 9.32315 77.2895 9.00217 78.1597 8.65028ZM71.7591 10.6166L62.32 23.596L61.3166 24.975L60.299 23.5722L60.4203 23.4058L61.4403 22.003L63.0689 19.7657L64.0889 18.3629L69.4624 10.9756C70.2422 10.8757 71.0078 10.7569 71.7591 10.6166ZM63.9249 11.2324C64.7333 11.2324 65.5321 11.211 66.3215 11.1682L64.9591 13.0418L63.9558 14.4208L63.9344 14.3899L63.932 14.3946L61.5924 11.1729C62.3604 11.211 63.1379 11.2324 63.9249 11.2324ZM58.4944 11.0802L62.3937 16.4536L61.3737 17.8564L56.2047 10.7355C56.9513 10.8686 57.7169 10.9851 58.4944 11.0802ZM59.9114 19.9297L58.8914 21.3325L49.7186 8.69546C50.584 9.04259 51.4947 9.35882 52.4433 9.63937L59.9114 19.9297Z" fill="black"/>
</svg>
